<svg width="28" height="28" viewBox="0 0 28 28" fill="none" xmlns="http://www.w3.org/2000/svg">
<path d="M4.7362 1.4478L14.0002 10.7118L23.2162 1.4958C23.4198 1.27913 23.665 1.10579 23.9372 0.986194C24.2094 0.866596 24.5029 0.803199 24.8002 0.799805C25.4367 0.799805 26.0472 1.05266 26.4972 1.50275C26.9473 1.95284 27.2002 2.56329 27.2002 3.1998C27.2058 3.49405 27.1512 3.78633 27.0398 4.05872C26.9283 4.33111 26.7624 4.57785 26.5522 4.78381L17.2162 13.9998L26.5522 23.3358C26.9478 23.7228 27.1797 24.2468 27.2002 24.7998C27.2002 25.4363 26.9473 26.0468 26.4972 26.4969C26.0472 26.9469 25.4367 27.1998 24.8002 27.1998C24.4943 27.2125 24.1892 27.1614 23.9041 27.0499C23.619 26.9383 23.3602 26.7687 23.1442 26.5518L14.0002 17.2878L4.7602 26.5278C4.55741 26.7373 4.31515 26.9045 4.0474 27.0198C3.77965 27.1352 3.49171 27.1963 3.2002 27.1998C2.56368 27.1998 1.95323 26.9469 1.50314 26.4969C1.05305 26.0468 0.800195 25.4363 0.800195 24.7998C0.7946 24.5056 0.849192 24.2133 0.960623 23.9409C1.07205 23.6685 1.23797 23.4218 1.4482 23.2158L10.7842 13.9998L1.4482 4.6638C1.05264 4.27683 0.82069 3.75279 0.800195 3.1998C0.800195 2.56329 1.05305 1.95284 1.50314 1.50275C1.95323 1.05266 2.56368 0.799805 3.2002 0.799805C3.7762 0.807005 4.3282 1.0398 4.7362 1.4478Z" fill="#1E1E1E"/>
</svg>
