<svg width="80" height="64" viewBox="0 0 80 64" fill="none" xmlns="http://www.w3.org/2000/svg">
<path fill-rule="evenodd" clip-rule="evenodd" d="M12 64C8.8174 64 5.76516 62.7357 3.51472 60.4853C1.26428 58.2348 0 55.1826 0 52V12C0 8.8174 1.26428 5.76516 3.51472 3.51472C5.76516 1.26428 8.8174 0 12 0H68C71.1826 0 74.2348 1.26428 76.4853 3.51472C78.7357 5.76516 80 8.8174 80 12V52C80 55.1826 78.7357 58.2348 76.4853 60.4853C74.2348 62.7357 71.1826 64 68 64H12ZM22.5 16.88C22.0925 16.5321 21.6193 16.2695 21.1085 16.108C20.5976 15.9465 20.0595 15.8892 19.526 15.9397C18.9926 15.9901 18.4748 16.1472 18.0032 16.4016C17.5317 16.656 17.116 17.0026 16.781 17.4207C16.446 17.8388 16.1983 18.32 16.0528 18.8357C15.9073 19.3513 15.8669 19.891 15.934 20.4225C16.001 20.9541 16.1742 21.4668 16.4432 21.9302C16.7122 22.3936 17.0716 22.7982 17.5 23.12L32.5 35.124C34.6283 36.828 37.2735 37.7565 40 37.7565C42.7265 37.7565 45.3717 36.828 47.5 35.124L62.5 23.124C62.9102 22.7957 63.2518 22.3898 63.5052 21.9295C63.7586 21.4692 63.9188 20.9635 63.9768 20.4412C64.0347 19.919 63.9892 19.3905 63.8429 18.8858C63.6966 18.3811 63.4523 17.9102 63.124 17.5C62.7957 17.0898 62.3898 16.7482 61.9295 16.4948C61.4692 16.2414 60.9635 16.0812 60.4412 16.0232C59.919 15.9653 59.3905 16.0108 58.8858 16.1571C58.3811 16.3034 57.9102 16.5477 57.5 16.876L42.5 28.876C41.7906 29.444 40.9088 29.7535 40 29.7535C39.0912 29.7535 38.2094 29.444 37.5 28.876L22.5 16.876V16.88Z" fill="#315D9E"/>
</svg>
