<svg width="56" height="80" viewBox="0 0 56 80" fill="none" xmlns="http://www.w3.org/2000/svg">
<path d="M28 38C25.3478 38 22.8043 36.9464 20.9289 35.0711C19.0536 33.1957 18 30.6522 18 28C18 25.3478 19.0536 22.8043 20.9289 20.9289C22.8043 19.0536 25.3478 18 28 18C30.6522 18 33.1957 19.0536 35.0711 20.9289C36.9464 22.8043 38 25.3478 38 28C38 29.3132 37.7413 30.6136 37.2388 31.8268C36.7362 33.0401 35.9997 34.1425 35.0711 35.0711C34.1425 35.9997 33.0401 36.7362 31.8268 37.2388C30.6136 37.7413 29.3132 38 28 38ZM28 0C20.5739 0 13.452 2.94999 8.20101 8.20101C2.94999 13.452 0 20.5739 0 28C0 49 28 80 28 80C28 80 56 49 56 28C56 20.5739 53.05 13.452 47.799 8.20101C42.548 2.94999 35.4261 0 28 0Z" fill="#315D9E"/>
</svg>
