<svg width="35" height="60" viewBox="0 0 35 60" fill="none" xmlns="http://www.w3.org/2000/svg">
<path d="M33.1815 58.638C34.0251 57.7942 34.499 56.6498 34.499 55.4565C34.499 54.2633 34.0251 53.1189 33.1815 52.275L10.9065 30L33.1815 7.72502C34.0012 6.87631 34.4548 5.7396 34.4445 4.55971C34.4342 3.37983 33.961 2.25117 33.1267 1.41683C32.2923 0.582497 31.1637 0.109241 29.9838 0.0989876C28.8039 0.0887375 27.6672 0.542309 26.8185 1.36202L1.36197 26.8185C0.518352 27.6624 0.0444336 28.8068 0.0444336 30C0.0444336 31.1933 0.518352 32.3376 1.36197 33.1815L26.8185 58.638C27.6623 59.4816 28.8067 59.9556 30 59.9556C31.1932 59.9556 32.3376 59.4816 33.1815 58.638Z" fill="#1E1E1E"/>
</svg>
