<svg width="81" height="80" viewBox="0 0 81 80" fill="none" xmlns="http://www.w3.org/2000/svg">
<path d="M61.6 80C45.2692 79.9788 29.6133 73.482 18.0656 61.9344C6.51795 50.3867 0.0211677 34.7308 0 18.4C0 13.52 1.93857 8.83987 5.38924 5.3892C8.8399 1.93854 13.52 -3.11021e-05 18.4 -3.11021e-05C19.4334 -0.00790231 20.465 0.0858822 21.48 0.279969C22.4612 0.425171 23.4259 0.666327 24.36 0.999969C25.017 1.23049 25.6024 1.6285 26.0584 2.15466C26.5144 2.68081 26.8252 3.31688 26.96 3.99997L32.44 28C32.5877 28.6514 32.5699 29.3295 32.3883 29.9723C32.2066 30.6151 31.8668 31.2022 31.4 31.68C30.88 32.24 30.84 32.28 25.92 34.84C29.86 43.4834 36.7728 50.4246 45.4 54.4C48 49.44 48.04 49.4 48.6 48.88C49.0778 48.4131 49.6649 48.0734 50.3077 47.8917C50.9505 47.71 51.6285 47.6923 52.28 47.84L76.28 53.32C76.9412 53.4734 77.5525 53.7925 78.0564 54.2474C78.5602 54.7022 78.94 55.2778 79.16 55.92C79.4976 56.8694 79.7519 57.8464 79.92 58.84C80.081 59.8453 80.1612 60.8619 80.16 61.88C80.0862 66.7391 78.0932 71.3717 74.6159 74.7666C71.1386 78.1614 66.4595 80.0428 61.6 80Z" fill="#315D9E"/>
</svg>
