<svg width="35" height="60" viewBox="0 0 35 60" fill="none" xmlns="http://www.w3.org/2000/svg">
<path d="M1.81853 1.36197C0.974907 2.20585 0.500988 3.35023 0.500988 4.54347C0.500988 5.73671 0.974907 6.8811 1.81853 7.72497L24.0935 30L1.81853 52.275C0.998817 53.1237 0.545242 54.2604 0.555496 55.4403C0.56575 56.6202 1.03901 57.7488 1.87334 58.5832C2.70768 59.4175 3.83634 59.8908 5.01622 59.901C6.19611 59.9113 7.33282 59.4577 8.18153 58.638L33.638 33.1815C34.4816 32.3376 34.9556 31.1932 34.9556 30C34.9556 28.8067 34.4816 27.6624 33.638 26.8185L8.18153 1.36197C7.33765 0.518353 6.19327 0.0444336 5.00003 0.0444336C3.80679 0.0444336 2.6624 0.518353 1.81853 1.36197Z" fill="#1E1E1E"/>
</svg>
