<svg width="828" height="455" viewBox="0 0 828 455" fill="none" xmlns="http://www.w3.org/2000/svg">
<g clip-path="url(#clip0_262_1319)">
<path d="M-28.1516 454.947C-38.7978 454.947 -49.6279 454.229 -59.3979 454.221C-69.9476 454.212 -80.5061 454.221 -91.0471 454.063C-91.5378 454.063 -92.0197 454.054 -92.5017 454.054C-93.0887 454.054 -93.6671 454.063 -94.2366 454.063C-94.8149 454.072 -95.3845 454.072 -95.954 454.072C-100.677 454.072 -104.962 453.8 -108.756 451C-109.203 450.667 -109.203 450.002 -108.756 449.669C-105.04 446.93 -100.607 446.519 -95.9014 446.519C-94.885 446.519 -93.8511 446.536 -92.8171 446.554C-91.7744 446.571 -90.7317 446.589 -89.6802 446.589C-89.4349 446.589 -89.1895 446.589 -88.9354 446.589C-79.0954 446.492 -69.2466 446.457 -59.3979 446.449C-49.6104 446.44 -38.7978 445.722 -28.1429 445.722C-18.9512 445.722 -9.88231 446.256 -1.72465 448.252C0.825172 448.873 0.825172 451.796 -1.72465 452.418C-9.87355 454.413 -18.9512 454.947 -28.1516 454.947Z" fill="#DADADA"/>
<path d="M225.016 454.947C214.361 454.947 203.54 454.229 193.77 454.221C183.22 454.212 172.662 454.221 162.121 454.063C161.63 454.063 161.148 454.054 160.666 454.054C160.079 454.054 159.501 454.063 158.923 454.063C158.353 454.072 157.784 454.072 157.214 454.072C152.491 454.072 148.206 453.8 144.412 451C143.965 450.667 143.965 450.002 144.412 449.669C148.119 446.93 152.561 446.519 157.267 446.519C158.283 446.519 159.317 446.536 160.351 446.554C161.385 446.571 162.436 446.589 163.488 446.589C163.733 446.589 163.978 446.589 164.224 446.589C174.073 446.492 183.921 446.457 193.77 446.449C203.549 446.44 214.37 445.722 225.025 445.722C234.217 445.722 243.286 446.256 251.443 448.252C253.993 448.873 253.993 451.796 251.443 452.418C243.294 454.413 234.217 454.947 225.016 454.947Z" fill="#DADADA"/>
<path d="M218.024 251.626C214.87 262.032 210.138 272.701 200.841 278.942C196.67 281.725 191.79 283.466 186.822 284.674C183.702 285.427 180.504 285.97 177.271 286.215C173.713 286.477 170.138 286.372 166.616 285.751C159.965 284.578 153.569 281.445 149.354 276.403L149.214 276.237C144.491 270.478 143.019 262.794 143.597 255.556C144.193 248.3 146.647 241.36 149.083 234.498C147.549 235.329 145.464 234.463 144.509 233.045C143.536 231.601 143.422 229.824 143.422 228.153C143.431 217.133 147.479 205.948 155.663 198.237C163.234 191.096 174.826 187.061 185.516 189.258C194.9 191.192 206.984 190.842 214.169 197.879C217.174 200.819 218.953 204.714 220.153 208.653C224.42 222.665 222.247 237.692 218.024 251.626Z" fill="#263238"/>
<path d="M186.979 274.783C184.614 279.238 181.363 283.29 177.271 286.213C173.713 286.476 170.138 286.371 166.616 285.749C159.965 284.576 153.569 281.443 149.354 276.402C148.811 268.621 151.098 260.63 152.307 252.788C154.033 241.551 153.516 230.068 155.041 218.795C155.786 213.342 157.179 207.662 161.008 203.732C164.715 199.934 172.583 195.864 177.481 199.654C183.08 204.012 184.99 212.878 186.261 219.408C187.426 225.482 188.618 231.573 189.783 237.656C190.966 243.756 192.14 249.909 191.974 256.123C191.764 262.608 190.055 269.059 186.979 274.783Z" fill="#263238"/>
<path d="M178.848 224.634L162.147 223.732C162.147 223.732 158.012 250.978 157.714 261.533C157.416 272.08 160.001 295.588 159.151 304.568C159.081 305.329 159.089 305.977 159.124 306.572C158.686 307.666 158.388 308.778 158.196 309.548C157.81 311.114 157.459 312.751 157.346 314.388C157.284 315.263 157.284 316.138 157.389 316.996C157.696 319.639 159.282 321.451 161.026 323.394C161.508 323.928 162.086 324.488 162.813 324.505C163.418 324.523 163.97 324.138 164.32 323.639C164.662 323.149 164.829 322.545 164.978 321.967C165.678 319.236 166.16 316.453 166.415 313.653C166.581 311.885 166.485 309.67 166.169 307.727L178.848 224.634Z" fill="#F5A784"/>
<path d="M236.942 223.732C236.942 223.732 241.078 250.978 241.376 261.533C241.674 272.08 239.089 295.588 239.939 304.568C240.78 313.556 242.217 321.477 235.733 320.024C229.258 318.571 226.322 296.384 226.322 296.384L223.667 246.891L220.241 224.634L236.942 223.732Z" fill="#F5A784"/>
<path d="M214.458 396.37C215.229 400.011 224.394 442.231 224.394 442.231C224.473 442.896 224.71 444.612 224.727 444.726C224.903 445.986 225.201 447.421 225.402 448.997C225.577 450.222 240.175 451.482 246.502 450.966L247.176 447.859C244.241 447.369 240.044 445.925 237.774 444.944C237.503 444.804 237.284 444.708 237.065 444.612C231.983 442.152 232.491 435.562 232.491 435.562C232.429 435.474 231.728 415.301 231.01 395.328C226.506 394.12 219.645 396.028 214.458 396.37Z" fill="#F5A784"/>
<path d="M249.174 450.396C246.861 451.998 225.603 450.493 225.402 448.996C225.192 447.421 224.902 445.994 224.727 444.725L224.666 444.401C227.435 444.953 232.201 445.6 237.774 444.944C240.508 446.134 246.063 447.972 248.823 448.06C248.823 448.06 251.478 448.804 249.174 450.396Z" fill="#263238"/>
<path d="M185.367 396.37C184.596 400.011 175.431 442.231 175.431 442.231C175.352 442.896 175.115 444.612 175.098 444.726C174.922 445.986 174.624 447.421 174.423 448.997C174.248 450.222 159.65 451.482 153.323 450.966L152.649 447.859C155.584 447.369 159.781 445.925 162.051 444.944C162.322 444.804 162.541 444.708 162.76 444.612C167.842 442.152 167.334 435.562 167.334 435.562C167.396 435.474 168.097 415.301 168.815 395.328C173.319 394.12 180.18 396.028 185.367 396.37Z" fill="#F5A784"/>
<path d="M150.651 450.396C152.964 451.998 174.221 450.493 174.423 448.996C174.633 447.421 174.922 445.994 175.098 444.725L175.159 444.401C172.39 444.953 167.623 445.6 162.051 444.944C159.317 446.134 153.761 447.972 151.001 448.06C151.001 448.06 148.346 448.804 150.651 450.396Z" fill="#263238"/>
<path d="M242.094 431.211C228.959 440.138 210.769 434.021 210.769 434.021L200.149 291.552L189.415 432.051C174.896 440.9 154.883 432.55 154.883 432.55C156.224 408 162.182 346.63 166.248 306.116C168.307 285.618 170.147 267.781 170.147 267.781L228.819 268.656L242.094 431.211Z" fill="#152E54"/>
<path d="M230.432 287.763C228.04 289.04 225.279 289.741 222.581 290.248C215.229 291.622 207.676 291.946 200.193 292.55L200.079 292.559C192.552 293.163 185.104 294.064 178.051 296.672C174.397 298.02 170.796 299.893 168.307 302.895C167.492 303.884 166.809 304.961 166.248 306.116C168.307 285.618 169.876 270.442 170.103 268.096C170.436 267.983 170.769 267.886 171.102 267.799C172.224 267.466 173.354 267.221 174.493 267.02C182.572 265.628 190.651 266.757 198.774 268.21C206.712 269.637 214.668 271.37 222.686 271.405C224.754 271.405 227.006 271.37 229.073 271.702L230.432 287.763Z" fill="#122746"/>
<path d="M182.537 178.596C179.785 176.426 178.033 173.301 176.798 170.098C173.932 162.72 173.45 154.51 175.448 146.87C176.561 142.599 178.918 138.056 183.317 136.752C183.658 137.899 184 139.054 184.351 140.201C186.024 136.218 188.425 132.507 191.413 129.287C192.657 127.956 194.401 126.591 196.197 127.099C197.696 127.527 198.51 129.164 198.44 130.652C198.37 132.14 197.625 133.505 196.889 134.827C198.248 133.671 199.676 132.481 201.446 132.096C203.216 131.711 205.398 132.455 205.906 134.118C206.081 134.722 206.037 135.387 206.361 135.929C206.931 136.918 208.333 137.032 209.472 137.33C213.906 138.511 215.676 143.491 216.771 147.762C217.7 151.412 218.41 155.85 215.562 158.431C213.021 160.733 208.938 160.322 205.748 161.705C202.988 162.895 200.981 165.538 200.648 168.409C200.464 169.941 200.736 171.498 200.552 173.03C199.553 181.205 188.381 183.218 182.537 178.596Z" fill="#263238"/>
<path d="M207.177 193.72C207.177 193.72 195.751 195.987 189.617 193.028C189.617 193.028 192.158 187.838 191.352 182.044C191.159 180.635 190.739 179.156 190.055 177.721C186.524 170.518 205.74 183.252 205.74 183.252L207.177 193.72Z" fill="#F5A784"/>
<path d="M226.961 236.721C226.988 237.167 227.049 237.613 227.093 238.069C227.137 238.462 227.172 238.848 227.216 239.241C228.828 252.247 229.231 267.266 231.308 279.642C231.308 280.245 196.513 293.916 167.606 280.403C171.041 266.198 172.381 236.362 172.381 236.362C166.598 239.346 157.687 235.916 157.687 235.916C159.65 192.382 190.011 192.12 190.011 192.12C190.011 192.12 196.136 194.92 206.957 192.557C209.665 192.321 215.194 192.969 215.115 192.855C215.115 192.855 233.726 195.253 240.692 235.539C240.692 235.539 237.537 236.721 233.778 237.158C231.535 237.412 229.091 237.412 226.961 236.721Z" fill="#315D9E"/>
<path d="M210.331 238.269C207.623 241.988 206.624 245.157 201.236 245.034C199.842 245.008 198.502 244.789 197.135 244.693C198.659 241.323 203.794 233.884 201.218 230.654C197.801 226.366 188.469 237.227 188.443 228.711C188.434 225.482 190.94 221.333 192.631 218.725C193.612 217.22 195.619 215.487 195.689 213.561L195.4 213.272C192.876 213.351 190.835 216.992 189.678 218.856C187.514 222.348 185.805 226.611 185.455 230.733C185.253 233.07 185.595 235.092 188.285 235.564C190.029 235.862 191.921 234.847 193.472 234.251C195.575 233.455 196.548 231.915 197.477 234.488C198.204 236.51 197.249 237.455 196.399 239.31C195.654 240.947 194.822 242.829 194.068 244.842C189.853 245.498 185.437 247.59 183.282 251.353C183.071 251.73 183.501 252.176 183.886 251.948C186.979 250.137 189.722 248.22 193.157 247.467C191.457 252.85 190.73 258.723 193.805 263.064C198.502 269.715 205.231 262.101 206.984 257.016C207.36 255.904 205.783 255.397 205.179 256.263C204.127 257.786 203.146 259.93 201.577 260.998C196.25 264.63 195.006 260.779 194.743 256.762C194.532 253.506 195.251 250.25 196.25 247.152C198.791 247.257 201.288 248.22 203.794 247.922C208.263 247.397 211.067 243.03 212.022 238.978C212.267 237.919 210.935 237.446 210.331 238.269Z" fill="#2B4A78"/>
<path d="M211.006 223.452C209.095 216.853 200.508 215.82 200.508 208.529C200.508 208.1 200.018 207.96 199.72 208.205C197.188 210.271 198.397 213.711 200.202 215.925C201.56 217.605 203.453 218.533 204.968 220.012C208.833 223.776 208.938 228.633 205.564 232.738C204.933 233.517 205.704 234.576 206.642 234.129C210.787 232.134 212.276 227.845 211.006 223.452Z" fill="#2B4A78"/>
<path d="M206.37 187.856C205.915 187.891 205.485 187.873 205.03 187.838C203.216 187.698 201.446 187.269 199.711 186.753C197.538 186.123 195.391 185.361 193.577 184.04C192.789 183.471 192.027 182.797 191.352 182.044C191.159 180.635 190.739 179.156 190.055 177.721C186.524 170.518 205.74 183.252 205.74 183.252L206.37 187.856Z" fill="#E0855C"/>
<path d="M217.507 160.759C217.507 160.759 219.934 135.316 196.688 139.684C169.683 144.751 176 164.137 181.74 170.124C187.479 176.119 220.495 171.183 217.507 160.759Z" fill="#263238"/>
<path d="M212.942 150.731C215.141 152.735 216.534 156.997 217.744 162.074C221.406 177.442 214.738 184.567 209.437 185.556C203.987 186.562 192.07 186.492 187.374 172.48C185.034 165.478 183.869 159.439 184.841 155.422C186.892 147.002 203.26 141.926 212.942 150.731Z" fill="#F5A784"/>
<path d="M210.462 164.444C210.462 164.444 211.969 164.68 211.277 162.352C210.655 160.26 209.717 160.733 209.717 160.733C209.717 160.733 208.736 160.908 209.262 162.746C209.788 164.575 210.462 164.444 210.462 164.444Z" fill="#263238"/>
<path d="M197.266 167.211C197.266 167.211 198.773 167.447 198.081 165.119C197.459 163.027 196.521 163.5 196.521 163.5C196.521 163.5 195.549 163.675 196.066 165.504C196.591 167.342 197.266 167.211 197.266 167.211Z" fill="#263238"/>
<path d="M204.241 170.904C204.924 170.667 206.633 170.772 206.826 169.976C206.975 169.32 205.108 165.932 204.819 165.346C204.504 164.707 204.206 164.129 203.908 163.569L204.074 163.412L204.495 163.167C205.652 165.512 206.651 168.007 207.746 170.23C207.842 170.431 207.72 170.676 207.492 170.711C206.449 170.895 205.476 171.289 204.442 171.481C204.101 171.551 203.882 171.017 204.241 170.904Z" fill="#E0855C"/>
<path d="M207.474 157.539C208.377 156.865 210.225 156.392 211.154 157.25C211.329 157.408 211.207 157.714 210.979 157.749C210.48 157.819 209.989 157.662 209.481 157.723C208.929 157.775 208.447 157.985 207.965 158.239C207.527 158.467 207.071 157.837 207.474 157.539Z" fill="#263238"/>
<path d="M193.954 161.574C194.252 160.112 196.705 159.525 197.941 160.164C198.221 160.322 198.142 160.707 197.888 160.838C197.31 161.136 196.609 161.031 195.978 161.206C195.426 161.364 195.023 161.679 194.532 161.95C194.287 162.099 193.893 161.863 193.954 161.574Z" fill="#263238"/>
<path d="M203.295 174.894C204.373 175.174 205.223 175.577 206.388 175.411C207.29 175.279 208.184 174.693 209.095 174.824L209.297 175.13C208.833 176.181 207.15 176.584 206.064 176.689C204.907 176.811 203.479 176.654 202.682 175.752C202.313 175.323 202.76 174.754 203.295 174.894Z" fill="#E0855C"/>
<path d="M187.838 168.882C187.838 168.882 184.009 162.948 180.706 167.079C177.402 171.21 184.754 179.367 190.712 177.52C190.712 177.52 190.23 170.72 187.838 168.882Z" fill="#F5A784"/>
<path d="M183.255 169.608C184.167 169.599 185.227 170.229 185.989 170.676C186.778 171.148 187.707 171.743 188.206 172.514C188.364 172.759 188.022 172.986 187.803 172.855C187.19 172.487 186.664 172.015 186.086 171.612C185.814 172.023 185.534 172.452 185.087 172.706C184.745 172.907 184.386 172.522 184.491 172.207C184.622 171.796 184.947 171.455 185.28 171.139C184.543 170.789 183.702 170.562 183.071 170.115C182.826 169.949 182.966 169.617 183.255 169.608Z" fill="#E0855C"/>
<path d="M186.524 159.771C186.182 157.758 186.48 155.343 188.285 154.257C189.915 153.277 192.534 153.505 193.27 151.798C193.446 151.395 193.472 150.932 193.709 150.555C194.015 150.091 194.585 149.864 195.128 149.689C198.107 148.735 201.358 148.595 204.416 149.295C207.229 149.934 210.085 151.282 212.889 150.555C213.205 150.476 213.538 150.354 213.722 150.083C213.897 149.829 213.888 149.505 213.862 149.199C213.441 145.444 209.971 142.582 206.265 141.287C200.517 139.274 193.822 140.219 188.697 143.422C185.113 145.654 182.221 149.024 181.091 152.971C180.092 156.437 181.266 162.091 183.825 164.953C188.083 169.723 187.128 163.342 186.524 159.771Z" fill="#263238"/>
<path d="M174.598 197.686C174.598 197.686 174.765 221.685 172.382 236.362C172.382 236.362 170.91 245.35 172.846 242.042C176.596 235.609 183.405 210.823 183.229 193.415C183.229 193.415 177.805 192.54 174.598 197.686Z" fill="#263238"/>
<path d="M227.093 238.069C227.137 238.463 227.163 238.848 227.215 239.242L227.093 238.069Z" fill="#008F89"/>
<path d="M233.779 237.158C231.536 237.412 229.091 237.412 226.962 236.72L224.315 210.061C228.109 217.982 231.72 229.806 233.779 237.158Z" fill="#2B4A78"/>
<path d="M373.134 454.947C359.526 454.947 345.69 454.229 333.204 454.221C319.719 454.212 306.225 454.221 292.758 454.063C292.127 454.063 291.513 454.054 290.9 454.054C290.146 454.054 289.41 454.063 288.674 454.063C287.938 454.072 287.211 454.072 286.493 454.072C280.455 454.072 274.979 453.8 270.133 451C269.555 450.667 269.555 450.002 270.133 449.669C274.865 446.93 280.543 446.519 286.554 446.519C287.851 446.519 289.174 446.536 290.497 446.554C291.829 446.571 293.161 446.589 294.501 446.589C294.817 446.589 295.132 446.589 295.448 446.589C308.03 446.492 320.622 446.457 333.204 446.449C345.708 446.44 359.535 445.722 373.143 445.722C384.893 445.722 396.476 446.256 406.912 448.252C410.172 448.873 410.163 451.796 406.912 452.418C396.494 454.413 384.893 454.947 373.134 454.947Z" fill="#DADADA"/>
<path d="M394.452 450.449C391.867 452.235 367.526 447.185 367.289 445.522C367.061 443.754 367.289 445.522 367.097 444.104L367.044 443.736C366.106 436.822 361.147 411.712 361.147 411.712C361.147 411.712 373.546 403.546 378.321 410.163C378.321 410.163 375.219 441.216 380.906 443.973C381.142 444.086 381.397 444.2 381.712 444.34C384.753 445.671 390.974 447.736 394.067 447.832C394.067 447.832 397.037 448.664 394.452 450.449Z" fill="#F5A784"/>
<path d="M363.696 443.807C363.933 445.452 365.239 446.747 366.728 447.465C368.209 448.174 369.883 448.384 371.521 448.603C378.031 449.478 384.025 451.596 390.737 451.684C394.75 451.719 402.96 451.535 403.372 445.986L403.363 445.706C403.346 445.181 403.214 444.069 402.504 442.861C401.462 441.041 399.087 439.063 393.874 438.73C392.752 438.652 391.736 438.468 390.842 438.214C390.36 438.083 389.904 437.943 389.475 437.759L389.107 437.575C388.362 437.243 387.731 436.831 387.179 436.411L386.995 436.28C386.417 435.798 385.917 435.308 385.488 434.774L385.374 434.643C384.901 434.092 384.524 433.584 384.139 433.076C382.93 431.361 382.027 429.961 380.275 429.952C376.165 429.926 370.697 432.306 371.582 436.332C371.582 436.332 366.623 436.989 365.484 434.214C364.748 432.446 364.134 434.135 363.994 435.168C363.74 436.945 364.301 438.757 364.012 440.603C363.977 440.857 363.924 441.085 363.889 441.339C363.74 442.109 363.591 442.853 363.688 443.605L363.696 443.807Z" fill="#263238"/>
<path d="M363.697 443.805C363.933 445.451 365.239 446.746 366.728 447.464C368.209 448.173 369.883 448.383 371.521 448.602C378.032 449.477 384.025 451.595 390.737 451.682C394.75 451.717 402.96 451.534 403.372 445.985L403.364 445.705C403.346 445.18 403.215 444.068 402.505 442.86L402.417 443.097C400.858 453.109 382.72 449.311 376.262 447.875C371.925 446.877 367.833 445.136 363.688 443.604L363.697 443.805Z" fill="#2B4A78"/>
<path d="M383.806 443.158C385.523 442.476 386.952 440.979 388.468 439.92C389.274 439.351 390.08 438.817 390.842 438.213C390.351 438.091 389.905 437.942 389.475 437.758L389.107 437.574C388.643 437.846 388.196 438.143 387.732 438.432C386.137 439.482 384.095 440.568 382.974 442.134C382.562 442.703 383.175 443.412 383.806 443.158Z" fill="#2B4A78"/>
<path d="M380.012 441.153C381.94 440.751 383.412 439.027 384.963 437.906C385.611 437.425 386.435 436.952 387.179 436.41L386.995 436.278C386.417 435.797 385.918 435.307 385.488 434.773C384.901 435.141 384.34 435.57 383.823 435.911C382.176 437.014 379.916 438.151 379.136 440.051C378.917 440.593 379.407 441.267 380.012 441.153Z" fill="#2B4A78"/>
<path d="M293.485 450.449C296.07 452.235 320.411 447.185 320.648 445.522C320.876 443.754 320.648 445.522 320.841 444.104L320.902 443.736C321.831 436.822 326.79 411.712 326.79 411.712C326.79 411.712 314.391 403.546 309.607 410.163C309.607 410.163 312.718 441.216 307.031 443.973C306.795 444.086 306.541 444.2 306.234 444.34C303.185 445.671 296.963 447.736 293.879 447.832C293.879 447.832 290.9 448.664 293.485 450.449Z" fill="#F5A784"/>
<path d="M382.255 420.219C382.255 420.219 367.421 423.213 359.035 421.06L343.71 246.733L343.464 246.707L343.254 246.733L329.646 423.09C329.646 423.09 312.893 425.549 306.339 422.399C306.339 422.399 304.061 320.514 307.206 261.945C307.452 257.455 307.758 253.14 308.074 249.009C308.687 241.482 309.397 234.559 310.159 228.284C310.326 227.05 311.298 219.75 311.631 217.475C311.903 215.715 312.166 214.044 312.437 212.433C315.162 195.655 317.774 186.606 317.774 186.606L352.901 188.916L373.046 186.606C373.046 186.606 374.921 195.183 376.893 213.379C376.919 213.676 376.971 214 376.998 214.315C377.287 217.081 377.594 220.074 377.9 223.277C378.566 230.62 379.206 239.128 379.784 248.825C380.082 254.006 380.371 259.511 380.616 265.375C381.335 282.731 381.729 303.124 381.563 326.72C381.423 344.985 382.255 420.219 382.255 420.219Z" fill="#152E54"/>
<path d="M380.616 265.375C378.645 265.498 376.647 265.366 374.737 264.964C368.665 263.738 363.223 260.491 357.878 257.349C353.48 254.759 348.95 252.186 344.06 250.803C343.692 250.698 343.324 250.593 342.965 250.496C342.282 250.348 341.581 250.19 340.88 250.085C334.693 249.105 328.402 250.409 322.155 250.925C316.494 251.38 311.544 251.1 308.074 249.009C308.687 241.482 309.397 234.559 310.159 228.283C310.326 227.049 311.298 219.75 311.631 217.474C312.893 216.223 314.26 215.085 315.706 214.105C325.668 207.226 338.523 205.948 350.562 207.103C357.616 207.768 364.59 209.177 371.346 211.339C373.195 211.925 375.07 212.599 376.893 213.378C376.919 213.676 376.971 214 376.998 214.315C377.287 217.08 377.594 220.074 377.9 223.277C378.566 230.62 379.206 239.127 379.784 248.825C380.082 254.006 380.371 259.511 380.616 265.375Z" fill="#132B4F"/>
<path d="M323.215 116.684C325.765 118.234 324.871 119.039 325.353 121.979C326.843 131.064 313.296 187.28 308.626 197.695C300.354 216.162 276.372 247.635 276.372 247.635C276.372 247.635 266.006 255.818 265.954 248.186C265.954 248.186 288.832 196.566 291.242 189.1C293.66 181.626 300.74 151.763 302.931 138.486C304.841 126.863 314.173 111.206 323.215 116.684Z" fill="#F5A784"/>
<path d="M320.551 134.18V134.372C320.586 136.272 320.551 138.276 320.437 140.368C320.394 141.646 320.297 142.95 320.175 144.289C320.131 144.761 320.087 145.225 320.052 145.689C319.719 149.312 319.237 153.093 318.659 156.953C318.597 157.408 318.536 157.872 318.457 158.318C317.958 161.583 317.397 164.856 316.784 168.121C316.696 168.646 314.795 178.361 314.111 181.591C313.55 184.312 312.849 186.982 312.078 189.59C311.605 191.192 311.114 192.741 310.597 194.255C310.352 194.938 310.124 195.62 309.87 196.294C309.204 198.141 308.503 199.961 307.776 201.729C307.04 203.506 306.286 205.239 305.524 206.884C305.191 207.602 304.867 208.337 304.516 209.029C301.537 215.243 298.532 220.337 296.359 223.837C295.789 224.748 295.272 225.535 294.834 226.201C293.686 227.96 292.994 228.922 292.994 228.922L274.917 216.048C274.917 216.048 276.092 212.67 278.177 207.725C278.466 207.016 278.764 206.254 279.115 205.475C280.499 202.272 282.19 198.587 284.135 194.815C284.407 194.308 284.679 193.756 284.968 193.213L285.064 193.012C286.58 190.124 287.824 186.571 288.849 182.912C289.077 182.186 289.253 181.468 289.437 180.724C290.549 176.383 291.338 171.981 291.89 168.357C291.978 167.85 292.039 167.368 292.118 166.896C292.223 166.195 292.311 165.557 292.389 164.935C292.722 162.555 293.099 160.183 293.59 157.828C293.721 157.207 293.861 156.568 294.045 155.938C294.396 154.249 294.817 152.577 295.281 150.905C295.412 150.441 297.007 145.059 297.086 144.823C297.279 144.21 297.48 143.624 297.682 143.046C299.18 138.346 300.687 134.504 302.098 131.353C302.387 130.714 302.668 130.093 302.957 129.497C304.516 126.215 305.988 123.8 307.32 121.979C307.715 121.419 308.109 120.938 308.468 120.483C310.186 118.461 311.588 117.516 312.56 117.087C313.542 116.623 314.111 116.693 314.111 116.693C315.793 117.411 317.125 118.811 318.098 120.719C318.334 121.192 318.58 121.726 318.781 122.268C319.202 123.38 319.526 124.596 319.798 125.927C320.288 128.403 320.525 131.152 320.551 134.18Z" fill="#315D9E"/>
<path d="M299.408 221.124C299.408 221.124 296.499 228.379 293.923 229.683C291.356 230.97 275.426 223.329 273.296 220.039C271.167 216.748 274.392 212.634 274.392 212.634L299.408 221.124Z" fill="#2B4A78"/>
<path d="M320.437 140.367C320.393 141.644 320.297 142.949 320.174 144.288C320.131 144.76 320.087 145.224 320.052 145.688C319.719 149.311 319.237 153.092 318.658 156.952C318.597 157.407 318.536 157.871 318.457 158.317C317.957 161.582 317.397 164.855 316.783 168.12C316.696 168.645 314.794 178.36 314.111 181.59C313.55 184.311 312.849 186.981 312.078 189.589C311.605 191.191 311.114 192.74 310.597 194.254C310.352 194.937 310.124 195.619 309.87 196.293C309.204 198.14 308.503 199.96 307.776 201.728C306.873 192.95 305.48 166.623 315.539 132.717C315.539 132.717 317.94 135.343 320.437 140.367Z" fill="#2B4A78"/>
<path d="M330.032 73.0723C329.971 75.8905 330.356 78.8663 332.056 81.1156C332.6 81.8333 333.336 82.4984 334.229 82.5684C335.07 82.6385 335.877 82.1658 336.455 81.5532C337.033 80.9318 337.419 80.1703 337.874 79.4527C339.636 76.6344 342.378 74.4376 345.515 73.3261C346.234 73.0635 346.996 72.8622 347.636 72.4246C348.573 71.7857 349.143 70.7267 349.528 69.6502C349.931 68.4949 350.168 67.2433 349.887 66.0443C349.3 63.5236 346.672 62.0445 344.183 61.2831C342.08 60.6267 339.881 60.2678 337.673 60.1891C336.42 60.1541 334.107 59.839 333.073 60.7667C331.811 61.9045 331.329 64.7577 330.935 66.3244C330.391 68.5299 330.085 70.8055 330.032 73.0723Z" fill="#263238"/>
<path d="M324.24 443.807C324.004 445.452 322.698 446.747 321.209 447.465C319.719 448.174 318.054 448.384 316.416 448.603C309.905 449.478 303.912 451.596 297.2 451.684C293.187 451.719 284.977 451.535 284.565 445.986L284.574 445.706C284.591 445.181 284.723 444.069 285.432 442.861C286.484 441.041 288.85 439.063 294.063 438.73C295.185 438.652 296.201 438.468 297.095 438.214C297.577 438.083 298.033 437.943 298.462 437.759L298.839 437.575C299.575 437.243 300.206 436.831 300.758 436.411L300.942 436.28C301.52 435.798 302.019 435.308 302.449 434.774L302.563 434.643C303.036 434.092 303.421 433.584 303.798 433.076C305.016 431.361 305.919 429.961 307.662 429.952C311.772 429.926 317.239 432.306 316.354 436.332C316.354 436.332 321.314 436.989 322.453 434.214C323.189 432.446 323.802 434.135 323.943 435.168C324.197 436.945 323.636 438.757 323.925 440.603C323.969 440.857 324.013 441.085 324.056 441.339C324.197 442.109 324.346 442.853 324.249 443.605L324.24 443.807Z" fill="#263238"/>
<path d="M324.24 443.805C324.004 445.451 322.698 446.746 321.209 447.464C319.719 448.173 318.054 448.383 316.416 448.602C309.905 449.477 303.912 451.595 297.2 451.682C293.187 451.717 284.977 451.534 284.565 445.985L284.574 445.705C284.591 445.18 284.723 444.068 285.432 442.86L285.52 443.097C287.08 453.109 305.218 449.311 311.675 447.875C316.013 446.877 320.105 445.136 324.249 443.604L324.24 443.805Z" fill="#2B4A78"/>
<path d="M304.131 443.158C302.413 442.476 300.985 440.979 299.469 439.92C298.663 439.351 297.857 438.817 297.094 438.213C297.585 438.091 298.032 437.942 298.461 437.758L298.838 437.574C299.303 437.846 299.741 438.143 300.205 438.432C301.8 439.482 303.841 440.568 304.963 442.134C305.375 442.703 304.761 443.412 304.131 443.158Z" fill="#2B4A78"/>
<path d="M307.925 441.153C306.006 440.751 304.525 439.027 302.974 437.906C302.317 437.425 301.502 436.952 300.757 436.41L300.941 436.278C301.52 435.797 302.019 435.307 302.448 434.773C303.036 435.141 303.596 435.57 304.113 435.911C305.761 437.014 308.021 438.151 308.801 440.051C309.02 440.593 308.538 441.267 307.925 441.153Z" fill="#2B4A78"/>
<path d="M412.31 254.531C412.31 254.531 412.126 258.33 412.406 263.064C412.695 267.808 413.396 278.215 411.863 281.348C411.863 281.348 411.433 281.864 410.636 282.477L410.259 282.739C409.506 283.238 408.507 283.772 407.245 284.043L406.938 284.105C406.045 284.28 405.002 284.341 403.872 284.157L403.591 284.105C402.724 283.956 401.804 283.685 400.805 283.256C400.805 283.256 400.34 272.657 398.912 269.366C398.912 269.366 397.536 275.773 395.565 276.359L394.198 276C394.198 276 394.899 268.937 394.925 265.76C394.978 258.049 401.05 252.632 401.05 252.632C401.05 252.632 409.313 249.84 412.31 254.531Z" fill="#F5A784"/>
<path d="M385.865 119.441C388.94 119.546 391.762 121.148 393.681 123.546C399.604 130.959 415.814 188.251 416.883 199.953C418.767 220.696 412.257 258.514 412.257 258.514C412.257 258.514 403.775 261.14 399.876 254.313C399.876 254.313 398.535 208.915 396.932 200.986C395.328 193.065 384.761 162.038 380.029 149.024C375.876 137.629 374.982 119.083 385.865 119.441Z" fill="#F5A784"/>
<path d="M403.871 284.157L403.591 284.104C403.766 279.343 403.153 274.687 402.68 269.89L402.855 269.855C404.353 274.485 404.388 279.352 403.871 284.157Z" fill="#E0855C"/>
<path d="M407.245 284.044L406.938 284.105C407.113 279.344 406.5 274.697 406.044 269.9L406.202 269.865C407.701 274.451 407.744 279.283 407.245 284.044Z" fill="#E0855C"/>
<path d="M410.636 282.477L410.259 282.74C410.364 278.241 409.786 273.83 409.357 269.305L409.514 269.261C411.022 273.506 411.039 278.031 410.636 282.477Z" fill="#E0855C"/>
<path d="M267.934 243.46C267.645 243.941 267.417 244.475 267.207 245C265.367 249.49 263.877 253.788 262.756 258.496C262.002 261.691 260.539 266.006 261.406 269.305C261.406 269.305 261.678 269.839 262.282 270.513L262.572 270.802C263.141 271.38 263.93 272.018 264.999 272.474L265.244 272.587C266.015 272.885 266.909 273.112 267.934 273.156H268.188C268.977 273.182 269.835 273.112 270.782 272.911C270.782 272.911 273.042 263.678 274.865 261.034C274.865 261.034 274.961 266.898 276.591 267.756L277.844 267.677C277.844 267.677 278.466 261.358 278.992 258.566C280.289 251.775 275.899 245.972 275.899 245.972C274.479 244.335 271.088 240.528 268.784 242.427C268.442 242.716 268.162 243.075 267.934 243.46Z" fill="#F5A784"/>
<path d="M267.934 273.156H268.188C268.863 268.955 270.221 264.973 271.465 260.842L271.325 260.781C269.196 264.588 268.311 268.85 267.934 273.156Z" fill="#E0855C"/>
<path d="M264.999 272.473L265.244 272.587C265.927 268.369 267.277 264.395 268.503 260.264L268.372 260.203C266.26 263.975 265.375 268.202 264.999 272.473Z" fill="#E0855C"/>
<path d="M262.282 270.513L262.571 270.802C263.264 266.837 264.534 263.065 265.708 259.161L265.577 259.1C263.509 262.566 262.703 266.539 262.282 270.513Z" fill="#E0855C"/>
<path d="M333.773 83.4172C333.773 83.4172 334.737 80.4064 334.553 72.4944C334.422 66.7092 339.083 57.1868 344.849 56.6967C366.316 54.8763 374.281 64.845 371.46 76.9406C368.209 90.8303 367.035 86.9356 367.035 86.9356C367.035 86.9356 334.816 85.2026 333.773 83.4172Z" fill="#E0855C"/>
<path d="M334.343 78.2001C334.343 78.2001 331.153 74.3754 327.973 78.2001C324.783 82.0161 330.198 89.3242 334.343 89.648C334.343 89.648 334.816 79.8368 334.343 78.2001Z" fill="#E0855C"/>
<path d="M317.783 191.147C317.783 191.147 346.725 198.368 373.055 191.147C373.055 191.147 377.638 165.635 378.821 158.195C381.081 144.262 388.074 127.073 389.94 122.609C390.212 121.97 389.957 121.209 389.353 120.841C386.61 119.178 378.102 114.863 366.352 113.717C364.801 113.55 363.163 113.454 361.471 113.437C361.471 113.437 361.515 108.308 361.822 102.969C361.883 102.068 361.936 101.149 361.997 100.256C362.199 97.9891 362.426 95.871 362.742 94.2431C362.742 94.2431 354.286 101.621 342.265 99.792C341.818 99.7308 341.371 99.6607 340.924 99.5645L339.68 112.894C339.68 112.894 335.815 112.868 330.996 113.2C324.968 113.603 317.467 114.557 314.111 116.693C301.888 124.552 317.783 191.147 317.783 191.147Z" fill="#F5A784"/>
<path d="M340.275 106.487C343.368 108.212 358.387 110.566 361.997 100.256C362.198 97.9891 362.426 95.871 362.742 94.2431C362.742 94.2431 354.286 101.621 342.264 99.792C341.817 99.7308 341.37 99.6607 340.924 99.5645L340.275 106.487Z" fill="#E0855C"/>
<path d="M336.104 63.2608C333.992 65.4664 332.774 76.5467 332.599 81.9993C332.065 98.5235 337.015 103.679 345.462 104.589C353.909 105.49 362.75 102.252 364.564 86.9355C365.475 79.2774 366.448 72.2056 363.653 68.8885C359.499 63.961 342.606 56.5217 336.104 63.2608Z" fill="#F5A784"/>
<path d="M340.24 80.4668C340.24 80.4668 338.803 81.0007 339.022 78.4713C339.215 76.2045 340.24 76.5108 340.24 76.5108C340.24 76.5108 341.23 76.5021 341.081 78.4888C340.932 80.4756 340.24 80.4668 340.24 80.4668Z" fill="#263238"/>
<path d="M354.347 81.6144C354.347 81.6144 352.919 82.1396 353.138 79.6102C353.331 77.3434 354.347 77.6497 354.347 77.6497C354.347 77.6497 355.337 77.6409 355.188 79.6277C355.039 81.6144 354.347 81.6144 354.347 81.6144Z" fill="#263238"/>
<path d="M346.356 88.3436C345.629 88.2298 343.964 88.6674 343.622 87.8885C343.342 87.2321 344.507 83.3986 344.674 82.7334C345.27 80.3616 345.892 78.7599 346.339 75.9067L346.084 75.8455C344.411 79.6177 343.789 84.3001 342.772 88.3173C342.711 88.5361 342.877 88.7725 343.114 88.7637C344.174 88.7462 345.208 88.9738 346.268 88.9825C346.619 88.9825 346.724 88.3961 346.356 88.3436Z" fill="#E0855C"/>
<path d="M341.808 72.7914C340.783 72.2749 338.864 72.1348 338.119 73.1942C337.988 73.3868 338.163 73.6845 338.391 73.667C338.899 73.6495 339.355 73.4043 339.863 73.3605C340.415 73.3168 340.941 73.4393 341.458 73.6057C341.931 73.7545 342.255 73.0278 341.808 72.7914Z" fill="#263238"/>
<path d="M356.494 75.1806C355.907 73.7272 353.366 73.5871 352.288 74.4889C352.043 74.6903 352.2 75.0843 352.463 75.1718C353.094 75.3644 353.769 75.128 354.426 75.1893C354.996 75.2331 355.46 75.4958 355.986 75.6796C356.266 75.7759 356.608 75.4607 356.494 75.1806Z" fill="#263238"/>
<path d="M317.783 191.147C317.783 191.147 313.857 204.67 310.633 229.22C320.175 230.27 353.568 233.289 377.892 227.819C375.579 202.805 373.055 191.147 373.055 191.147C373.055 191.147 377.638 165.635 378.821 158.195C381.081 144.262 388.074 127.073 389.94 122.609C390.212 121.97 389.957 121.217 389.353 120.841C386.61 119.178 378.102 114.863 366.352 113.717C364.836 118.478 360.078 128.56 346.961 127.633C334.913 126.801 331.785 118.224 330.996 113.2C324.968 113.603 317.467 114.557 314.111 116.693C301.888 124.552 317.783 191.147 317.783 191.147Z" fill="#C6C6C6"/>
<path d="M352.043 120.919L352.069 121.077C352.087 121.296 355.855 159.508 355.898 159.989C356.17 163.271 357.493 184.268 357.528 184.793C357.721 188.88 358.01 198.14 358.036 198.735C358.115 202.385 358.212 223.329 358.229 223.793C358.308 228.335 358.466 232.309 358.615 235.669C358.632 236.168 358.676 236.658 358.694 237.122C359.062 244.282 359.491 248.185 359.491 248.185C360.464 248.185 363.224 248.168 363.644 248.168C367.841 248.141 371.478 248.089 374.527 247.896C375.053 247.861 375.561 247.817 376.043 247.8C380.003 247.529 382.746 247.056 384.008 246.382C384.008 246.382 384.052 243.993 383.929 238.794C383.92 238.383 383.911 237.98 383.911 237.551C383.911 234.173 384.025 221.307 384.052 220.476C384.087 218.086 384.052 215.154 383.955 211.898C383.929 211.373 382.203 157.083 382.255 156.033C382.334 154.869 382.466 153.688 382.632 152.497C382.956 150.187 383.421 147.92 383.99 145.67C385.059 141.461 386.461 137.373 387.819 133.768C388.03 133.19 388.257 132.647 388.476 132.122C389.642 129.339 390.632 126.897 391.464 125.12C391.675 124.674 391.876 124.263 392.051 123.913L392.288 123.387C392.481 123.02 392.63 122.696 392.752 122.46C392.901 122.153 393.024 121.935 393.059 121.838C393.077 121.794 392.77 121.392 391.859 120.735L391.412 120.438C389.896 119.431 387.136 117.996 382.395 116.596C382.185 116.517 381.931 116.456 381.694 116.386C379.881 115.825 377.751 115.353 375.324 114.872L374.781 114.775C371.986 114.233 368.753 113.725 365.09 113.305L364.582 113.244L364.214 113.209L352.043 120.919Z" fill="#315D9E"/>
<path d="M306.357 243.468C311.973 245.717 317.143 246.478 321.042 246.653C321.568 246.688 322.076 246.688 322.541 246.688C325.975 246.767 328.096 246.382 328.096 246.382C328.096 246.382 335.85 175.708 335.964 173.24C336.008 172.391 336.972 158.107 337.016 157.661C337.366 153.565 337.752 149.837 338.137 146.467C338.199 145.994 338.26 145.53 338.313 145.084C338.952 139.92 339.636 135.614 340.258 132.087C340.354 131.597 340.451 131.116 340.53 130.669C341.23 127.002 341.888 124.289 342.396 122.363C342.527 121.838 342.65 121.392 342.764 120.981C343.193 119.493 343.465 118.801 343.465 118.801L333.362 112.736L332.976 112.78L332.486 112.797C327.763 113.165 323.96 113.707 321.042 114.268C320.718 114.329 320.385 114.39 320.07 114.443C315.548 115.353 313.393 116.211 313.393 116.211C313.393 116.211 313.042 116.412 312.56 117.086C312.07 117.768 311.43 118.889 310.869 120.753C310.747 121.156 310.624 121.602 310.492 122.092C310.011 123.965 309.669 126.459 309.485 129.654C309.45 130.302 309.423 130.844 309.406 131.404C309.231 135.579 309.327 139.71 309.581 143.763C309.599 144.27 309.643 144.778 309.678 145.285C309.949 149.18 310.379 152.979 310.843 156.672C310.904 157.136 313.402 174.719 313.682 177.143C313.866 178.693 314.015 180.172 314.111 181.59C314.208 182.867 314.216 184.478 314.146 186.307C314.059 188.731 313.857 191.462 313.568 194.429C313.507 195.094 313.445 195.794 313.366 196.468C313.025 199.882 312.578 203.558 312.087 207.277C311.991 207.942 306.357 243.468 306.357 243.468Z" fill="#315D9E"/>
<path d="M381.134 156.497C381.134 156.497 396.047 199.864 396.17 200.354C396.8 202.761 397.142 206.638 397.414 210.752C397.431 211.259 397.466 211.758 397.51 212.283C397.957 220.397 397.957 228.913 397.957 228.913C398.562 229.166 399.158 229.377 399.762 229.578C400.156 229.727 400.559 229.849 400.945 229.945C405.957 231.495 410.294 231.67 413.247 231.495C413.458 231.495 413.677 231.477 413.869 231.46C415.981 231.302 417.225 230.996 417.225 230.996C418.102 224.256 418.434 218.13 418.434 212.669C418.434 212.283 418.426 211.898 418.408 211.513C418.294 207.067 418.119 203.085 417.751 199.654C417.716 199.225 417.655 198.796 417.62 198.394C417.173 194.569 416.586 191.445 416.077 189.116C415.964 188.548 415.832 188.031 415.709 187.559C415.192 185.37 414.798 184.224 414.798 184.224C414.141 181.213 412.178 173.012 411.863 171.77C411.092 168.724 410.329 165.827 409.558 163.096C409.453 162.746 409.357 162.413 409.26 162.09C407.841 157.083 406.351 152.637 405.072 148.655C404.941 148.27 404.818 147.876 404.678 147.508C404.362 146.616 404.073 145.767 403.766 144.935C403.512 144.235 403.258 143.552 403.004 142.914C401.742 139.535 400.498 136.629 399.455 134.1C399.245 133.601 399.026 133.111 398.816 132.647C396.888 128.359 395.293 125.444 394.303 123.738C394.032 123.291 393.821 122.924 393.646 122.652C393.269 122.075 393.076 121.795 393.076 121.795C392.866 122.013 392.656 122.232 392.498 122.398C392.13 122.766 391.78 123.134 391.447 123.51C389.002 126.223 387.118 129.111 385.681 132.008C385.41 132.551 385.138 133.111 384.901 133.654C384.516 134.529 384.165 135.404 383.85 136.271C383.508 137.207 383.193 138.117 382.921 139.036C382.141 141.671 381.659 144.191 381.37 146.467C381.291 147.106 381.23 147.71 381.169 148.305C380.722 153.18 381.134 156.497 381.134 156.497Z" fill="#315D9E"/>
<path d="M334.545 63.0945C336.227 64.2498 338.129 65.1163 339.986 65.6589C341.625 66.1403 343.342 66.2891 345.042 66.3766C347.285 66.4991 349.528 66.5341 351.771 66.4729C353.62 66.4291 355.487 66.3241 357.292 66.7004C360.875 67.4356 364.021 70.2276 364.924 73.7722C365.344 75.4526 365.441 77.4131 365.318 79.1286C365.23 80.3801 364.678 82.043 365.511 83.1633C365.826 83.5922 366.361 83.8635 366.895 83.8635C367.666 83.8547 369.208 82.857 369.874 82.4194C370.908 81.728 371.609 80.6077 372.047 79.4699C372.967 77.098 373.879 74.6912 374.247 72.1793C375.132 66.1928 373.642 59.935 367.482 57.3093C364.012 55.8302 359.754 55.9352 356.985 53.3796C356.179 52.6357 355.557 51.6992 354.698 51.0252C353.673 50.22 352.332 49.8262 351.035 49.9487C349.791 50.0713 348.599 50.6402 347.346 50.5701C345.208 50.4651 343.649 48.6096 341.87 47.4018C338.681 45.2313 333.931 45.3101 331.233 48.0583C329.463 49.8612 328.762 52.5481 329.077 55.0513C329.515 58.4296 331.732 61.169 334.545 63.0945Z" fill="#263238"/>
<path d="M368.77 114.006L361.585 108.369L352.043 120.92L357.747 130.959L368.77 114.006Z" fill="#2B4A78"/>
<path d="M332.538 112.745L340.047 109.06L343.465 118.801L338.006 128.542L332.538 112.745Z" fill="#2B4A78"/>
<path d="M419.381 225.054C419.381 225.054 419.013 231.959 417.225 233.78C415.438 235.6 399.911 233.718 397.186 231.565C394.461 229.421 395.994 225.054 395.994 225.054H419.381Z" fill="#2B4A78"/>
<path d="M382.772 185.415C382.772 185.415 341.081 152.848 326.843 113.375C326.843 113.375 325.125 111.607 322.505 114.005C322.505 114.005 329.173 132.998 332.538 137.654C332.538 137.654 325.677 151.333 332.538 163.56C339.408 175.787 350.86 184.522 355.329 183.935C359.798 183.349 365.37 177.345 365.37 177.345C365.37 177.345 379.18 189.616 383.044 191.147C383.044 191.147 386.82 188.775 382.772 185.415Z" fill="#263238"/>
<path d="M337.419 143.938C340.985 149.461 344.647 154.887 348.468 160.261C352.332 165.705 356.801 169.39 361.515 173.967C361.927 174.361 361.515 175.166 360.945 174.956C355.416 172.917 351.281 167.911 347.863 163.307C345.594 160.261 343.43 157.128 341.23 154.038C339.127 151.089 336.586 148.218 335.78 144.63C335.552 143.632 336.858 143.072 337.419 143.938Z" fill="#1C262B"/>
<path d="M349.414 92.4492C348.126 93.4469 346.628 94.5585 344.919 94.5147C344.008 94.4884 343.079 94.1821 342.396 93.5607C341.774 93.0006 341.993 92.9393 341.353 92.6417L341.073 92.7993C340.959 94.5059 343.272 95.53 344.691 95.635C346.865 95.7838 348.783 94.611 349.809 92.7555C349.949 92.4842 349.625 92.2829 349.414 92.4492Z" fill="#E0855C"/>
<path d="M363.39 84.7215C363.39 84.7215 365.975 77.886 370.058 81.5094C374.132 85.1328 368.525 94.9265 362.286 94.1563C362.286 94.1563 361.401 87.0671 363.39 84.7215Z" fill="#F5A784"/>
<path d="M368.148 84.6244C367.245 84.7732 366.325 85.6309 365.668 86.2348C364.993 86.8737 364.187 87.6614 363.854 88.5541C363.74 88.8254 364.126 89.0005 364.319 88.8254C364.844 88.3353 365.274 87.7402 365.764 87.215C366.115 87.5914 366.474 87.9765 366.956 88.1603C367.333 88.2916 367.613 87.8277 367.447 87.5214C367.236 87.1275 366.842 86.8387 366.457 86.5761C367.105 86.0773 367.894 85.6834 368.428 85.1058C368.638 84.8782 368.428 84.5719 368.148 84.6244Z" fill="#E0855C"/>
<path d="M90.2439 455C79.5977 455 68.7763 454.282 58.9977 454.274C48.4567 454.265 37.8981 454.274 27.3484 454.125C26.8489 454.116 26.3582 454.107 25.8676 454.107C25.2892 454.107 24.7197 454.116 24.1502 454.116C23.5806 454.125 23.0198 454.125 22.459 454.125C17.7362 454.125 13.4427 453.862 9.64861 451.053C9.19298 450.72 9.19298 450.055 9.64861 449.723C13.355 446.983 17.7888 446.572 22.4941 446.572C23.5105 446.572 24.5445 446.589 25.5784 446.607C26.6211 446.624 27.6638 446.642 28.7153 446.642C28.9606 446.642 29.2147 446.642 29.4601 446.642C39.3089 446.545 49.1489 446.51 58.9977 446.502C68.7851 446.493 79.6065 445.767 90.2614 445.767C99.453 445.767 108.513 446.309 116.68 448.305C119.229 448.926 119.221 451.849 116.68 452.471C108.522 454.466 99.453 455 90.2439 455Z" fill="#DADADA"/>
<path d="M82.4196 448.357C82.5686 449.81 103.335 452.12 105.666 450.641L106.157 450.3C106.779 449.722 106.717 449.285 106.428 448.961C106.078 448.55 105.421 448.331 105.421 448.331C102.713 448.129 97.3505 446.125 94.7131 444.847C94.4502 444.716 94.2224 444.62 94.0209 444.489C89.1315 441.898 89.8938 435.456 89.8938 435.456C89.8413 435.167 89.9114 415.965 89.9902 396.737C90.0603 377.237 90.148 357.71 90.148 357.71C87.7559 344.661 71.8173 350.017 71.7209 357.579C71.6946 360.756 72.7812 378.191 75.5413 394.461C76.584 400.631 77.7406 408.027 78.7921 414.013C81.5259 429.732 81.6748 441.679 81.6748 441.679C81.7362 442.344 81.9114 444.007 81.9202 444.147C82.0516 445.373 82.2794 446.79 82.4196 448.357Z" fill="#F5A784"/>
<path d="M105.665 450.642C103.343 452.112 82.5592 449.819 82.419 448.358C82.2701 446.8 82.0335 445.391 81.9196 444.148L81.8845 443.815C84.5658 444.463 89.2185 445.277 94.7125 444.848C97.3324 446.126 102.712 448.139 105.42 448.331C105.42 448.331 107.987 449.163 105.665 450.642Z" fill="#263238"/>
<path d="M51.3922 448.356C51.2345 449.809 30.4767 452.12 28.146 450.641L27.6553 450.299C27.0244 449.722 27.0945 449.284 27.3749 448.96C27.7254 448.549 28.3913 448.33 28.3913 448.33C31.0901 448.129 36.4613 446.125 39.0988 444.847C39.3529 444.716 39.5895 444.619 39.791 444.488C44.6716 441.897 43.918 435.456 43.918 435.456C43.9618 435.167 43.9005 415.965 43.8216 396.736C43.7515 377.236 43.6639 357.71 43.6639 357.71C46.056 344.66 62.8533 351.636 62.9409 359.198C62.9759 362.384 61.6967 378.654 58.9365 394.933C57.8938 401.103 58.2881 406.95 57.2367 412.945C54.5028 428.655 52.1283 441.679 52.1283 441.679C52.0757 442.344 51.9004 444.007 51.8917 444.147C51.7603 445.372 51.5237 446.79 51.3922 448.356Z" fill="#F5A784"/>
<path d="M28.1458 450.642C30.4678 452.112 51.2431 449.819 51.3921 448.358C51.5323 446.8 51.7689 445.391 51.8916 444.148L51.9266 443.815C49.2453 444.463 44.5838 445.277 39.0986 444.848C36.47 446.126 31.0899 448.139 28.3912 448.331C28.3912 448.331 25.8151 449.163 28.1458 450.642Z" fill="#263238"/>
<path d="M92.864 436.113C89.0086 437.636 78.9758 437.12 78.9758 437.12L67.6287 337.546L55.6945 436.113C51.6814 438.398 39.5457 436.113 39.5457 436.113C39.5457 436.113 39.8173 427.151 41.3594 386.663C42.7965 350.158 45.8019 330.378 47.2827 322.554C47.7734 319.823 48.1151 318.545 48.1151 318.545H86.3799C90.6384 330.851 92.3032 359.103 92.864 384.825C93.4686 411.87 92.864 436.113 92.864 436.113Z" fill="#152E54"/>
<path d="M92.8638 384.825C90.5067 382.427 89.4728 379.04 88.7805 375.732C87.0281 367.277 86.9229 358.586 86.3359 349.983C86.0905 346.289 85.705 342.474 84.0051 339.183C80.4564 332.435 72.3601 329.634 64.9121 328.024C59.7074 326.886 52.128 325.967 47.2825 322.554C47.7732 319.823 48.1149 318.545 48.1149 318.545H86.3797C90.6381 330.851 92.303 359.103 92.8638 384.825Z" fill="#13294A"/>
<path d="M42.8405 349.509C45.2677 354.078 42.9544 361.071 38.1089 361.255C33.2634 361.43 34.0958 350.971 34.0958 350.971C33.7365 348.188 33.4912 345.457 33.2897 342.77C31.2481 314.334 37.1451 291.167 36.6544 290.808L48.1154 293.924C42.0344 307.945 41.9643 330.421 42.3936 342.026C42.5689 346.621 42.8405 349.509 42.8405 349.509Z" fill="#F5A784"/>
<path d="M42.3936 342.026C39.432 342.096 36.4966 342.367 33.535 342.744L33.2897 342.77C31.2481 314.334 37.1451 291.167 36.6544 290.808L48.1154 293.924C42.0344 307.945 41.9643 330.421 42.3936 342.026Z" fill="#C6C6C6"/>
<path d="M76.2592 377.656C77.0391 376.09 78.1606 374.75 79.3874 373.464C79.3173 374.006 79.2472 374.567 79.1946 375.109C78.0029 386.26 77.4509 397.681 80.1847 408.578C80.7105 410.652 81.4377 412.857 83.1376 414.179C83.602 414.564 84.1628 414.774 84.6009 415.177C85.1442 415.667 81.6305 416.691 81.2712 416.656C80.0445 416.568 78.6163 415.807 78.2307 414.573C77.1442 413.006 76.9339 410.206 76.5659 408.376C75.5582 403.23 74.9799 397.988 74.7959 392.727C74.6294 388.036 74.1037 381.997 76.2592 377.656ZM101.679 361.36C98.5329 360.966 95.1682 361.255 92.0576 361.85C91.9612 358.979 92.1803 356.231 95.0806 355.399C97.4989 354.708 100.574 355.469 101.337 358.148C101.573 358.996 101.714 360.187 101.679 361.36ZM73.7445 404.805C74.3753 408.831 74.831 417.417 79.8255 419.002C82.9536 420.017 85.1266 418.1 86.3183 415.553C86.6075 415.623 86.8791 415.684 87.1682 415.737C93.5559 417.032 100.233 416.857 106.55 415.229C107.707 414.923 108.899 414.564 109.95 413.987C110.853 413.496 111.668 412.857 112.263 412.009C114.524 408.796 112.684 404.438 112.246 400.534C112.079 399.073 112.211 397.497 113.28 396.596C113.928 396.036 114.813 395.843 115.575 395.406C115.812 395.257 116.031 395.117 116.206 394.933C118.195 393.165 118.038 389.769 117.512 387.021C116.68 382.575 115.628 378.164 114.358 373.831C113.455 370.698 112.369 367.504 110.09 365.193C109.494 364.598 108.864 364.073 108.171 363.618C106.813 362.734 105.315 362.121 103.72 361.718C103.904 360.528 103.887 359.268 103.764 358.323C103.378 355.216 101.03 353.194 98.0072 352.739C95.2208 352.327 92.1277 353.124 90.603 355.636C89.4114 357.605 89.2361 360.038 89.3413 362.48C88.8331 362.602 88.3511 362.734 87.8605 362.874C85.9766 363.416 84.0927 364.16 82.682 365.499C81.2888 366.821 80.4914 368.554 80.0095 370.392C76.2067 373.324 73.4728 376.938 72.8244 382.12C71.9044 389.568 72.6054 397.427 73.7445 404.805Z" fill="#2B4A78"/>
<path d="M86.7915 371.224C88.4213 376.589 89.4728 382.12 89.8671 387.704C90.1387 391.336 90.4804 395.607 93.591 397.498C95.4399 398.618 97.7706 398.531 99.9262 398.391C105.429 398.023 111.107 397.157 116.206 394.933C118.195 393.166 118.038 389.77 117.512 387.021C116.68 382.575 115.628 378.164 114.358 373.832C113.455 370.699 112.369 367.504 110.09 365.194C109.495 364.598 108.864 364.073 108.171 363.618C105.446 363.461 102.678 363.601 99.9437 363.749C96.1058 363.942 92.1628 364.178 88.6929 365.841C87.8255 366.261 86.958 366.821 86.5549 367.705C86.0467 368.808 86.4323 370.068 86.7915 371.224Z" fill="#315D9E"/>
<path d="M90.3576 409.935C90.7169 411.616 91.6544 413.226 93.1966 413.988C94.4759 414.635 96.0005 414.592 97.4463 414.522C101.118 414.382 109.459 414.014 109.95 413.988C110.853 413.498 111.667 412.859 112.263 412.01C114.524 408.798 112.693 404.439 112.246 400.536L111.939 400.518C105.674 402.006 100.268 402.995 93.7749 402.146C92.8724 402.024 91.8384 401.91 91.1287 402.505C90.4628 403.048 90.3576 404.01 90.2787 404.859C90.1385 406.557 89.9896 408.273 90.3576 409.935Z" fill="#315D9E"/>
<path d="M102.397 341.712C102.195 344.872 101.906 348.075 101.503 351.348C101.503 351.348 102.353 361.816 97.4814 361.632C92.6359 361.457 90.3314 354.464 92.7498 349.869C92.7498 349.869 93.0214 346.797 93.2229 341.94C93.626 330.22 93.4683 308.13 87.4836 294.284L98.9622 291.186C98.4715 291.501 104.149 313.95 102.397 341.712Z" fill="#F5A784"/>
<path d="M105.35 394.628C105.56 393.657 107.085 393.438 107.532 394.339C108.206 395.731 108.18 397.481 108.154 398.987C108.127 400.877 105.148 400.877 105.218 398.987C105.28 397.56 105.043 396.028 105.35 394.628Z" fill="#3B2645"/>
<path d="M102.397 341.712C99.4617 342.517 95.5362 343.13 93.2229 341.94C93.626 330.22 93.4683 308.13 87.4836 294.284L98.9622 291.186C98.4715 291.501 104.149 313.95 102.397 341.712Z" fill="#C6C6C6"/>
<path d="M86.7213 295.597L88.1846 319.972C88.1846 319.972 63.7817 324.689 47.0108 318.151L48.1148 293.925L34.0952 291.798C34.0952 291.798 35.3307 279.204 42.2704 272.298C45.2058 269.375 50.6646 267.555 56.8158 266.741C63.2823 265.865 77.74 265.76 85.7575 269.165C96.3598 273.681 99.6194 282.95 101.162 292.708L86.7213 295.597Z" fill="#315D9E"/>
<path d="M74.349 257.567V266.792C65.7269 272.131 59.7773 266.792 59.7773 266.792V260.175L74.349 257.567Z" fill="#F5A784"/>
<path d="M74.349 257.567V263.563C69.7137 265.278 64.5615 264.884 59.7773 264.105V260.175L74.349 257.567Z" fill="#E0855C"/>
<path d="M81.8321 253.542C80.0183 257.306 77.1881 260.71 73.543 261.664C72.2813 262.006 70.9669 262.032 69.6876 262.049C62.0908 262.207 53.9594 261.113 49.8586 252.807C47.6856 248.405 46.9058 243.005 47.6506 237.946C47.6856 237.701 47.7207 237.464 47.7645 237.219C48.115 235.031 48.7896 232.931 49.7184 230.997C53.5563 223.067 63.1247 220.529 71.186 222.542L71.3612 222.586C75.1202 223.557 78.5375 225.526 80.8683 228.406C82.4455 230.358 83.4794 232.703 84.0753 235.241C84.3381 236.362 84.5046 237.508 84.5922 238.69C85.0041 243.854 83.865 249.332 81.8321 253.542Z" fill="#F5A784"/>
<path d="M60.6359 237.307C59.1989 236.606 56.6053 236.598 55.694 238.34C55.5363 238.664 55.8079 239.102 56.1146 239.058C56.798 238.962 57.3763 238.524 58.0685 238.401C58.8046 238.27 59.5318 238.41 60.2504 238.611C60.9075 238.795 61.2668 237.613 60.6359 237.307Z" fill="#E0855C"/>
<path d="M76.557 237.307C75.12 236.606 72.5176 236.598 71.6151 238.34C71.4486 238.664 71.7203 239.102 72.0269 239.058C72.7104 238.962 73.2975 238.524 73.9809 238.401C74.7257 238.27 75.4442 238.41 76.1715 238.611C76.8287 238.795 77.1879 237.613 76.557 237.307Z" fill="#E0855C"/>
<path d="M58.4542 243.188C58.4455 242.96 58.4455 242.724 58.4367 242.496C58.3754 241.42 57.061 241.42 56.9997 242.496L56.8507 242.951C56.8245 243.249 56.842 243.415 56.9208 243.704L56.9471 244.01C56.9296 245.166 58.3929 245.131 58.4805 244.01C58.4981 243.73 58.4893 243.459 58.4542 243.188Z" fill="#263238"/>
<path d="M74.2526 242.374L74.2088 242.19C74.0423 241.63 73.4728 241.577 73.1836 242.032L73.0872 242.234C72.8857 242.4 72.7718 242.654 72.7893 242.969C72.7806 243.275 72.7981 243.582 72.7981 243.888C72.8156 245.087 74.3753 245.087 74.4103 243.888C74.4191 243.564 74.4279 243.249 74.4191 242.925C74.4103 242.68 74.3402 242.514 74.2526 242.374Z" fill="#263238"/>
<path d="M66.3665 248.466C65.8759 248.299 65.2012 248.457 64.7981 248.081C64.1322 247.468 64.8331 246.925 65.2274 246.505C65.7444 245.962 66.2702 245.192 65.7619 244.431L65.4027 244.483C65.0347 245.262 64.5265 245.639 64.027 246.269C63.6765 246.706 63.4487 247.31 63.5801 247.923C63.8781 249.306 65.464 249.673 66.4366 249.07C66.6557 248.929 66.5944 248.544 66.3665 248.466Z" fill="#E0855C"/>
<path d="M69.5915 251.249C68.3735 252.099 67.3571 252.571 65.8938 252.624C64.4568 252.677 63.2564 252.099 61.8719 251.871C61.6441 251.836 61.3812 252.169 61.6091 252.388C63.4754 254.165 68.7415 254.725 70.0121 251.74C70.1435 251.433 69.8719 251.048 69.5915 251.249Z" fill="#E0855C"/>
<path d="M80.649 231.968C80.4738 231.661 80.2986 231.364 80.1233 231.066C79.0543 229.333 77.6962 227.758 75.6283 227.417C73.5954 227.093 71.659 227.644 69.6699 227.994C66.8047 228.511 63.8606 229.001 60.9602 228.484C59.5232 228.222 58.0862 227.723 56.6317 227.915C54.3272 228.231 52.6273 230.226 51.4532 232.248C51.0852 232.878 50.7697 233.438 50.3579 234.042C49.3503 235.504 48.9297 237.28 48.3514 238.961C48.2725 239.188 48.1849 239.425 48.0184 239.617C47.6679 240.002 47.0808 240.046 46.5639 240.064C44.4521 240.116 45.3897 237.718 45.5036 236.449C45.6 235.381 45.749 234.322 45.9855 233.281C46.4324 231.329 47.1246 229.438 48.071 227.679C49.4028 225.176 51.2692 222.892 53.7314 221.474C56.141 220.082 58.9537 219.592 61.7138 219.216C65.0347 218.769 68.452 218.446 71.7291 219.19C75.97 220.161 79.6326 222.857 82.6907 225.955C83.5055 226.769 84.2941 227.635 84.8111 228.677C85.4595 229.972 85.626 231.451 85.7574 232.887C85.8626 234.138 87.0455 239.451 85.0828 239.792C84.4431 239.897 83.8122 239.495 83.4442 238.952C83.085 238.418 82.936 237.77 82.7608 237.149C82.2701 235.346 81.5516 233.604 80.649 231.968Z" fill="#263238"/>
<path d="M83.1116 239.058C83.1116 239.058 90.4456 236.607 89.9637 245.526C89.4818 254.453 81.5256 250.269 81.5256 250.269L83.1116 239.058Z" fill="#F5A784"/>
<path d="M87.3787 243.285C86.704 243.337 85.9592 243.976 85.4335 244.431C84.8814 244.912 84.233 245.516 83.9088 246.234C83.8037 246.462 84.0753 246.637 84.233 246.505C84.6536 246.138 85.0129 245.683 85.4247 245.271C85.6525 245.621 85.8803 245.989 86.2221 246.182C86.4937 246.339 86.7303 245.963 86.6339 245.683C86.5112 245.333 86.2483 245.053 85.9855 244.79C86.5024 244.431 87.107 244.169 87.5452 243.722C87.7204 243.547 87.589 243.267 87.3787 243.285Z" fill="#E0855C"/>
<path d="M49.2103 238.839C49.2103 238.839 42.4546 236.607 42.9365 245.525C43.4184 254.453 51.3833 250.269 51.3833 250.269L49.2103 238.839Z" fill="#F5A784"/>
<path d="M48.2026 244.396C47.7382 243.836 46.7131 242.663 45.9683 242.917L45.7142 243.302C45.6879 243.617 45.8982 243.775 46.0559 243.714L46.9672 244.414L47.379 244.869C46.8883 245 46.4064 245.394 46.1873 245.814C45.9946 246.182 46.3713 246.576 46.678 246.383C46.9584 246.208 47.1862 245.998 47.5104 245.902L48.0537 245.744C48.3691 246.322 48.5969 247.013 49.0438 247.39L49.4732 247.188C49.6397 246.217 48.7547 245.061 48.2026 244.396Z" fill="#E0855C"/>
<path d="M49.508 270.618C49.473 270.329 48.9911 270.198 48.9385 270.548C48.5267 273.568 48.5617 276.631 48.5091 279.677C48.4653 282.714 48.1762 285.812 48.6756 288.814C48.7194 289.085 49.1663 289.077 49.2189 288.814C49.7621 286.057 49.5957 283.178 49.6395 280.377C49.6921 277.13 49.8498 273.857 49.508 270.618Z" fill="#2B4A78"/>
<path d="M86.2657 283.019C85.7488 279.264 85.556 275.536 85.2493 271.764C85.2055 271.221 84.3118 271.002 84.2154 271.632C83.3391 277.496 84.2679 285.295 86.2395 290.905C86.3797 291.299 86.9404 291.237 86.958 290.809C87.0982 288.183 86.6162 285.61 86.2657 283.019Z" fill="#2B4A78"/>
<path d="M72.4568 304.454C71.2126 303.702 69.6003 303.544 68.0231 303.518C68.9869 297.12 68.7942 290.241 68.8643 283.79C68.8818 282.451 66.9629 281.9 66.3145 283.099C64.2378 286.915 62.1261 290.696 60.1721 294.582C59.6289 295.641 61.1097 296.516 61.7756 295.518C63.1425 293.435 64.4656 291.326 65.7712 289.208C65.4558 293.995 65.1929 298.879 65.5959 303.535H65.3681C63.677 303.518 61.1535 303.133 60.1546 304.761V305.224C61.2499 306.677 63.2652 306.248 64.93 306.301C67.2257 306.38 70.0297 307.124 72.2027 306.406C73.0702 306.117 73.2717 304.944 72.4568 304.454Z" fill="#2B4A78"/>
<path d="M655.436 58.3334C654.7 56.4254 654.104 54.8937 653.973 52.8107C654.709 52.128 654.586 50.754 653.701 50.2988C653.701 47.2531 654.069 44.1986 653.894 41.1528C653.684 37.5906 652.72 34.3173 653.254 30.6939C653.377 29.8362 652.203 29.6524 651.958 30.4489C650.976 33.6697 651.852 36.6804 652.194 39.9362C652.553 43.4284 651.791 46.938 652.273 50.4039C651.449 50.964 651.546 52.3556 652.396 52.837C651.309 53.7735 650.731 55.2001 650.74 56.6529C650.74 57.6069 651.038 58.5084 651.379 59.4011C652.124 61.3441 652.659 62.972 652.422 65.1338C652.361 65.694 652.992 66.2453 653.508 65.834C655.059 64.6174 655.76 62.902 655.874 60.9503C655.927 59.9788 655.778 59.2086 655.436 58.3334Z" fill="#152E54"/>
<path d="M796.044 177.721C796.044 177.721 800.215 172.417 796.044 147.631L780.605 155.447C780.605 155.447 788 178.447 796.044 177.721Z" fill="#263238"/>
<path d="M601.049 250.593C601.049 250.593 617.855 255.941 635.992 222.761L624.514 224.476C624.514 224.476 604.483 238.086 601.049 250.593Z" fill="#263238"/>
<path d="M650.74 30.8778L680.645 0L724.334 7.47438L692.43 22.5632C692.43 22.5632 666.012 28.1296 650.74 30.8778Z" fill="#2B4A78"/>
<path d="M670.507 41.5901L664.365 28.0505C664.365 28.0505 682.985 10.0647 712.575 12.9617L714.905 29.1357C714.905 29.1357 691.545 29.9759 670.507 41.5901Z" fill="#152E54"/>
<path d="M734.559 454.947C718.156 454.947 701.482 454.229 686.419 454.221C670.165 454.212 653.903 454.221 637.649 454.063C636.904 454.063 636.159 454.054 635.414 454.054C634.512 454.054 633.618 454.063 632.733 454.063C631.848 454.072 630.972 454.072 630.104 454.072C622.823 454.072 616.216 453.8 610.372 451C609.679 450.667 609.679 450.002 610.372 449.669C616.093 446.93 622.928 446.519 630.183 446.519C631.752 446.519 633.338 446.536 634.932 446.554C636.536 446.571 638.139 446.589 639.76 446.589C640.146 446.589 640.523 446.589 640.908 446.589C656.076 446.492 671.243 446.457 686.419 446.449C701.499 446.44 718.165 445.722 734.577 445.722C748.737 445.722 762.712 446.256 775.286 448.252C779.22 448.873 779.212 451.796 775.286 452.418C762.721 454.413 748.745 454.947 734.559 454.947Z" fill="#DADADA"/>
<path d="M640.409 429.969L641.828 400.282L660.869 402.487L656.093 436.376C656.093 436.376 640.085 436.743 640.409 429.969Z" fill="#F5A784"/>
<path d="M658.248 441.241C657.985 443.132 656.47 444.628 654.752 445.469C653.035 446.274 651.107 446.519 649.223 446.773C641.696 447.788 634.774 450.23 627.02 450.326C623.471 450.37 619.449 450.326 616.19 448.733C611.668 446.519 611.475 441.128 616.452 439.097C618.424 438.292 620.588 438.213 622.7 437.933C627.256 437.329 631.681 435.727 635.572 433.268C636.632 432.594 637.71 431.842 638.954 431.623C640.461 431.36 641.968 431.929 643.466 432.253C646.121 432.831 650.012 432.883 652.719 432.515C655.173 432.192 657.328 427.177 657.915 431.264C658.205 433.312 657.556 435.412 657.88 437.539C657.933 437.828 657.985 438.091 658.029 438.379C658.205 439.272 658.371 440.139 658.266 441.005L658.248 441.241Z" fill="#263238"/>
<path d="M741.21 429.969L739.799 400.282L720.75 402.487L725.525 436.376C725.525 436.376 741.534 436.743 741.21 429.969Z" fill="#F5A784"/>
<path d="M632.97 411.887C645.184 418.434 650.372 419.116 665.53 413.594C678.998 290.275 691.072 224.047 691.072 224.047C693.482 240.86 701.526 284.149 713.53 412.867C722.984 418.32 740.526 415.467 747.79 412.981C745.565 380.362 741.639 320.111 741.219 308.287C738.967 246.007 734.454 212.232 731.58 196.25C730.021 187.682 728.943 184.216 728.943 184.216C716.737 156.209 698.45 158.117 692.378 178.755C687.76 163.001 675.992 158.161 665.25 169.241C661.92 172.681 658.704 177.591 655.83 184.216C655.83 184.216 653.097 191.55 649.863 205.904C648.926 210.026 647.787 221.317 646.604 235.451C644.606 259.485 635.248 379.758 632.97 411.887Z" fill="#152E54"/>
<path d="M723.37 441.242C723.642 443.132 725.149 444.629 726.875 445.469C728.584 446.275 730.52 446.52 732.404 446.773C739.922 447.789 746.844 450.231 754.599 450.327C759.234 450.371 768.715 450.152 769.179 443.754C769.179 443.754 769.188 443.64 769.179 443.43C769.153 442.826 769.004 441.54 768.189 440.148C766.331 436.918 762.546 435.886 759.094 435.439C756.062 435.054 753.048 434.354 750.13 433.426C747.607 432.612 744.925 430.713 742.41 430.258C740.062 429.829 736.61 432.052 734.174 432.437C731.843 432.796 728.365 432.647 726.376 431.177C725.009 430.17 724.167 428.026 723.712 431.265C723.423 433.313 724.071 435.413 723.738 437.54C723.694 437.829 723.633 438.091 723.589 438.38C723.423 439.273 723.247 440.139 723.361 441.006L723.37 441.242Z" fill="#263238"/>
<path d="M672.961 48.1281C671.857 46.9291 671.287 45.3799 671.042 43.8921C670.49 40.575 667.879 34.8335 670.761 32.0241C671.751 31.0613 673.215 30.6937 674.161 29.696C675.318 28.4619 675.519 26.4752 676.886 25.4862C678.989 23.9808 682.433 25.81 684.317 24.0333C684.842 23.5519 685.131 22.8605 685.622 22.3529C686.674 21.2589 688.391 21.1713 689.889 21.3989C691.388 21.6265 692.895 22.0903 694.384 21.8365C695.637 21.6177 696.794 20.9 698.065 20.8825C700.658 20.8475 702.989 23.6745 705.416 22.7642C706.126 22.5017 706.695 21.9415 707.414 21.714C709.026 21.2064 710.621 22.5104 711.69 23.8233C714.967 27.823 716.351 31.6827 715.808 36.829C715.607 38.737 715.642 40.61 715.168 42.5005C711.269 58.0881 710.174 53.6508 710.174 53.6508C706.248 53.2919 702.332 52.8893 698.415 52.4605C693.149 51.8916 687.892 51.2877 682.66 50.5175C680.558 50.2111 678.49 49.7823 676.404 49.4585C675.02 49.2484 673.995 49.1959 672.961 48.1281Z" fill="#263238"/>
<path d="M711.147 46.8937C711.147 46.8937 714.625 42.9814 717.85 47.1037C721.083 51.226 715.142 58.7441 710.779 58.9454C710.779 58.9454 710.586 48.6091 711.147 46.8937Z" fill="#E0855C"/>
<path d="M647.253 91.6087C648.944 96.0111 654.49 110.942 657.443 125.191C657.75 126.661 658.004 128.07 658.258 129.488C658.486 130.757 658.661 131.913 658.81 133.05C658.889 133.733 658.985 134.643 659.117 135.729C660.3 147.281 662.578 179.577 662.981 185.082C663.007 185.59 663.034 185.861 663.034 185.861C693.114 195.138 724.843 187.76 724.843 187.76C724.843 187.76 724.886 187.174 725.07 186.062C725.754 180.706 732.282 123.598 732.51 121.305C733.85 107.73 734.832 95.2234 734.91 87.4427C734.937 86.3049 733.903 85.6485 732.378 85.2196L732.255 85.1934C729.925 84.537 726.481 84.3794 723.774 83.9243C718.139 82.9441 712.041 82.4889 708.518 82.3314C708.045 82.3051 707.642 82.2876 707.257 82.2614C706.985 82.2089 706.722 82.2176 706.503 82.2089C705.89 82.2001 705.566 82.1826 705.566 82.1826L704.602 66.735C704.102 66.84 703.585 66.9188 703.086 66.945C702.069 67.0938 701.088 67.1638 700.124 67.1726C698.836 67.1813 697.653 67.1201 696.532 66.9975C695.953 66.9275 695.393 66.875 694.858 66.77C694.078 66.6387 693.316 66.5162 692.589 66.3411C691.371 66.0348 690.179 65.6847 689.093 65.2559C688.742 65.1508 688.409 65.0546 688.085 64.8708L687.804 64.7745C687.55 64.6695 687.27 64.5469 687.016 64.4419C685.404 63.733 684.037 62.954 682.924 62.2451C682.214 61.79 681.583 61.3611 681.101 61.011L680.768 60.7572C680.488 60.5559 680.269 60.3984 680.085 60.2233C679.857 60.0483 679.708 59.917 679.656 59.8733L679.682 60.022L679.708 60.1971C679.734 60.4246 679.787 60.6522 679.805 60.906C680.111 63.4354 680.313 66.7175 680.365 69.9558C680.444 72.1789 680.444 74.3757 680.462 76.3011C680.462 79.6095 680.392 82.0076 680.392 82.0076C679.787 81.9813 679.2 81.9813 678.622 82.0338L678.219 82.0601L677.964 82.0338C674.652 82.0863 671.463 82.3839 668.554 82.839C660.23 84.1606 654.56 85.666 651.248 87.0138L651.143 87.0663C650.39 87.3639 649.759 87.679 649.251 87.9678C648.523 88.3879 646.972 90.856 647.253 91.6087Z" fill="#F5A784"/>
<path d="M679.637 59.8289C682.993 77.6397 700.851 76.9745 705.109 74.7602L704.601 66.7344C689.828 69.2813 679.637 59.8289 679.637 59.8289Z" fill="#E0855C"/>
<path d="M710.734 35.2531C712.89 37.6337 712.916 42.8325 712.925 48.5827C712.96 65.9821 707.58 71.2509 698.66 71.9336C689.74 72.6163 680.548 68.9141 679.129 52.74C678.419 44.653 677.631 37.1786 680.671 33.7828C685.21 28.724 704.119 27.945 710.734 35.2531Z" fill="#F5A784"/>
<path d="M680.443 50.4553C680.443 50.4553 677.937 43.1735 673.53 46.8494C669.123 50.5428 674.722 61.5881 681.302 60.993C681.302 60.993 682.45 52.976 680.443 50.4553Z" fill="#F5A784"/>
<path d="M675.432 50.1939C676.378 50.3865 677.324 51.3142 677.99 51.9706C678.682 52.6621 679.506 53.5285 679.83 54.465C679.935 54.7626 679.524 54.9289 679.331 54.7363C678.788 54.2025 678.367 53.5723 677.859 52.9947C677.482 53.3797 677.096 53.7736 676.571 53.9486C676.168 54.0887 675.896 53.5811 676.08 53.266C676.317 52.8546 676.737 52.5658 677.149 52.3032C676.483 51.7606 675.668 51.323 675.125 50.6841C674.915 50.4478 675.142 50.1327 675.432 50.1939Z" fill="#E0855C"/>
<path d="M705.302 47.9357C705.302 47.9357 706.792 48.5396 706.643 45.8702C706.512 43.4721 705.434 43.7609 705.434 43.7609C705.434 43.7609 704.382 43.7259 704.479 45.8177C704.575 47.9182 705.302 47.9357 705.302 47.9357Z" fill="#263238"/>
<path d="M690.056 47.4713C690.056 47.4713 691.545 48.0665 691.396 45.4058C691.265 43.0077 690.187 43.2965 690.187 43.2965C690.187 43.2965 689.136 43.2615 689.232 45.3533C689.328 47.4538 690.056 47.4713 690.056 47.4713Z" fill="#263238"/>
<path d="M698.249 54.8063C699.02 54.7187 700.746 55.2264 701.131 54.4212C701.456 53.7385 700.352 49.66 700.203 48.9685C699.651 46.4479 699.046 44.7412 698.669 41.7305L698.932 41.6692C700.579 45.6952 701.088 50.6402 702.025 54.9025C702.069 55.1301 701.894 55.3752 701.648 55.3577C700.527 55.3139 699.431 55.5152 698.319 55.4889C697.951 55.4802 697.854 54.8588 698.249 54.8063Z" fill="#E0855C"/>
<path d="M616.444 248.185C616.672 250.811 625.058 252.832 629.921 245.55C629.947 245.498 634.678 194.805 637.027 186.062C637.404 184.6 640.444 177.45 644.238 168.759C648.216 159.665 660.229 133.4 660.632 132.568C663.191 127.44 665.872 122.258 667.186 116.674C668.86 109.55 667.388 101.638 664.172 95.1439C662.525 91.8093 659.695 89.1049 656.304 87.5908C655.121 87.0656 653.806 86.6805 652.483 86.7856C652.054 86.8031 651.651 86.8818 651.248 87.0131L651.143 87.0656C650.486 87.2407 649.855 87.5645 649.25 87.9671C648.286 88.5798 647.401 89.385 646.595 90.1902C639.428 97.367 634.906 106.469 631.612 116.193C627.669 127.79 625.443 140.305 622.508 151.499C618.74 165.722 615.603 178.281 614.788 183.489C611.879 202.183 615.41 236.912 616.444 248.185Z" fill="#F5A784"/>
<path d="M616.383 245.507C616.383 245.507 616.567 249.305 616.286 254.049C615.997 258.784 615.296 269.19 616.829 272.324C616.829 272.324 617.259 272.84 618.056 273.453L618.433 273.715C619.186 274.214 620.185 274.748 621.456 275.019L621.754 275.089C622.656 275.265 623.69 275.317 624.821 275.133L625.101 275.081C625.968 274.923 626.897 274.661 627.887 274.241C627.887 274.241 628.361 263.633 629.78 260.342C629.78 260.342 631.164 266.749 633.127 267.335L634.485 266.976C634.485 266.976 633.793 259.913 633.767 256.745C633.714 249.025 627.642 243.608 627.642 243.608C627.642 243.608 619.379 240.816 616.383 245.507Z" fill="#F5A784"/>
<path d="M624.82 275.134L625.101 275.082C624.926 270.32 625.539 265.664 626.012 260.877L625.837 260.833C624.339 265.463 624.304 270.329 624.82 275.134Z" fill="#E0855C"/>
<path d="M621.456 275.02L621.754 275.09C621.579 270.32 622.192 265.672 622.648 260.876L622.49 260.841C620.992 265.436 620.948 270.259 621.456 275.02Z" fill="#E0855C"/>
<path d="M618.057 273.453L618.433 273.716C618.328 269.217 618.906 264.806 619.336 260.281L619.178 260.237C617.671 264.482 617.653 269.016 618.057 273.453Z" fill="#E0855C"/>
<path d="M693.815 58.6914C695.129 59.173 696.321 59.9434 697.697 60.2236C699.537 60.6176 701 60.1185 702.77 59.7596C703.006 59.707 703.269 60.031 703.042 60.2148C700.36 62.3862 695.786 61.5282 693.561 59.1379C693.386 58.9541 693.552 58.5951 693.815 58.6914Z" fill="#E0855C"/>
<path d="M703.357 38.7099C704.662 38.3072 707.212 38.2371 707.948 39.6818C708.045 39.8744 707.931 40.1721 707.677 40.1546C707.055 40.102 706.538 39.7343 705.924 39.6117C705.162 39.4454 704.391 39.4979 703.637 39.7255C703.392 39.7956 703.19 39.6642 703.05 39.4804L702.98 39.2177C702.963 38.9813 703.155 38.78 703.357 38.7099Z" fill="#263238"/>
<path d="M686.639 39.7349C687.646 37.8174 690.853 38.5616 692.343 39.3496C692.597 39.481 692.492 39.91 692.203 39.8925C691.265 39.8224 690.363 39.516 689.425 39.481C688.759 39.4547 688.303 39.5948 687.725 39.91C687.348 40.1114 687.305 40.1464 686.884 40.1551C686.656 40.1639 686.542 39.9187 686.639 39.7349Z" fill="#263238"/>
<path d="M817.888 132.604C817.888 132.604 815.619 123.344 806.918 124.114C809.853 124.35 781.919 141.347 765.578 150.371C763.396 142.056 749.911 109.848 746.747 101.901C746.134 100.343 745.512 98.7763 744.785 97.2709C744.496 96.667 744.189 96.0631 743.856 95.4767C740.649 89.8053 736.093 85.7618 729.512 84.729C723.966 83.8538 718.428 85.8581 716.193 91.3107C714.222 96.1244 714.52 101.297 715.668 106.259C716.71 110.758 717.227 114.977 718.857 119.414C722.967 130.591 746.721 165.836 749.227 168.409C754.344 173.678 762.555 175.437 769.459 172.759C772.184 171.691 790.559 157.81 796.85 152.121C800.574 148.76 804.193 145.277 807.864 141.855C809.643 140.192 811.422 138.511 813.174 136.813C815.093 134.993 817.888 132.604 817.888 132.604Z" fill="#F5A784"/>
<path d="M789.174 105.709L817.327 157.767C817.327 157.767 823.89 160.393 828 152.708L799.934 99.6613C799.934 99.6613 791.864 96.9919 789.174 105.709Z" fill="#DADADA"/>
<path d="M806.76 130.232C807.672 129.961 808.53 129.576 809.284 129.077C811.615 127.502 814.27 123.668 812.982 120.763C812.71 120.132 811.886 120.194 811.588 120.763C811.054 121.795 811.001 122.959 810.484 124.018C809.871 125.288 809.012 126.399 807.838 127.204C805.639 128.71 803.063 128.508 800.53 128.526C800.162 128.526 800.119 129.033 800.346 129.235C801.179 129.97 802.178 130.364 803.238 130.521C800.574 133.226 803.422 137.672 801.214 140.831C800.197 142.276 798.489 143.098 797.507 144.612C796.517 146.144 796.246 147.833 796.044 149.601C795.992 150.056 796.631 150.223 796.824 149.802C797.832 147.588 798.813 145.566 800.583 143.825C801.503 142.914 802.616 142.311 803.29 141.164C804.85 138.538 803.606 135.571 804.193 132.797C804.316 136.438 807.645 138.477 806.261 142.897C804.614 148.096 797.972 156.06 804.622 160.69C804.973 160.935 805.446 160.594 805.288 160.183C803.764 156.288 803.264 153.338 805.078 149.312C806.129 146.967 807.777 144.866 808.381 142.337C809.223 138.801 804.763 133.191 806.76 130.232Z" fill="#152E54"/>
<path d="M807.768 123.196C807.119 126.627 807.654 130.268 809.249 133.375C810.072 134.959 811.29 136.499 813.008 136.963C815.023 137.497 817.24 136.316 818.282 134.513C819.325 132.718 819.343 130.46 818.747 128.465C818.037 126.093 816.171 122.128 813.805 120.964C811.404 119.774 808.302 120.378 807.768 123.196Z" fill="#F5A784"/>
<path d="M796.044 177.722C796.044 177.722 793.555 177.818 789.735 177.862C788.596 177.862 787.317 177.888 785.967 177.888C783.821 177.888 781.464 177.835 778.993 177.774C777.783 177.748 776.548 177.704 775.312 177.634C768.837 177.372 762.108 176.768 757.21 175.595C754.388 174.93 751.943 173.223 750.173 170.939C745.547 164.908 735.453 151.447 731.641 144.008L731.037 151.062C730.003 163.053 730.923 175.148 734.068 186.754C741.779 215.076 746.379 276.333 751.4 336.872C751.4 336.872 689.407 355.199 634.494 342.315C634.494 342.315 636.869 231.101 653.894 185.012C657.819 174.343 659.388 162.965 658.625 151.623L657.732 138.678L640.768 183.577L635.992 222.76C635.992 222.76 608.225 242.077 601.049 250.592C601.049 250.592 601.653 242.479 603.09 229.867C603.292 228.301 605.333 212.389 605.509 210.997C611.572 167.98 624.575 103.337 649.25 87.9678C649.25 87.9678 659.186 82.0075 678.481 80.0383C678.481 80.0383 692.702 97.7615 695.707 107.196L707.256 82.2614C707.256 82.2614 735.637 80.1958 743.374 90.4097C743.374 90.4097 760.714 123.195 766.322 147.255L787.273 137.759C787.273 137.759 785.407 162.125 796.044 177.722Z" fill="#315D9E"/>
<path d="M683.572 88.6426L681.355 92.2222C681.355 92.2222 683.388 169.469 676.334 205.318L684.957 218.376L693.579 202.264C693.579 202.264 692.808 73.7026 683.572 88.6426Z" fill="#2B4A78"/>
<path d="M674.153 80.5629L680.435 73.1673L687.629 90.7767C687.629 90.7767 682.678 94.1901 679.848 100.623L674.153 80.5629Z" fill="#263238"/>
<path d="M702.034 88.5799C702.034 88.5799 699.151 148.121 703.129 177.721L712.925 189.642L718.778 173.993C718.778 173.993 702.218 111.519 708.29 86.7682L702.034 88.5799Z" fill="#2B4A78"/>
<path d="M702.034 88.5805L705.477 76.5987L712.925 82.6115L707.983 97.3414C707.983 97.3414 705.346 90.8648 702.034 88.5805Z" fill="#263238"/>
<path d="M638.306 203.856L637.859 207.576C630.525 211.068 623.655 214.972 616.812 219.47C613.044 221.938 609.189 224.38 605.754 227.295C604.816 228.1 603.94 228.975 603.09 229.868C603.292 228.301 603.467 226.638 603.695 224.94C606.411 222.586 609.46 220.634 611.966 218.91C620.176 213.221 628.79 207.165 638.306 203.856Z" fill="#263238"/>
<path d="M639.051 197.712L638.709 200.583C631.708 202.062 624.865 204.189 618.363 207.235C613.605 209.475 609.347 212.39 604.948 215.103C605.132 213.755 605.334 212.39 605.509 210.998C615.13 203.961 628.08 199.821 639.051 197.712Z" fill="#263238"/>
<path d="M778.993 177.774C777.784 177.748 776.548 177.704 775.313 177.634C771.229 167.578 769.749 155.298 771.37 144.971L774.349 143.606C773.946 150.572 773.657 157.381 774.936 164.506C775.786 169.171 777.31 173.494 778.993 177.774Z" fill="#263238"/>
<path d="M789.735 177.861C788.596 177.861 787.317 177.887 785.968 177.887C779.869 167.262 776.837 152.856 779.282 141.364L782.244 140.043C781.911 147.228 781.35 154.09 783.032 161.442C784.399 167.463 786.87 172.706 789.735 177.861Z" fill="#263238"/>
<path d="M551.98 454.947C535.568 454.947 518.894 454.229 503.831 454.221C487.586 454.212 471.315 454.221 455.069 454.063C454.316 454.063 453.571 454.054 452.835 454.054C451.933 454.054 451.039 454.063 450.154 454.063C449.26 454.072 448.384 454.072 447.516 454.072C440.244 454.072 433.637 453.8 427.792 451C427.1 450.667 427.091 450.002 427.792 449.669C433.505 446.93 440.34 446.519 447.595 446.519C449.164 446.519 450.75 446.536 452.344 446.554C453.948 446.571 455.56 446.589 457.172 446.589C457.558 446.589 457.935 446.589 458.32 446.589C473.488 446.492 488.664 446.457 503.831 446.449C518.911 446.44 535.577 445.722 551.998 445.722C566.157 445.722 580.124 446.256 592.707 448.252C596.632 448.873 596.624 451.796 592.707 452.418C580.142 454.413 566.157 454.947 551.98 454.947Z" fill="#DADADA"/>
<path d="M564.238 429.969L562.819 400.282L543.779 402.487L548.554 436.376C548.554 436.376 564.563 436.743 564.238 429.969Z" fill="#F5A784"/>
<path d="M546.398 441.242C546.67 443.133 548.186 444.629 549.894 445.469C551.612 446.275 553.539 446.52 555.423 446.774C562.95 447.789 569.872 450.231 577.627 450.327C582.253 450.371 591.743 450.152 592.207 443.754C592.207 443.754 592.216 443.64 592.207 443.43C592.181 442.826 592.032 441.54 591.208 440.148C589.999 438.048 587.265 435.755 581.246 435.369C579.949 435.291 578.775 435.072 577.741 434.783C577.18 434.625 576.654 434.468 576.164 434.258L575.734 434.039C574.876 433.654 574.157 433.181 573.517 432.7L573.307 432.542C572.632 431.991 572.054 431.431 571.563 430.801L571.423 430.661C570.889 430.022 570.442 429.427 570.004 428.849C568.602 426.862 567.559 425.252 565.544 425.226C560.795 425.208 554.477 427.948 555.502 432.604C555.502 432.604 549.772 433.365 548.466 430.153C547.607 428.114 546.906 430.066 546.74 431.265C546.442 433.313 547.09 435.413 546.766 437.54C546.714 437.829 546.661 438.091 546.617 438.38C546.442 439.273 546.276 440.139 546.389 441.006L546.398 441.242Z" fill="#263238"/>
<path d="M546.399 441.242C546.67 443.132 548.186 444.629 549.895 445.469C551.612 446.274 553.54 446.519 555.424 446.773C562.951 447.788 569.873 450.23 577.627 450.326C582.254 450.37 591.743 450.151 592.208 443.753C592.208 443.753 592.217 443.64 592.208 443.43C592.181 442.826 592.033 441.539 591.209 440.148L591.112 440.419C589.307 451.972 568.366 447.587 560.909 445.933C555.897 444.777 551.165 442.773 546.39 441.005L546.399 441.242Z" fill="#2B4A78"/>
<path d="M569.61 440.488C571.599 439.692 573.255 437.968 575.007 436.742C575.927 436.086 576.865 435.473 577.741 434.782C577.18 434.633 576.655 434.467 576.164 434.257L575.735 434.038C575.2 434.353 574.683 434.686 574.157 435.027C572.309 436.244 569.951 437.495 568.663 439.298C568.182 439.955 568.891 440.786 569.61 440.488Z" fill="#2B4A78"/>
<path d="M565.237 438.169C567.463 437.714 569.163 435.719 570.95 434.424C571.704 433.863 572.65 433.321 573.518 432.699L573.307 432.542C572.633 431.99 572.054 431.43 571.564 430.8C570.889 431.229 570.232 431.728 569.636 432.122C567.734 433.4 565.123 434.704 564.221 436.9C563.967 437.522 564.536 438.301 565.237 438.169Z" fill="#2B4A78"/>
<path d="M463.438 429.969L464.857 400.282L483.898 402.487L479.122 436.376C479.122 436.376 463.114 436.743 463.438 429.969Z" fill="#F5A784"/>
<path d="M571.686 411.887C559.454 418.433 554.276 419.107 539.117 413.593C525.658 290.275 513.584 224.038 513.584 224.038C511.165 240.869 503.113 284.157 491.109 412.849C481.663 418.319 464.121 415.475 456.857 412.989C459.074 380.361 462.999 320.111 463.429 308.287C465.672 245.997 470.202 212.231 473.076 196.259C473.234 195.313 473.409 194.438 473.567 193.633C474.846 186.964 475.696 184.224 475.696 184.224C476.984 181.31 478.298 178.71 479.691 176.426C490.478 158.642 504.007 159.823 510.491 173.984C511.165 175.446 511.753 177.03 512.261 178.754C512.778 177.03 513.365 175.446 514.031 173.984C519.437 162.134 529.829 159.377 539.38 169.232C540.685 170.58 541.982 172.172 543.244 173.984C545.189 176.811 547.082 180.19 548.826 184.224C548.826 184.224 550.377 188.373 552.479 196.521C553.224 199.217 553.987 202.35 554.793 205.912C555.739 210.035 556.861 221.307 558.044 235.468C560.041 259.484 569.399 379.757 571.686 411.887Z" fill="#152E54"/>
<path d="M481.277 441.242C481.006 443.133 479.499 444.629 477.772 445.469C476.064 446.275 474.127 446.52 472.243 446.774C464.725 447.789 457.803 450.231 450.049 450.327C445.413 450.371 435.933 450.152 435.468 443.754C435.468 443.754 435.459 443.64 435.468 443.43C435.495 442.826 435.643 441.54 436.458 440.148C437.676 438.048 440.41 435.755 446.43 435.369C447.727 435.291 448.901 435.072 449.935 434.783C450.496 434.625 451.021 434.468 451.512 434.258L451.941 434.039C452.791 433.654 453.527 433.181 454.158 432.7L454.368 432.542C455.034 431.991 455.613 431.431 456.112 430.801L456.244 430.661C456.796 430.022 457.234 429.427 457.672 428.849C459.074 426.862 460.116 425.252 462.132 425.226C466.881 425.208 473.19 427.948 472.173 432.604C472.173 432.604 477.904 433.365 479.218 430.153C480.068 428.114 480.769 430.066 480.936 431.265C481.234 433.313 480.585 435.413 480.909 437.54C480.962 437.829 481.014 438.091 481.067 438.38C481.225 439.273 481.4 440.139 481.286 441.006L481.277 441.242Z" fill="#263238"/>
<path d="M481.277 441.242C481.006 443.132 479.499 444.629 477.772 445.469C476.064 446.274 474.127 446.519 472.243 446.773C464.725 447.788 457.803 450.23 450.049 450.326C445.413 450.37 435.933 450.151 435.468 443.753C435.468 443.753 435.459 443.64 435.468 443.43C435.495 442.826 435.643 441.539 436.458 440.148L436.564 440.419C438.369 451.972 459.31 447.587 466.767 445.933C471.779 444.777 476.511 442.773 481.286 441.005L481.277 441.242Z" fill="#2B4A78"/>
<path d="M458.057 440.488C456.077 439.692 454.43 437.968 452.677 436.742C451.749 436.086 450.811 435.473 449.935 434.782C450.496 434.633 451.021 434.467 451.512 434.257L451.941 434.038C452.476 434.353 452.984 434.686 453.519 435.027C455.367 436.244 457.724 437.495 459.013 439.298C459.494 439.955 458.785 440.786 458.057 440.488Z" fill="#2B4A78"/>
<path d="M462.438 438.169C460.221 437.714 458.513 435.719 456.725 434.424C455.963 433.863 455.025 433.321 454.158 432.699L454.368 432.542C455.034 431.99 455.612 431.43 456.112 430.8C456.795 431.229 457.444 431.728 458.031 432.122C459.941 433.4 462.552 434.704 463.446 436.9C463.709 437.522 463.139 438.301 462.438 438.169Z" fill="#2B4A78"/>
<path d="M549.36 185.765C542.166 198.919 518.885 208.897 518.885 208.897L511.455 197.712L502.614 210.061C492.388 207.838 480.69 197.712 474.864 186.693C476.143 180.015 475.696 184.224 475.696 184.224C476.984 181.31 478.298 178.711 479.692 176.426L483.372 173.984H543.244C545.189 176.811 547.082 180.19 548.826 184.224C548.826 184.224 547.249 177.608 549.36 185.765Z" fill="#C6C6C6"/>
<path d="M486.412 116.675C485.071 122.259 482.416 127.44 479.858 132.569C478.719 134.897 474.189 144.726 474.013 145.102C466.96 160.646 456.988 183.358 456.252 186.063C453.904 194.806 446.018 250.82 448.498 248.186C443.661 255.468 435.144 254.785 435.144 254.785C435.144 254.785 434.872 247.774 434.645 245.149C433.584 233.876 431.105 202.184 433.996 183.49C434.802 178.282 437.966 165.723 441.733 151.5C444.818 139.72 446.185 128.885 449.882 117.559C452.642 109.043 456.691 100.23 463.7 90.5762C465.032 88.7032 469.886 85.4736 472.27 85.2198L472.392 85.1936C473.716 85.0885 474.32 87.0665 475.529 87.5917C478.92 89.1058 481.751 91.8102 483.398 95.1448C486.614 101.639 488.086 109.551 486.412 116.675Z" fill="#F5A784"/>
<path d="M435.24 246.243C435.24 246.243 435.424 250.05 435.144 254.785C434.855 259.529 434.154 269.927 435.687 273.06C435.687 273.06 436.116 273.576 436.914 274.198L437.291 274.451C438.035 274.959 439.043 275.484 440.314 275.756L440.611 275.826C441.505 276.001 442.548 276.062 443.678 275.869L443.959 275.817C444.826 275.668 445.755 275.405 446.745 274.977C446.745 274.977 447.209 264.369 448.638 261.087C448.638 261.087 450.013 267.485 451.985 268.071L453.343 267.712C453.343 267.712 452.651 260.658 452.625 257.481C452.572 249.761 446.5 244.353 446.5 244.353C446.5 244.353 438.237 241.561 435.24 246.243Z" fill="#F5A784"/>
<path d="M443.679 275.869L443.959 275.817C443.784 271.064 444.397 266.408 444.862 261.612L444.695 261.568C443.197 266.207 443.162 271.073 443.679 275.869Z" fill="#E0855C"/>
<path d="M440.314 275.755L440.612 275.825C440.436 271.055 441.05 266.408 441.505 261.62L441.348 261.576C439.849 266.171 439.805 271.003 440.314 275.755Z" fill="#E0855C"/>
<path d="M436.914 274.197L437.291 274.45C437.186 269.952 437.764 265.549 438.193 261.016L438.036 260.981C436.529 265.226 436.511 269.75 436.914 274.197Z" fill="#E0855C"/>
<path d="M450.049 118.215C446.833 118.933 446.334 122.932 445.352 126.46C444.012 131.291 445.808 131.588 449.611 132.586C452.984 133.479 456.209 134.879 459.644 135.693C464.06 136.726 468.564 137.54 473.067 138.056C473.067 138.056 477.256 138.879 478.973 136.63C480.691 134.38 480.691 125.908 480.691 125.908C474.995 124.359 469.3 122.819 463.604 121.269C459.924 120.28 456.121 118.836 452.353 118.206C451.46 118.057 450.697 118.066 450.049 118.215Z" fill="#2B4A78"/>
<path d="M531.687 48.1286C532.791 46.9296 533.36 45.3804 533.606 43.8926C534.009 41.4419 533.851 38.8425 534.946 36.6195C535.507 35.4729 536.383 34.4577 536.672 33.2149C536.961 31.9721 536.558 30.5892 535.656 29.6702C534.999 29.0051 534.061 28.5324 533.755 27.6485C533.579 27.1146 533.667 26.5282 533.632 25.968C533.535 24.2614 532.239 22.826 530.723 22.0296C529.216 21.2419 527.489 20.9705 525.807 20.638C524.134 20.3054 522.416 19.8765 521.058 18.8438C520.427 18.3711 519.884 17.7672 519.183 17.3909C517.965 16.7345 516.493 16.8658 515.126 17.0933C512.559 17.5397 510.044 18.2836 507.652 19.3164C506.758 19.7015 505.864 20.1391 504.9 20.2791C503.446 20.4804 501.948 20.0078 500.51 20.2704C498.302 20.6905 496.795 22.7122 495.718 24.6815C495.411 25.2504 495.095 25.863 494.561 26.2306C493.974 26.6332 493.22 26.677 492.537 26.8958C490.723 27.4559 489.461 29.1976 488.962 31.0356C488.427 32.9786 488.638 34.8778 488.839 36.8295C489.041 38.7375 489.014 40.6105 489.488 42.501C493.387 58.0886 494.482 53.6513 494.482 53.6513C498.399 53.2924 502.316 52.8898 506.241 52.461C511.498 51.8921 516.756 51.2882 521.996 50.518C524.09 50.2116 526.158 49.7828 528.243 49.459C529.627 49.2489 530.661 49.1964 531.687 48.1286Z" fill="#263238"/>
<path d="M493.501 46.8937C493.501 46.8937 490.022 42.9814 486.798 47.1037C483.564 51.226 489.505 58.7441 493.869 58.9454C493.869 58.9454 494.062 48.6091 493.501 46.8937Z" fill="#E0855C"/>
<path d="M557.395 91.6087C555.704 96.0111 550.166 110.942 547.205 125.217C546.898 126.661 546.644 128.07 546.399 129.541C546.162 130.757 545.987 131.913 545.838 133.05C545.759 133.733 545.663 134.643 545.531 135.729C544.348 147.281 542.07 179.577 541.667 185.082C541.641 185.59 541.614 185.861 541.614 185.861C511.534 195.138 479.805 187.76 479.805 187.76C479.805 187.76 479.762 187.174 479.578 186.062C476.835 168.847 476.099 151.22 476.3 133.786C476.336 130.994 476.388 128.097 475.249 125.541C474.522 123.913 473.348 122.521 472.498 120.955C471.157 118.487 471.595 115.616 471.35 112.912C471.052 109.647 470.78 106.382 470.535 103.127C470.141 97.9016 469.79 92.6765 469.738 87.4427C469.711 86.3049 470.754 85.6485 472.27 85.2196L472.393 85.1934C474.723 84.537 478.167 84.3794 480.874 83.9331C486.509 82.9441 492.616 82.4889 496.129 82.3402C496.611 82.3139 497.006 82.2876 497.391 82.2614C497.672 82.2089 497.926 82.2089 498.145 82.2089C498.758 82.1826 499.082 82.1826 499.082 82.1826L500.046 66.735C500.554 66.84 501.063 66.9188 501.588 66.945C502.578 67.0938 503.56 67.1726 504.524 67.1726C505.812 67.1989 507.003 67.1463 508.116 66.9975C508.695 66.945 509.255 66.875 509.79 66.77C510.57 66.6387 511.332 66.5162 512.059 66.3411C513.277 66.0348 514.469 65.6847 515.555 65.2559C515.906 65.1508 516.239 65.0546 516.563 64.8708L516.843 64.7745C517.098 64.6695 517.378 64.5469 517.632 64.4419C519.244 63.733 520.611 62.954 521.733 62.2451C522.434 61.79 523.065 61.3611 523.573 61.011L523.88 60.7572C524.16 60.5559 524.379 60.3984 524.563 60.2233C524.791 60.0483 524.94 59.917 524.992 59.8733L524.966 60.022L524.94 60.1971C524.913 60.4246 524.861 60.6522 524.843 60.906C524.537 63.4354 524.335 66.7175 524.283 69.9558C524.204 72.1789 524.204 74.3757 524.186 76.3011C524.186 79.6095 524.256 82.0076 524.256 82.0076C524.861 81.9813 525.448 81.9813 526.035 82.0338L526.438 82.0601L526.692 82.0338C530.004 82.0863 533.185 82.3927 536.094 82.8478C544.418 84.1606 550.087 85.6747 553.408 87.0138L553.505 87.0663C554.267 87.3639 554.889 87.6702 555.397 87.9766C556.133 88.3792 557.676 90.856 557.395 91.6087Z" fill="#F5A784"/>
<path d="M525.01 59.8289C521.654 77.6397 503.797 76.9745 499.538 74.7602L500.046 66.7344C514.819 69.2813 525.01 59.8289 525.01 59.8289Z" fill="#E0855C"/>
<path d="M493.913 35.2531C491.757 37.6337 491.731 42.8325 491.722 48.5827C491.687 65.9821 497.067 71.2509 505.987 71.9336C514.907 72.6163 524.099 68.9141 525.518 52.74C526.228 44.653 527.016 37.1786 523.976 33.7828C519.437 28.724 500.528 27.945 493.913 35.2531Z" fill="#F5A784"/>
<path d="M524.213 50.4553C524.213 50.4553 526.71 43.1735 531.117 46.8494C535.525 50.5428 529.925 61.5881 523.345 60.993C523.345 60.993 522.197 52.976 524.213 50.4553Z" fill="#F5A784"/>
<path d="M529.216 50.1939C528.27 50.3865 527.323 51.3142 526.657 51.9706C525.965 52.6621 525.141 53.5285 524.817 54.465C524.712 54.7626 525.124 54.9289 525.317 54.7363C525.86 54.2025 526.281 53.5723 526.789 52.9947C527.165 53.3797 527.56 53.7736 528.077 53.9486C528.48 54.0887 528.751 53.5811 528.576 53.266C528.331 52.8546 527.919 52.5658 527.498 52.3032C528.164 51.7606 528.979 51.323 529.523 50.6841C529.733 50.4478 529.505 50.1327 529.216 50.1939Z" fill="#E0855C"/>
<path d="M499.345 47.9357C499.345 47.9357 497.856 48.5396 498.005 45.8702C498.136 43.4721 499.223 43.7609 499.223 43.7609C499.223 43.7609 500.265 43.7259 500.169 45.8177C500.073 47.9182 499.345 47.9357 499.345 47.9357Z" fill="#263238"/>
<path d="M514.591 47.4713C514.591 47.4713 513.102 48.0665 513.251 45.4058C513.382 43.0077 514.469 43.2965 514.469 43.2965C514.469 43.2965 515.511 43.2615 515.415 45.3533C515.319 47.4538 514.591 47.4713 514.591 47.4713Z" fill="#263238"/>
<path d="M506.399 54.8063C505.628 54.7187 503.902 55.2264 503.516 54.4212C503.192 53.7385 504.296 49.66 504.445 48.9685C504.997 46.4479 505.602 44.7412 505.978 41.7305L505.716 41.6692C504.068 45.6952 503.56 50.6402 502.622 54.9025C502.579 55.1301 502.754 55.3752 502.999 55.3577C504.121 55.3139 505.216 55.5152 506.329 55.4889C506.697 55.4802 506.793 54.8588 506.399 54.8063Z" fill="#E0855C"/>
<path d="M510.833 58.6914C509.518 59.173 508.327 59.9434 506.951 60.2236C505.111 60.6176 503.648 60.1185 501.878 59.7596C501.641 59.707 501.378 60.031 501.615 60.2148C504.287 62.3862 508.861 61.5282 511.096 59.1379C511.262 58.9541 511.096 58.5951 510.833 58.6914Z" fill="#E0855C"/>
<path d="M501.29 38.7099C499.985 38.3072 497.435 38.2371 496.699 39.6818C496.602 39.8744 496.716 40.1721 496.97 40.1546C497.593 40.102 498.11 39.7343 498.723 39.6117C499.494 39.4454 500.256 39.4979 501.01 39.7255C501.255 39.7956 501.457 39.6642 501.597 39.4804L501.667 39.2177C501.685 38.9813 501.492 38.78 501.29 38.7099Z" fill="#263238"/>
<path d="M518.009 39.7349C517.001 37.8174 513.794 38.5616 512.304 39.3496C512.05 39.481 512.155 39.91 512.445 39.8925C513.382 39.8224 514.285 39.516 515.222 39.481C515.888 39.4547 516.344 39.5948 516.922 39.91C517.299 40.1114 517.343 40.1464 517.763 40.1551C517.991 40.1639 518.105 39.9187 518.009 39.7349Z" fill="#263238"/>
<path d="M508.949 88.8961L511.157 100.624L514.329 88.4935L528.795 100.624L508.949 130.469L495.586 109.481L493.904 96.528L501.667 88.4585L508.949 88.8961Z" fill="#DADADA"/>
<path d="M547.205 125.182L549.36 185.765C513.584 199.725 474.864 186.693 474.864 186.693L474.014 128.631C473.637 128.525 473.234 128.429 472.848 128.307C472.384 128.158 471.911 128.018 471.42 127.86C470.106 127.458 468.739 126.968 467.354 126.399C466.25 125.979 465.129 125.515 464.016 125.016C459.162 122.845 454.263 120.167 449.882 117.559C450.531 115.572 451.24 113.577 452.038 111.546C452.213 111.1 452.388 110.68 452.581 110.242C454.78 104.921 457.646 99.4332 461.571 93.6392C461.965 93.0266 462.395 92.4314 462.815 91.8013C463.096 91.3899 463.394 90.9873 463.7 90.576C465.032 88.703 469.887 85.4734 472.27 85.2196L472.393 85.1934C474.732 84.5282 478.158 84.3882 480.874 83.933C486.509 82.944 492.598 82.4802 496.13 82.3401L510.219 117.13C510.219 117.13 513.619 110.496 513.952 109.813C516.3 105.096 519.385 98.628 522.127 92.0813C522.39 91.4687 522.653 90.8385 522.898 90.2259C524.02 87.4077 525.133 84.6595 526.035 82.0338L526.438 82.0601L526.692 82.0338C529.996 82.0776 533.185 82.3927 536.094 82.8478C544.41 84.1518 550.079 85.6747 553.408 87.0138C554.162 87.2326 554.802 87.5652 555.397 87.9766C555.757 88.1954 556.098 88.4579 556.431 88.7292C557.001 89.2019 557.553 89.692 558.052 90.1909C558.307 90.4447 558.543 90.6985 558.797 90.9523C563.818 96.2036 567.507 102.435 570.355 109.174C570.688 109.927 570.986 110.68 571.283 111.45C571.914 113.008 572.484 114.601 573.036 116.202C568.497 118.329 563.301 120.246 558.762 121.725C552.322 123.878 547.205 125.182 547.205 125.182Z" fill="#315D9E"/>
<path d="M493.904 82.3746L499.336 77.7097L508.949 88.895L499.082 99.2751L493.904 82.3746Z" fill="#C6C6C6"/>
<path d="M514.329 88.4935L524.028 100.624L529.61 82.0169L524.186 76.3017L514.329 88.4935Z" fill="#C6C6C6"/>
<path d="M561.864 204.529L520.655 220.957C517.325 222.287 513.54 220.668 512.217 217.342L486.85 153.871C485.518 150.545 487.148 146.764 490.469 145.443L531.687 129.006C535.016 127.685 538.793 129.304 540.125 132.63L565.491 196.109C566.814 199.435 565.193 203.207 561.864 204.529Z" fill="#4577C1"/>
<path d="M584.339 171.411C584.286 178.736 581.106 186.429 572.764 188.548C569.934 189.265 547.187 192.381 538.705 192.626C533.684 192.784 526.245 192.959 521.216 193.046C518.771 193.072 511.341 184.662 518.158 179.174C516.204 181.397 542.009 174.526 560.041 169.704C557.369 164.934 551.314 150.099 546.451 137.864C545.084 134.503 543.822 131.343 542.745 128.639C543.086 127.921 543.507 127.247 544.068 126.643C545.89 124.648 548.396 124.42 550.893 123.729C557.211 121.917 563.432 119.65 569.443 116.963C570.451 116.491 571.485 116.044 572.536 115.755C573.456 118.014 574.464 121.331 575.472 125.234C579.756 141.679 584.357 168.54 584.339 171.411Z" fill="#F5A784"/>
<path d="M576.786 121.813C577.119 123.266 577.198 124.797 576.365 125.988C574.648 128.456 571.064 129.191 568.514 130.416C565.5 131.878 562.608 133.593 559.445 134.722C555.677 136.07 546.162 140.368 543.901 135.79C543.051 134.057 542.411 132.219 542.017 130.329C541.807 129.357 541.667 128.316 542.008 127.388C542.858 125.069 548.79 124.334 550.893 123.73C556.116 122.233 561.25 120.43 566.262 118.338C568.497 117.402 570.985 115.826 573.281 115.223C574.104 115.013 576.602 121.034 576.786 121.813Z" fill="#2B4A78"/>
<path d="M521.216 193.047C521.216 193.047 517.413 193.012 512.682 193.467C507.941 193.94 497.567 195.034 494.368 193.625C494.368 193.625 493.843 193.214 493.194 192.443L492.914 192.076C492.388 191.349 491.819 190.36 491.494 189.109L491.424 188.82C491.214 187.927 491.109 186.886 491.258 185.757L491.302 185.468C491.416 184.601 491.643 183.665 492.038 182.658C492.038 182.658 502.631 181.792 505.865 180.243C505.865 180.243 499.407 179.105 498.75 177.162L499.047 175.788C499.047 175.788 506.145 176.226 509.317 176.129C517.045 175.893 522.688 181.739 522.688 181.739C522.688 181.739 525.79 189.879 521.216 193.047Z" fill="#F5A784"/>
<path d="M491.258 185.756L491.302 185.467C496.068 185.467 500.704 184.671 505.479 184.023L505.523 184.189C500.949 185.87 496.077 186.089 491.258 185.756Z" fill="#E0855C"/>
<path d="M491.494 189.108L491.424 188.819C496.2 188.811 500.826 188.014 505.602 187.383L505.645 187.532C501.107 189.205 496.279 189.441 491.494 189.108Z" fill="#E0855C"/>
<path d="M493.194 192.443L492.914 192.075C497.426 192.005 501.816 191.261 506.329 190.666L506.373 190.814C502.184 192.495 497.654 192.671 493.194 192.443Z" fill="#E0855C"/>
</g>
<defs>
<clipPath id="clip0_262_1319">
<rect width="828" height="455" fill="white"/>
</clipPath>
</defs>
</svg>
