<svg width="526" height="440" viewBox="0 0 526 440" fill="none" xmlns="http://www.w3.org/2000/svg">
<path d="M98.8698 259.932L27.293 272.411L38.0022 325.718L109.579 313.24L98.8698 259.932Z" fill="#F5F5F5"/>
<path d="M98.888 259.949L98.5409 260.027L97.4889 260.213L93.607 260.919L78.9526 263.536L27.352 272.65L27.5519 272.375C30.7079 288.241 34.4109 306.43 38.2928 325.677L37.9667 325.462L109.503 313.035L109.324 313.29C106.168 297.238 103.517 283.939 101.676 274.619C100.771 269.964 100.056 266.309 99.5718 263.839C99.3299 262.595 99.151 261.644 99.0248 260.978C98.8985 260.311 98.8459 259.998 98.8459 259.998C98.8459 259.998 98.9301 260.311 99.0563 260.978L99.656 263.79C100.171 266.289 100.918 269.925 101.876 274.57C103.78 283.91 106.494 297.248 109.776 313.339L109.829 313.545L109.597 313.594L38.0193 326.04L37.7458 326.089L37.6932 325.824C33.8429 306.577 30.1924 288.388 27.0154 272.512V272.287L27.2679 272.238L79.0683 263.32L93.6806 260.831L97.5415 260.184L98.5198 260.027L98.888 259.949Z" fill="#E0E0E0"/>
<path d="M96.9805 263.731L30.4292 275.333L39.7896 321.927L106.341 310.325L96.9805 263.731Z" fill="#EBEBEB"/>
<path d="M39.7656 321.944L57.1973 288.927L75.2285 304.539L83.0554 293.151L106.315 310.35L39.7656 321.944Z" fill="#E0E0E0"/>
<path d="M76.9959 281.813C77.19 282.778 77.0723 283.776 76.6577 284.679C76.2432 285.583 75.5504 286.352 74.667 286.888C73.7835 287.425 72.7491 287.706 71.6945 287.695C70.6398 287.684 69.6123 287.382 68.7418 286.827C67.8713 286.273 67.1969 285.49 66.8038 284.578C66.4108 283.666 66.3168 282.667 66.5337 281.705C66.7505 280.743 67.2686 279.863 68.0223 279.176C68.776 278.489 69.7315 278.025 70.7681 277.844C71.4568 277.723 72.1642 277.73 72.85 277.864C73.5358 277.998 74.1865 278.257 74.7649 278.626C75.3432 278.994 75.838 279.466 76.2208 280.012C76.6036 280.559 76.867 281.171 76.9959 281.813Z" fill="#E0E0E0"/>
<path d="M206.111 36.5943L169.466 225.188L319.359 250.464L356.005 61.8696L206.111 36.5943Z" fill="#FAFAFA"/>
<path d="M319.356 250.472C319.356 250.472 319.408 250.159 319.513 249.571L320.018 246.915C320.46 244.582 321.123 241.133 321.975 236.654C323.711 227.677 326.236 214.565 329.434 197.964L355.734 61.8418L355.944 62.1162L206.087 36.8616L206.413 36.646C192.737 107 180.039 172.17 169.709 225.227L169.53 224.982L278.443 243.465L308.667 248.62L316.62 249.992C318.419 250.296 319.356 250.472 319.356 250.472L316.662 250.041L308.741 248.728L278.517 243.72L169.425 225.433H169.204V225.227C179.503 172.151 192.158 106.981 205.813 36.6264V36.3716H206.097L356.049 61.6458L356.302 61.6948V61.9202C345.393 117.78 336.177 164.948 329.697 198.14L322.122 236.752C321.239 241.211 320.565 244.592 320.103 246.964C319.871 248.11 319.703 248.983 319.587 249.58L319.356 250.472Z" fill="#E0E0E0"/>
<path d="M282.415 67.2562L218.773 56.5247L208.737 108.174L272.38 118.906L282.415 67.2562Z" fill="#E0E0E0"/>
<path d="M333.176 75.8155L292.431 68.9451L291.122 75.6857L331.866 82.5561L333.176 75.8155Z" fill="#E0E0E0"/>
<path d="M323.781 138.444L207.489 118.835L206.179 125.575L322.471 145.185L323.781 138.444Z" fill="#E0E0E0"/>
<path d="M321.486 150.308L205.194 130.699L203.884 137.44L320.176 157.049L321.486 150.308Z" fill="#E0E0E0"/>
<path d="M319.182 162.173L202.89 142.563L201.58 149.304L317.872 168.913L319.182 162.173Z" fill="#E0E0E0"/>
<path d="M316.865 174.035L200.573 154.426L199.264 161.166L315.556 180.775L316.865 174.035Z" fill="#E0E0E0"/>
<path d="M314.561 185.889L198.269 166.28L196.96 173.021L313.251 192.63L314.561 185.889Z" fill="#E0E0E0"/>
<path d="M306.659 226.568L190.367 206.959L189.057 213.699L305.349 233.309L306.659 226.568Z" fill="#E0E0E0"/>
<path d="M259.812 188.914L195.972 178.149L194.663 184.89L258.502 195.655L259.812 188.914Z" fill="#E0E0E0"/>
<path d="M331.061 86.7269L290.316 79.8564L289.007 86.5971L329.751 93.4675L331.061 86.7269Z" fill="#E0E0E0"/>
<path d="M327.398 97.7756L286.819 90.8325L285.495 97.5457L326.074 104.489L327.398 97.7756Z" fill="#E0E0E0"/>
<path d="M311.199 105.897L286.075 101.661L284.765 108.401L309.889 112.638L311.199 105.897Z" fill="#E0E0E0"/>
<path d="M387.136 35.7248L374.207 36.2148L372.808 39.586C372.408 40.4642 372.194 41.4058 372.177 42.3594C372.163 42.7811 372.277 43.1978 372.503 43.563C372.73 43.9282 373.061 44.2274 373.46 44.4272C374.629 44.7744 375.853 44.9302 377.079 44.8878V45.8678L365.044 46.2794V45.2994C366.267 45.1021 367.38 44.5212 368.2 43.653C369.445 42.0461 370.427 40.2759 371.114 38.4002L382.928 10.7446H383.443L397.845 38.1846C399.248 40.798 400.356 42.4313 401.17 43.0846C401.923 43.6246 402.85 43.9113 403.8 43.898V44.8192L386.094 45.4856V44.5546H386.831C387.868 44.5997 388.897 44.3685 389.798 43.8882C389.989 43.7521 390.14 43.5725 390.236 43.3666C390.331 43.1607 390.369 42.9355 390.345 42.7122C390.328 42.3976 390.26 42.087 390.145 41.791C390.145 41.644 389.798 41.0168 389.25 39.9388L387.136 35.7248ZM386.137 33.902L380.182 22.3576L375.07 34.3136L386.137 33.902Z" fill="#E0E0E0"/>
<path d="M411.619 106.932L352.488 125.331L368.279 169.372L427.409 150.973L411.619 106.932Z" fill="#F5F5F5"/>
<path d="M410.479 110.363L355.51 127.467L369.311 165.959L424.28 148.855L410.479 110.363Z" fill="#EBEBEB"/>
<path d="M369.315 165.977L379.94 136.077L397.193 147.347L402.39 136.831L424.282 148.876L369.315 165.977Z" fill="#E0E0E0"/>
<path d="M395.826 127.874C396.112 128.672 396.138 129.531 395.9 130.343C395.663 131.154 395.172 131.882 394.49 132.434C393.808 132.986 392.966 133.337 392.07 133.443C391.174 133.549 390.265 133.405 389.457 133.029C388.649 132.653 387.978 132.063 387.531 131.332C387.083 130.601 386.878 129.764 386.941 128.924C387.005 128.085 387.334 127.282 387.887 126.617C388.441 125.952 389.193 125.455 390.05 125.189C390.618 125.011 391.219 124.939 391.817 124.978C392.416 125.016 393 125.165 393.536 125.414C394.073 125.664 394.551 126.009 394.944 126.432C395.337 126.854 395.637 127.344 395.826 127.874Z" fill="#E0E0E0"/>
<path d="M413.26 55.7155L398.786 124.566L491.226 141.43L505.7 72.5791L413.26 55.7155Z" fill="#F5F5F5"/>
<path d="M505.718 72.5826L505.265 72.514L503.961 72.2983L498.932 71.4065L479.996 68.0157L413.226 55.952L413.52 55.7657C409.218 76.2575 404.294 99.7482 399.076 124.611L398.855 124.297L491.284 141.222L491.011 141.388C495.418 120.671 499.069 103.492 501.625 91.4868C502.919 85.4794 503.929 80.7655 504.623 77.5413C504.971 75.9341 505.234 74.7091 505.423 73.8565C505.612 73.0039 505.718 72.5826 505.718 72.5826C505.718 72.5826 505.644 73.0039 505.476 73.8271C505.307 74.6503 505.065 75.8851 504.739 77.4727C504.076 80.6871 503.109 85.3911 501.878 91.3887C499.374 103.443 495.787 120.681 491.473 141.477L491.421 141.692H491.2L398.708 124.826L398.435 124.777L398.487 124.523C403.747 99.6697 408.681 76.1791 412.994 55.6873L413.047 55.4521L413.289 55.5012L480.207 67.8099L499.058 71.3183L504.034 72.2983L505.297 72.5434L505.718 72.5826Z" fill="#E0E0E0"/>
<path d="M415.546 60.6332L402.896 120.809L488.842 136.488L501.492 76.3122L415.546 60.6332Z" fill="#EBEBEB"/>
<path d="M402.895 120.818L440.778 88.8899L454.454 115.683L469.697 105.471L488.843 136.498L402.895 120.818Z" fill="#E0E0E0"/>
<path d="M468.235 89.1348C467.974 90.3832 467.322 91.5316 466.361 92.4347C465.399 93.3377 464.172 93.9548 462.834 94.208C461.496 94.4611 460.108 94.3389 458.844 93.8568C457.581 93.3746 456.499 92.5542 455.737 91.4994C454.974 90.4446 454.564 89.2027 454.559 87.9309C454.554 86.6591 454.955 85.4145 455.709 84.3546C456.464 83.2947 457.539 82.4671 458.798 81.9765C460.058 81.486 461.445 81.3544 462.785 81.5986C463.675 81.7594 464.521 82.0819 465.277 82.5479C466.032 83.0138 466.682 83.6139 467.188 84.3139C467.694 85.0139 468.047 85.8 468.227 86.6272C468.406 87.4545 468.409 88.3066 468.235 89.1348Z" fill="#E0E0E0"/>
<path d="M57.5864 17.5458L62.3625 69.4662L83.9811 74.9248L125.914 70.3874L120.012 11.9402L57.5864 17.5458Z" fill="#F5F5F5"/>
<path d="M68.9586 64.8015L62.373 69.4663C64.8762 71.488 67.803 73.0031 70.9679 73.9155C75.1989 75.0121 79.616 75.3447 83.9811 74.8955C83.9811 74.8955 73.9976 73.3177 68.9586 64.8015Z" fill="#EBEBEB"/>
<path d="M114.963 31.06C114.963 31.158 104.358 32.187 91.261 33.3728C78.1636 34.5586 67.5174 35.4406 67.5068 35.3328C67.4963 35.225 78.111 34.1764 91.2189 33.02C104.327 31.8636 114.952 30.9326 114.963 31.06Z" fill="#E0E0E0"/>
<path d="M115.583 39.0177C115.583 39.1157 104.979 40.1545 91.8816 41.3403C78.7842 42.5261 68.138 43.3983 68.1274 43.3003C68.1169 43.2023 78.7316 42.1635 91.8395 40.9777C104.947 39.7919 115.573 38.9001 115.583 39.0177Z" fill="#E0E0E0"/>
<path d="M116.583 46.0639C116.583 46.1619 105.978 47.2007 92.8811 48.3767C79.7837 49.5527 69.148 50.4445 69.1375 50.3367C69.1269 50.2289 79.7311 49.2097 92.839 48.0239C105.947 46.8381 116.572 45.9659 116.583 46.0639Z" fill="#E0E0E0"/>
<path d="M117.246 52.8749C117.246 52.9631 106.641 54.0019 93.5335 55.1877C80.4255 56.3735 69.8003 57.2555 69.7898 57.1477C69.7793 57.0399 80.394 56.0109 93.5019 54.8349C106.61 53.6589 117.235 52.7769 117.246 52.8749Z" fill="#E0E0E0"/>
<path d="M509.578 435.702C509.578 435.839 398.697 435.957 261.958 435.957C125.219 435.957 14.3176 435.839 14.3176 435.702C14.3176 435.565 125.167 435.438 261.958 435.438C398.75 435.438 509.578 435.555 509.578 435.702Z" fill="#263238"/>
<path d="M44.1208 107.843L88.4732 344.435L275.498 317.083L284.166 297.571L233.565 78.8057L58.2597 88.5469L44.1208 107.843Z" fill="#E0E0E0"/>
<path opacity="0.3" d="M88.4732 344.435L101.76 325.472L57.4076 88.8704L44.1208 107.843L88.4732 344.435Z" fill="black"/>
<path d="M57.4077 88.8703L101.76 325.472L284.166 297.571L238.078 64.8701L57.4077 88.8703Z" fill="#FAFAFA"/>
<path d="M57.4077 88.8801L238.047 64.6741H238.268V64.8701C251.197 129.854 267.208 210.4 284.44 297.522L284.492 297.787L284.208 297.836L281.2 298.296L101.802 325.736H101.55V325.501C75.46 185.763 57.797 90.9577 57.4077 88.8801C57.797 90.9675 75.6704 185.733 102.013 325.432L101.718 325.246L281.105 297.806L284.114 297.346L283.882 297.649C266.65 210.518 250.723 129.971 237.857 64.9387L238.11 65.1053L57.4077 88.8801Z" fill="#263238"/>
<path d="M203.656 200.919C205.918 185.065 193.955 170.504 176.936 168.397C159.917 166.29 144.286 177.435 142.025 193.289C139.763 209.143 151.726 223.704 168.745 225.811C185.764 227.918 201.394 216.773 203.656 200.919Z" fill="#315D9E"/>
<path d="M158.579 204.696L157.169 196.357L188.171 191.78L189.497 199.62C189.497 199.62 187.603 206.362 175.063 208.205C162.524 210.047 158.579 204.696 158.579 204.696Z" fill="white"/>
<path d="M152.277 196.406L174.401 200.071L193.589 190.016L171.434 186.753L152.277 196.406Z" fill="white"/>
<path d="M214.176 115.51L104.249 131.692C102.901 131.891 101.98 133.07 102.193 134.326L102.564 136.514C102.777 137.77 104.044 138.628 105.392 138.429L215.319 122.247C216.668 122.048 217.588 120.869 217.375 119.613L217.004 117.425C216.791 116.169 215.525 115.311 214.176 115.51Z" fill="#E0E0E0"/>
<path d="M196.785 132.543L127.072 142.806C125.723 143.005 124.802 144.184 125.016 145.44L125.387 147.628C125.6 148.884 126.866 149.742 128.214 149.543L197.928 139.281C199.277 139.082 200.197 137.903 199.984 136.646L199.613 134.459C199.4 133.202 198.134 132.345 196.785 132.543Z" fill="#E0E0E0"/>
<path d="M221.895 277.711L152.182 287.974C150.833 288.172 149.913 289.351 150.126 290.608L150.497 292.795C150.71 294.052 151.976 294.909 153.325 294.711L223.038 284.448C224.387 284.25 225.308 283.07 225.094 281.814L224.723 279.626C224.51 278.37 223.244 277.512 221.895 277.711Z" fill="#E0E0E0"/>
<path d="M274.772 304.147L273.888 304.304L271.279 304.725L261.191 306.293L223.729 312.016L97.1732 331.175L96.8997 331.224V330.969C95.1323 321.61 93.2703 311.81 91.3767 301.824C81.1933 248.169 72.0199 199.62 65.3818 164.448C62.089 146.867 59.4274 132.647 57.5759 122.808C56.6712 117.908 55.9663 114.076 55.4719 111.479C55.2405 110.185 55.0616 109.205 54.9354 108.539C54.8091 107.872 54.7776 107.559 54.7776 107.559C54.7776 107.559 54.8617 107.902 54.9985 108.539C55.1353 109.176 55.3246 110.195 55.5771 111.479C56.0821 114.076 56.8185 117.888 57.7758 122.788C59.6589 132.588 62.3835 146.837 65.7499 164.399C72.4301 199.561 81.6667 248.11 91.8606 301.756C93.7542 311.732 95.6057 321.542 97.3836 330.901L97.0575 330.685L223.655 311.693L261.138 306.126L271.237 304.647L273.857 304.274L274.772 304.147Z" fill="#263238"/>
<path d="M260.896 313.045L260.065 313.202L257.603 313.604L248.072 315.113L212.641 320.621L92.3971 339.162H92.1236V338.917L85.212 303.961C74.9129 251.041 65.5922 203.168 58.8383 168.495C55.493 151.169 52.7788 137.135 50.9062 127.433C49.991 122.592 49.2651 118.829 48.8023 116.261C48.5708 114.997 48.3815 114.027 48.2657 113.321C48.15 112.616 48.0974 112.341 48.0974 112.341C48.0974 112.341 48.1816 112.665 48.3183 113.321L48.918 116.261C49.4229 118.819 50.1804 122.573 51.1482 127.404L59.2486 168.437C66.0445 203.109 75.4284 250.982 85.7906 303.873C88.126 315.858 90.4194 327.589 92.618 338.868L92.3024 338.663L212.557 320.297L248.009 314.937L257.551 313.516L260.023 313.163L260.896 313.045Z" fill="#263238"/>
<path d="M61.8155 189.065L57.7021 194.475L67.6856 250.227L73.6294 252.109L61.8155 189.065Z" fill="#263238"/>
<path d="M90.3023 184.423L61.8247 189.057L73.6473 252.097L102.125 247.462L90.3023 184.423Z" fill="#263238"/>
<path d="M91.21 181.978L89.355 182.28C88.2961 182.452 87.5876 183.391 87.7724 184.377L99.7351 248.229C99.9199 249.216 100.928 249.876 101.987 249.704L103.842 249.402C104.901 249.23 105.609 248.291 105.425 247.304L93.4618 183.452C93.277 182.466 92.2689 181.806 91.21 181.978Z" fill="#263238"/>
<path d="M56.8922 234.675C53.7366 234.663 50.6923 233.588 48.3215 231.647C45.9508 229.707 44.4139 227.034 43.9947 224.12C43.6329 221.631 44.108 219.098 45.3547 216.871C46.6014 214.644 48.5584 212.831 50.9564 211.683C53.3544 210.534 56.0756 210.106 58.7455 210.457C61.4154 210.808 63.9029 211.922 65.8658 213.644L83.6446 204.236C83.9848 204.056 84.3665 203.955 84.7574 203.942C85.1484 203.928 85.5371 204.002 85.8908 204.158C86.2445 204.313 86.5529 204.546 86.79 204.836C87.027 205.126 87.1858 205.464 87.2529 205.823L91.4609 228.256C91.5302 228.613 91.5064 228.98 91.3915 229.326C91.2766 229.673 91.074 229.989 90.8007 230.247C90.5275 230.505 90.1916 230.699 89.8213 230.811C89.451 230.923 89.0573 230.951 88.6731 230.892L68.601 227.952C67.5143 229.978 65.8432 231.682 63.775 232.873C61.7069 234.064 59.3235 234.694 56.8922 234.694V234.675ZM56.8922 212.321C56.364 212.318 55.8363 212.354 55.3142 212.429C52.4841 212.857 49.9407 214.287 48.214 216.419C46.4874 218.551 45.7108 221.222 46.0461 223.875C46.3647 226.093 47.4584 228.152 49.1583 229.734C50.8581 231.316 53.0696 232.332 55.4514 232.627C57.8331 232.921 60.2526 232.477 62.3364 231.363C64.4202 230.249 66.0523 228.526 66.9809 226.462L67.2965 225.757L89.0098 229.02C89.0612 229.03 89.1147 229.028 89.1647 229.012C89.2147 228.997 89.2592 228.969 89.2938 228.932C89.3311 228.898 89.3592 228.856 89.3757 228.81C89.3921 228.764 89.3965 228.715 89.3885 228.667L85.1805 206.225C85.1704 206.176 85.1479 206.13 85.115 206.091C85.0821 206.052 85.0396 206.021 84.9911 206C84.9439 205.977 84.8916 205.966 84.8386 205.966C84.7856 205.966 84.7333 205.977 84.686 206L65.487 216.113L64.9189 215.555C63.8905 214.543 62.6507 213.737 61.2758 213.188C59.9008 212.638 58.4198 212.357 56.9237 212.36L56.8922 212.321Z" fill="#455A64"/>
<path d="M99.6034 247.395C99.5335 247.191 99.4842 246.981 99.4561 246.768C99.3614 246.297 99.2457 245.7 99.0879 244.965C98.7723 243.328 98.3305 241.045 97.7834 238.301C96.7314 232.626 95.2165 224.884 93.5754 216.329C91.9343 207.774 90.5351 200.012 89.4831 194.318C88.9887 191.555 88.5889 189.291 88.3049 187.644C88.1787 186.9 88.084 186.292 88.0103 185.822C87.9611 185.612 87.9399 185.399 87.9472 185.185C88.0188 185.386 88.075 185.593 88.1155 185.802C88.2207 186.272 88.3575 186.87 88.5153 187.605C88.8519 189.242 89.3148 191.525 89.8724 194.259C90.998 199.875 92.5024 207.646 94.0804 216.231C95.6584 224.816 97.1312 232.607 98.1201 238.242C98.625 241.064 99.0037 243.348 99.2562 244.925C99.3719 245.719 99.4771 246.327 99.5192 246.758C99.5753 246.966 99.6036 247.18 99.6034 247.395Z" fill="#455A64"/>
<path d="M73.0614 252.324C72.999 252.115 72.9498 251.902 72.9141 251.687C72.8195 251.227 72.7037 250.629 72.5565 249.884C72.2303 248.248 71.7885 245.964 71.2415 243.23C70.1895 237.546 68.6746 229.804 67.0335 221.249C65.3923 212.693 64.0037 204.932 62.9412 199.248C62.4467 196.474 62.047 194.21 61.7629 192.574C61.6367 191.819 61.542 191.221 61.4684 190.751C61.419 190.539 61.3978 190.321 61.4053 190.104C61.485 190.308 61.5448 190.518 61.5841 190.731C61.6788 191.202 61.8155 191.8 61.9733 192.535C62.31 194.171 62.7729 196.455 63.3304 199.179C64.4561 204.804 65.9604 212.566 67.5384 221.16C69.1164 229.755 70.5892 237.526 71.5886 243.161C72.0831 245.984 72.4723 248.267 72.7143 249.855C72.83 250.649 72.9352 251.256 72.9773 251.678C73.0334 251.889 73.0617 252.106 73.0614 252.324Z" fill="#455A64"/>
<path d="M193.568 190.016C193.11 190.343 192.625 190.634 192.116 190.888L188.056 193.113C184.605 194.975 179.819 197.513 174.516 200.296L174.422 200.345H174.327H174.106C168.057 199.365 162.534 198.385 158.642 197.709L153.96 196.857C153.381 196.774 152.81 196.642 152.256 196.465C152.842 196.489 153.426 196.551 154.002 196.651L158.705 197.347C162.681 197.954 168.173 198.836 174.211 199.836H174.422H174.232C179.545 197.062 184.363 194.573 187.908 192.79L192.064 190.712C192.541 190.437 193.045 190.204 193.568 190.016Z" fill="#263238"/>
<path d="M126.493 108.87L126.174 107.031L134.871 105.721L135.19 107.561L131.948 108.049L133.46 116.762L131.247 117.095L129.735 108.382L126.493 108.87ZM138.134 116.058L136.304 105.506L138.543 105.169L139.298 109.522L143.844 108.838L143.088 104.484L145.322 104.148L147.153 114.7L144.919 115.036L144.163 110.677L139.617 111.362L140.374 115.721L138.134 116.058ZM148.999 114.422L147.168 103.87L154.304 102.796L154.624 104.635L149.726 105.372L150.163 107.887L154.693 107.205L155.012 109.044L150.482 109.726L150.919 112.246L155.837 111.505L156.156 113.345L148.999 114.422ZM162.356 104.697C162.243 104.288 162.009 103.992 161.656 103.809C161.302 103.626 160.856 103.575 160.318 103.656C159.953 103.711 159.653 103.809 159.42 103.95C159.185 104.087 159.016 104.256 158.913 104.455C158.813 104.653 158.782 104.865 158.822 105.092C158.848 105.282 158.916 105.441 159.026 105.569C159.141 105.696 159.284 105.8 159.457 105.879C159.63 105.956 159.824 106.016 160.04 106.061C160.256 106.103 160.484 106.132 160.724 106.149L161.715 106.232C162.195 106.266 162.643 106.339 163.059 106.453C163.475 106.566 163.846 106.727 164.172 106.935C164.498 107.144 164.768 107.406 164.982 107.723C165.2 108.039 165.349 108.417 165.428 108.856C165.537 109.502 165.468 110.087 165.223 110.61C164.981 111.13 164.575 111.566 164.007 111.919C163.442 112.269 162.728 112.509 161.866 112.638C161.011 112.767 160.244 112.749 159.564 112.583C158.888 112.417 158.328 112.105 157.884 111.646C157.443 111.184 157.148 110.575 156.999 109.818L159.166 109.492C159.251 109.842 159.404 110.122 159.625 110.332C159.848 110.538 160.122 110.679 160.446 110.753C160.773 110.824 161.13 110.83 161.516 110.772C161.895 110.715 162.215 110.61 162.475 110.458C162.738 110.306 162.931 110.12 163.052 109.901C163.173 109.682 163.212 109.445 163.168 109.191C163.126 108.954 163.021 108.765 162.852 108.625C162.686 108.484 162.459 108.378 162.17 108.305C161.885 108.231 161.541 108.177 161.139 108.143L159.936 108.028C159.006 107.946 158.242 107.714 157.645 107.331C157.048 106.949 156.684 106.367 156.552 105.587C156.437 104.949 156.511 104.365 156.773 103.836C157.038 103.306 157.451 102.861 158.012 102.502C158.572 102.143 159.238 101.905 160.01 101.789C160.796 101.67 161.506 101.701 162.138 101.881C162.774 102.06 163.297 102.363 163.708 102.792C164.118 103.22 164.383 103.747 164.502 104.374L162.356 104.697ZM167.866 100.754L169.696 111.306L167.457 111.643L165.627 101.091L167.866 100.754ZM175.979 102.646C175.866 102.237 175.632 101.941 175.279 101.758C174.925 101.575 174.479 101.524 173.942 101.605C173.576 101.66 173.277 101.758 173.043 101.899C172.808 102.036 172.64 102.205 172.536 102.403C172.436 102.602 172.406 102.814 172.445 103.041C172.471 103.231 172.539 103.39 172.65 103.518C172.764 103.645 172.907 103.749 173.08 103.828C173.253 103.905 173.447 103.965 173.664 104.01C173.88 104.052 174.108 104.081 174.348 104.098L175.338 104.181C175.818 104.214 176.266 104.288 176.682 104.402C177.098 104.515 177.469 104.676 177.795 104.884C178.121 105.093 178.391 105.355 178.606 105.672C178.823 105.988 178.972 106.366 179.052 106.805C179.16 107.451 179.092 108.036 178.847 108.559C178.604 109.079 178.199 109.515 177.63 109.868C177.065 110.218 176.351 110.457 175.489 110.587C174.634 110.716 173.867 110.698 173.188 110.532C172.511 110.366 171.951 110.054 171.507 109.595C171.066 109.133 170.771 108.524 170.623 107.767L172.789 107.441C172.875 107.791 173.028 108.071 173.248 108.281C173.471 108.487 173.745 108.628 174.069 108.702C174.396 108.773 174.753 108.779 175.139 108.721C175.518 108.664 175.838 108.559 176.098 108.407C176.362 108.255 176.554 108.069 176.675 107.85C176.796 107.631 176.835 107.394 176.791 107.14C176.75 106.903 176.645 106.714 176.475 106.574C176.309 106.433 176.082 106.327 175.793 106.254C175.508 106.18 175.165 106.126 174.763 106.092L173.559 105.977C172.629 105.895 171.865 105.663 171.268 105.28C170.671 104.898 170.307 104.316 170.175 103.536C170.061 102.898 170.135 102.314 170.396 101.785C170.662 101.255 171.075 100.81 171.635 100.451C172.195 100.092 172.861 99.8537 173.634 99.7375C174.42 99.6191 175.129 99.6498 175.761 99.8295C176.397 100.009 176.921 100.312 177.331 100.74C177.741 101.169 178.006 101.696 178.126 102.323L175.979 102.646Z" fill="#263238"/>
<path d="M209.537 304.274H299.231V348.119H209.537C204.613 348.119 199.89 346.297 196.408 343.053C192.926 339.809 190.969 335.41 190.969 330.822V321.561C190.969 316.974 192.926 312.574 196.408 309.331C199.89 306.087 204.613 304.264 209.537 304.264V304.274Z" fill="#676C74"/>
<path d="M275.782 304.274H464.984C465.801 304.274 466.585 304.577 467.163 305.115C467.742 305.654 468.066 306.384 468.066 307.146V308.684C468.066 309.446 467.742 310.176 467.163 310.715C466.585 311.253 465.801 311.556 464.984 311.556H275.782V304.274Z" fill="#676C74"/>
<path d="M275.782 340.848H464.984C465.389 340.848 465.79 340.922 466.164 341.066C466.538 341.211 466.877 341.422 467.163 341.689C467.45 341.956 467.677 342.272 467.832 342.62C467.987 342.969 468.066 343.342 468.066 343.719V345.258C468.066 346.019 467.742 346.75 467.163 347.288C466.585 347.827 465.801 348.129 464.984 348.129H275.782V340.848Z" fill="#676C74"/>
<path d="M462.312 340.848H297.243C295.178 340.848 293.133 340.469 291.226 339.732C289.318 338.996 287.585 337.917 286.125 336.556C284.666 335.196 283.508 333.58 282.719 331.803C281.93 330.025 281.524 328.12 281.526 326.197C281.526 322.314 283.182 318.59 286.129 315.844C289.077 313.098 293.074 311.556 297.243 311.556H462.312C460.125 316.17 458.995 321.158 458.995 326.202C458.995 331.246 460.125 336.234 462.312 340.848Z" fill="#F5F5F5"/>
<path opacity="0.3" d="M281.526 348.129H209.905C204.883 348.129 200.067 346.271 196.516 342.963C192.965 339.654 190.969 335.168 190.969 330.489V321.777C190.969 317.135 192.949 312.683 196.473 309.401C199.996 306.118 204.775 304.274 209.758 304.274H283.304C266.272 313.898 267.545 336.928 281.526 348.129Z" fill="black"/>
<path d="M442.261 327.559C442.261 327.706 408.376 327.824 366.591 327.824C324.805 327.824 290.92 327.706 290.92 327.559C290.92 327.412 324.795 327.294 366.591 327.294C408.386 327.294 442.261 327.412 442.261 327.559Z" fill="#263238"/>
<path d="M457.83 334.066C457.83 334.213 423.946 334.331 382.16 334.331C340.375 334.331 306.49 334.213 306.49 334.066C306.49 333.919 340.364 333.811 382.16 333.811C423.956 333.811 457.83 333.929 457.83 334.066Z" fill="#263238"/>
<path d="M453.244 318.327C453.244 318.474 419.359 318.592 377.573 318.592C335.788 318.592 301.893 318.474 301.893 318.327C301.893 318.18 335.767 318.063 377.573 318.063C419.38 318.063 453.244 318.2 453.244 318.327Z" fill="#263238"/>
<path d="M273.236 345.052C273.236 345.199 257.372 345.317 237.815 345.317C218.258 345.317 202.394 345.199 202.394 345.052C202.394 344.905 218.248 344.787 237.815 344.787C257.382 344.787 273.236 344.905 273.236 345.052Z" fill="#263238"/>
<path d="M273.236 307.92C273.236 308.067 257.372 308.184 237.815 308.184C218.258 308.184 202.394 308.067 202.394 307.92C202.394 307.773 218.248 307.655 237.815 307.655C257.382 307.655 273.236 307.773 273.236 307.92Z" fill="#263238"/>
<path d="M169.94 378.901H290.804V435.369H169.94C165.016 435.369 160.293 433.546 156.811 430.303C153.329 427.059 151.372 422.659 151.372 418.072V396.198C151.372 391.611 153.329 387.211 156.811 383.967C160.293 380.723 165.016 378.901 169.94 378.901Z" fill="#676C74"/>
<path d="M260.602 378.901H505.118C505.935 378.901 506.719 379.204 507.298 379.742C507.876 380.281 508.2 381.011 508.2 381.773V385.408C508.2 386.17 507.876 386.9 507.298 387.439C506.719 387.977 505.935 388.28 505.118 388.28H260.602V378.901Z" fill="#676C74"/>
<path d="M260.602 426H505.118C505.935 426 506.719 426.303 507.298 426.841C507.876 427.38 508.2 428.11 508.2 428.871V432.507C508.2 433.269 507.876 433.999 507.298 434.538C506.719 435.076 505.935 435.379 505.118 435.379H260.602V426Z" fill="#676C74"/>
<path d="M500.815 426H288.248C282.879 425.997 277.731 424.009 273.935 420.471C270.14 416.933 268.008 412.137 268.008 407.135C268.008 404.659 268.531 402.207 269.548 399.919C270.565 397.632 272.056 395.553 273.936 393.802C275.815 392.051 278.047 390.663 280.502 389.715C282.958 388.767 285.59 388.28 288.248 388.28H500.815C497.995 394.22 496.539 400.644 496.539 407.14C496.539 413.635 497.995 420.059 500.815 426Z" fill="#F5F5F5"/>
<path opacity="0.3" d="M267.987 435.369H169.698C167.292 435.369 164.91 434.927 162.687 434.069C160.464 433.211 158.444 431.953 156.744 430.368C155.043 428.783 153.694 426.901 152.774 424.829C151.854 422.758 151.381 420.539 151.383 418.297V396.6C151.383 391.922 153.378 387.435 156.929 384.127C160.48 380.818 165.297 378.96 170.319 378.96H270.259C248.346 391.288 249.987 420.953 267.987 435.369Z" fill="black"/>
<path d="M474.989 408.889C474.989 409.036 431.352 409.154 377.542 409.154C323.732 409.154 280.084 409.036 280.084 408.889C280.084 408.742 323.711 408.625 377.542 408.625C431.373 408.625 474.989 408.742 474.989 408.889Z" fill="#263238"/>
<path d="M495.05 417.268C495.05 417.415 451.413 417.533 397.593 417.533C343.773 417.533 300.136 417.415 300.136 417.268C300.136 417.121 343.762 417.013 397.593 417.013C451.424 417.013 495.05 417.18 495.05 417.268Z" fill="#263238"/>
<path d="M489.18 401.108C489.18 401.255 445.553 401.373 391.733 401.373C337.913 401.373 294.276 401.255 294.276 401.108C294.276 400.961 337.902 400.844 391.733 400.844C445.564 400.844 489.18 400.961 489.18 401.108Z" fill="#263238"/>
<path d="M257.309 431.41C257.309 431.557 236.889 431.674 211.694 431.674C186.499 431.674 166.079 431.557 166.079 431.41C166.079 431.263 186.499 431.155 211.694 431.155C236.889 431.155 257.309 431.272 257.309 431.41Z" fill="#263238"/>
<path d="M257.309 383.595C257.309 383.733 236.889 383.85 211.694 383.85C186.499 383.85 166.079 383.733 166.079 383.595C166.079 383.458 186.499 383.331 211.694 383.331C236.889 383.331 257.309 383.448 257.309 383.595Z" fill="#263238"/>
<path d="M227.421 346.777H327.004V379.117H227.421C223.794 379.117 220.316 377.775 217.751 375.385C215.186 372.996 213.745 369.756 213.745 366.377V359.517C213.745 356.138 215.186 352.898 217.751 350.508C220.316 348.119 223.794 346.777 227.421 346.777Z" fill="#455A64"/>
<path d="M302.471 346.777H500.415C501.272 346.777 502.093 347.094 502.699 347.658C503.305 348.222 503.645 348.988 503.645 349.785V351.393C503.645 352.191 503.305 352.956 502.699 353.52C502.093 354.084 501.272 354.401 500.415 354.401H302.471V346.787V346.777Z" fill="#455A64"/>
<path d="M302.471 371.492H500.415C501.272 371.492 502.093 371.809 502.699 372.374C503.305 372.938 503.645 373.703 503.645 374.501V376.108C503.645 376.906 503.305 377.671 502.699 378.236C502.093 378.8 501.272 379.117 500.415 379.117H302.471V371.502V371.492Z" fill="#455A64"/>
<path d="M497.596 371.492H317.704C315.27 371.492 312.936 370.592 311.214 368.99C309.492 367.388 308.523 365.214 308.52 362.947C308.52 360.678 309.488 358.502 311.21 356.897C312.932 355.293 315.268 354.391 317.704 354.391H497.596C492.995 360.095 492.995 365.795 497.596 371.492Z" fill="#F5F5F5"/>
<path opacity="0.3" d="M308.468 379.107H227.464C225.654 379.107 223.863 378.775 222.191 378.13C220.52 377.484 219.001 376.539 217.722 375.346C216.444 374.154 215.43 372.739 214.738 371.181C214.047 369.624 213.691 367.954 213.693 366.269V359.879C213.691 358.159 214.054 356.456 214.76 354.866C215.465 353.276 216.5 351.832 217.806 350.615C219.111 349.398 220.661 348.433 222.367 347.774C224.073 347.116 225.901 346.777 227.748 346.777H310.34C292.509 353.872 293.845 370.855 308.468 379.107Z" fill="black"/>
<path d="M476.651 361.594C476.651 361.741 441.198 361.859 397.477 361.859C353.756 361.859 318.304 361.741 318.304 361.594C318.304 361.447 353.746 361.34 397.477 361.34C441.209 361.34 476.651 361.457 476.651 361.594Z" fill="#263238"/>
<path d="M492.946 366.22C492.946 366.367 457.494 366.485 413.773 366.485C370.052 366.485 334.599 366.367 334.599 366.22C334.599 366.073 370.041 365.955 413.773 365.955C457.504 365.955 492.946 366.053 492.946 366.22Z" fill="#263238"/>
<path d="M299.82 375.893C299.82 376.04 283.23 376.157 262.758 376.157C242.286 376.157 225.696 376.04 225.696 375.893C225.696 375.746 242.286 375.628 262.758 375.628C283.23 375.628 299.82 375.746 299.82 375.893Z" fill="#263238"/>
<path d="M299.82 350.589C299.82 350.736 283.23 350.844 262.758 350.844C242.286 350.844 225.696 350.736 225.696 350.589C225.696 350.442 242.286 350.324 262.758 350.324C283.23 350.324 299.82 350.442 299.82 350.589Z" fill="#263238"/>
<path d="M501.278 346.777C501.278 346.924 440.399 347.041 365.328 347.041C290.257 347.041 229.336 346.924 229.336 346.777C229.336 346.63 290.194 346.512 365.296 346.512C440.399 346.512 501.278 346.62 501.278 346.777Z" fill="#263238"/>
<path d="M392.112 317.847V335.409L398.645 331.508L405.925 335.409V317.847H392.112Z" fill="#676C74"/>
<path d="M458.504 143.534L425.608 169.063L375.574 261.144L406.766 274.276L455.432 183.969L458.504 143.534Z" fill="#676C74"/>
<g opacity="0.7">
<path d="M455.432 183.94C455.051 184.028 454.653 184.032 454.269 183.953C453.886 183.874 453.528 183.713 453.222 183.484C452.916 183.254 452.672 182.962 452.508 182.629C452.344 182.297 452.264 181.934 452.276 181.568C451.238 182.694 449.848 183.488 448.3 183.839C446.753 184.19 445.126 184.08 443.65 183.525C442.173 182.97 440.92 181.998 440.067 180.745C439.214 179.492 438.804 178.022 438.894 176.541C437.508 177.236 435.948 177.576 434.375 177.524C432.801 177.473 431.271 177.033 429.94 176.249C428.609 175.465 427.526 174.366 426.802 173.063C426.078 171.761 425.738 170.303 425.818 168.838L458.43 143.505L455.432 183.94Z" fill="white"/>
</g>
<path d="M445.27 153.805C445.27 153.805 445.774 161.429 457.241 160.096L458.504 143.534L445.27 153.805Z" fill="#676C74"/>
<path opacity="0.3" d="M438.936 176.57L390.702 267.015L375.574 261.135L425.608 169.015L425.86 168.819C425.785 170.047 426.015 171.274 426.533 172.405C427.224 173.891 428.346 175.167 429.773 176.09C431.526 177.205 433.653 177.689 435.759 177.452C436.867 177.341 437.944 177.042 438.936 176.57Z" fill="black"/>
<path opacity="0.3" d="M452.36 181.598L402.811 272.591L406.808 274.276L455.432 183.94C454.772 184.052 454.091 183.931 453.522 183.601C452.952 183.272 452.534 182.757 452.349 182.156C452.333 181.97 452.337 181.783 452.36 181.598Z" fill="black"/>
<path d="M438.684 167.789C438.581 167.902 438.522 168.043 438.516 168.191C438.517 168.405 438.604 168.611 438.76 168.769C438.916 168.926 439.128 169.024 439.357 169.044C440.104 169.075 440.841 168.882 441.461 168.495C441.854 168.281 442.166 167.959 442.356 167.574C442.46 167.365 442.506 167.135 442.49 166.906C442.473 166.676 442.394 166.454 442.261 166.261C442.087 166.06 441.87 165.896 441.623 165.78C441.377 165.663 441.106 165.597 440.83 165.584C440.222 165.535 439.609 165.568 439.01 165.682C437.671 165.89 436.392 166.354 435.255 167.045C434.951 167.219 434.69 167.451 434.491 167.727C434.291 168.002 434.157 168.314 434.097 168.642C434.082 168.985 434.157 169.326 434.316 169.636C434.476 169.945 434.715 170.213 435.013 170.416C435.704 170.786 436.468 171.023 437.259 171.114C438.05 171.205 438.853 171.148 439.62 170.945C441.143 170.647 442.547 169.964 443.681 168.972C444.815 167.98 445.634 166.716 446.048 165.32C446.119 165.011 446.112 164.691 446.028 164.385C445.944 164.079 445.785 163.795 445.564 163.556C445.118 163.111 444.562 162.775 443.944 162.576C442.833 162.197 441.665 161.978 440.483 161.929C438.759 161.844 437.034 162.084 435.412 162.635C434.844 162.831 434.36 163.017 434.118 163.144C433.876 163.272 433.677 163.34 433.677 163.34C434.214 163.022 434.785 162.757 435.381 162.546C437.007 161.967 438.743 161.703 440.483 161.772C441.689 161.81 442.881 162.022 444.018 162.399C444.667 162.608 445.253 162.961 445.722 163.428C445.969 163.694 446.148 164.008 446.243 164.349C446.338 164.689 446.347 165.045 446.269 165.388C445.726 167.207 444.524 168.795 442.867 169.883C441.211 170.971 439.201 171.491 437.18 171.357C436.351 171.317 435.553 171.058 434.876 170.612C434.537 170.394 434.264 170.1 434.08 169.758C433.896 169.415 433.808 169.035 433.824 168.652C433.889 168.294 434.035 167.953 434.253 167.653C434.47 167.352 434.755 167.098 435.086 166.907C436.253 166.203 437.564 165.732 438.937 165.526C439.557 165.417 440.191 165.391 440.82 165.447C441.119 165.464 441.41 165.54 441.675 165.67C441.94 165.8 442.172 165.981 442.356 166.202C442.501 166.418 442.586 166.666 442.603 166.921C442.619 167.176 442.567 167.431 442.45 167.662C442.246 168.072 441.912 168.414 441.493 168.642C440.853 169.026 440.096 169.209 439.336 169.161C439.09 169.139 438.862 169.031 438.698 168.858C438.534 168.685 438.446 168.461 438.453 168.23C438.505 167.868 438.684 167.78 438.684 167.789Z" fill="white"/>
<path d="M456.337 167.28C456.337 167.28 455.853 167.211 454.99 167.28C453.761 167.355 452.56 167.655 451.455 168.162C449.83 168.938 448.305 169.885 446.911 170.984C445.213 172.376 443.279 173.495 441.188 174.297C439.031 174.988 436.703 175.069 434.497 174.532C432.701 174.09 431.049 173.242 429.689 172.062C428.768 171.248 428.003 170.294 427.428 169.24C427.209 168.87 427.026 168.483 426.881 168.084C426.941 168.175 426.993 168.27 427.038 168.368C427.133 168.564 427.291 168.848 427.501 169.201C428.117 170.192 428.895 171.087 429.805 171.857C431.155 173.001 432.783 173.821 434.55 174.248C436.718 174.755 438.998 174.667 441.114 173.993C443.178 173.203 445.09 172.104 446.774 170.739C448.183 169.635 449.73 168.694 451.382 167.937C452.506 167.428 453.731 167.145 454.98 167.104C455.438 167.108 455.894 167.168 456.337 167.28Z" fill="white"/>
<path d="M456.147 176.462C455.544 175.893 454.741 175.545 453.885 175.482C451.806 175.465 449.737 175.75 447.752 176.325C445.74 176.83 443.782 177.506 441.903 178.344C441.177 178.667 440.609 178.952 440.209 179.138C440.013 179.254 439.805 179.353 439.589 179.432C439.772 179.298 439.965 179.177 440.167 179.069C440.546 178.854 441.114 178.54 441.829 178.207C443.698 177.317 445.662 176.614 447.689 176.11C448.803 175.825 449.934 175.603 451.076 175.443C452.01 175.284 452.962 175.248 453.906 175.335C454.551 175.4 455.163 175.63 455.674 176.002C455.855 176.133 456.014 176.288 456.147 176.462Z" fill="white"/>
<path d="M442.492 182.96C442.812 182.65 443.164 182.371 443.544 182.127C444.482 181.485 445.559 181.044 446.7 180.833C447.271 180.725 447.861 180.736 448.427 180.867C448.993 180.997 449.521 181.244 449.972 181.588C450.24 181.8 450.465 182.056 450.635 182.342C450.698 182.445 450.741 182.558 450.761 182.676C450.518 182.309 450.216 181.978 449.867 181.696C449.421 181.383 448.909 181.163 448.365 181.049C447.821 180.936 447.257 180.933 446.711 181.039C445.615 181.254 444.575 181.667 443.649 182.254C443.279 182.51 442.892 182.746 442.492 182.96Z" fill="white"/>
<path d="M457.199 161.743C457.152 161.791 457.099 161.834 457.041 161.87C456.936 161.939 456.778 162.047 456.558 162.174C456.301 162.343 456.012 162.463 455.705 162.527C455.292 162.595 454.866 162.572 454.464 162.458C453.57 162.272 452.57 161.851 451.445 161.478C450.224 161.092 448.972 160.8 447.7 160.606C445.369 160.291 443.016 160.144 440.662 160.165H438.558C438.295 160.19 438.031 160.19 437.769 160.165L438.558 160.106L440.662 160.038C443.026 159.968 445.392 160.096 447.731 160.42C449.021 160.61 450.289 160.912 451.518 161.321C452.655 161.694 453.622 162.125 454.506 162.301C454.836 162.412 455.188 162.452 455.536 162.416C455.885 162.38 456.22 162.271 456.515 162.096C456.737 161.968 456.965 161.85 457.199 161.743Z" fill="white"/>
<path d="M492.062 244.965V325.236C492.083 325.391 492.163 325.532 492.288 325.635C492.413 325.738 492.574 325.795 492.741 325.795C492.908 325.795 493.069 325.738 493.194 325.635C493.319 325.532 493.399 325.391 493.42 325.236V244.965C493.399 244.811 493.319 244.669 493.194 244.566C493.069 244.463 492.908 244.406 492.741 244.406C492.574 244.406 492.413 244.463 492.288 244.566C492.163 244.669 492.083 244.811 492.062 244.965Z" fill="#676C74"/>
<path d="M497.596 307.548C497.596 308.443 497.311 309.318 496.777 310.063C496.243 310.808 495.484 311.388 494.596 311.731C493.708 312.073 492.73 312.163 491.788 311.988C490.845 311.814 489.979 311.382 489.299 310.749C488.619 310.116 488.156 309.309 487.969 308.431C487.781 307.553 487.878 306.642 488.245 305.815C488.613 304.988 489.236 304.281 490.036 303.783C490.835 303.286 491.774 303.02 492.736 303.02C494.025 303.02 495.261 303.497 496.172 304.346C497.084 305.195 497.596 306.347 497.596 307.548Z" fill="#676C74"/>
<path d="M491.389 309.89C491.389 309.89 487.844 313.192 486.781 322.865C485.719 332.538 485.487 337.369 485.487 337.369L495.039 337.918V330.999C495.039 331.322 496.933 336.164 496.933 336.164L504.486 333.851C504.486 333.851 501.804 308.136 491.389 309.89Z" fill="#676C74"/>
<path d="M441.703 251.531H279.485V306.009H441.703V251.531Z" fill="#263238"/>
<path d="M498.679 242.162H221.214V251.54H498.679V242.162Z" fill="#263238"/>
<path opacity="0.3" d="M279.485 290.554C279.485 290.554 328.761 274.09 360.594 268.014C392.428 261.938 441.703 263.957 441.703 263.957V251.56H279.485V290.554Z" fill="black"/>
<path opacity="0.3" d="M321.575 242.162H221.214V251.54H321.575V242.162Z" fill="black"/>
<path d="M496.67 251.56C496.67 251.707 434.97 251.825 358.858 251.825C282.746 251.825 221.046 251.707 221.046 251.56C221.046 251.413 282.725 251.305 358.858 251.305C434.991 251.305 496.67 251.393 496.67 251.56Z" fill="#455A64"/>
<path d="M321.418 251.609C321.039 248.444 321.039 245.249 321.418 242.083C321.782 245.25 321.782 248.443 321.418 251.609Z" fill="#455A64"/>
<path d="M344.551 306.019C344.404 306.019 344.277 295.386 344.277 282.273C344.277 269.161 344.404 258.538 344.551 258.538C344.698 258.538 344.835 269.161 344.835 282.273C344.835 295.386 344.709 306.019 344.551 306.019Z" fill="#455A64"/>
<path d="M109.881 372.923L128.533 365.906L142.777 331.244L161.766 340.358C161.766 340.358 159.936 343.778 156.012 352.255C154.486 355.518 149.468 364.642 147.427 369.082C145.538 373.186 142.427 376.701 138.462 379.21C134.497 381.72 129.843 383.119 125.051 383.243L107.546 383.664L109.881 372.923Z" fill="#FFBF9D"/>
<path d="M100.613 366.22L97.8358 363.456C97.2961 363.127 96.661 362.959 96.0159 362.976L87.0949 363.231C86.2621 363.306 85.458 363.554 84.7423 363.958C84.0266 364.362 83.4177 364.911 82.9606 365.563L79.7099 370.708C79.7099 370.708 77.5322 374.227 77.8057 375.089C77.9275 375.447 78.1874 375.75 78.5352 375.94C78.8829 376.13 79.2939 376.194 79.6888 376.118C79.6888 376.118 80.0044 377.745 80.583 378.078C80.918 378.235 81.2836 378.327 81.6579 378.349C82.0321 378.371 82.4073 378.322 82.7607 378.205C82.9142 378.514 83.1638 378.773 83.4771 378.947C83.7904 379.122 84.1529 379.205 84.5175 379.185C84.674 379.172 84.8288 379.146 84.9804 379.107C86.0324 378.803 86.5163 376.892 86.5163 376.892L91.0399 376.118C91.0399 376.118 97.5413 380.165 99.8346 382.811C102.128 385.457 108.124 383.439 108.124 383.439L110.365 373.443L100.613 366.22Z" fill="#FFBF9D"/>
<path d="M94.0383 367.406C93.4037 367.589 92.7455 367.691 92.0816 367.71C90.8507 367.837 89.1149 367.886 87.1477 368.121L87.3581 367.974C87.0199 368.651 86.6333 369.306 86.2009 369.934C85.0129 371.69 83.5683 373.283 81.9087 374.668C81.2568 375.278 80.4993 375.781 79.668 376.157C79.668 376.089 80.457 375.501 81.6352 374.393C83.1823 372.961 84.5548 371.373 85.7275 369.66C86.1588 369.003 86.548 368.357 86.8742 367.7L86.9373 367.573H87.0846C89.0939 367.367 90.8297 367.386 92.0605 367.347C92.7202 367.303 93.383 367.323 94.0383 367.406Z" fill="#FF9A6C"/>
<path d="M94.2382 371.375C93.7117 371.614 93.1397 371.754 92.555 371.787C91.102 371.974 89.6253 371.927 88.1892 371.649L88.5153 371.483C88.3261 371.996 88.1083 372.5 87.863 372.992C87.0496 374.556 85.9086 375.952 84.5072 377.098C83.9601 377.603 83.3088 378 82.5925 378.264C83.1117 377.757 83.6595 377.276 84.2336 376.824C85.5305 375.649 86.5984 374.272 87.3896 372.757C87.6329 372.288 87.8472 371.807 88.0314 371.316L88.1155 371.101H88.347C90.2885 371.439 92.2701 371.531 94.2382 371.375Z" fill="#FF9A6C"/>
<path d="M105.579 373.423L97.615 369.973C96.5463 369.419 95.3625 369.085 94.1434 368.993C92.8395 369.1 91.5812 369.493 90.4719 370.14L86.1797 372.198C85.9483 372.316 85.6958 372.453 85.6222 372.678C85.5485 372.904 85.7484 373.296 85.9904 373.521C87.0983 374.497 88.5483 375.067 90.0722 375.125C91.5961 375.182 93.0909 374.724 94.2801 373.835C94.8613 375.601 95.7691 377.259 96.9627 378.735C97.5731 379.474 98.3778 380.055 99.2991 380.42C100.22 380.786 101.227 380.924 102.223 380.822" fill="#FFBF9D"/>
<path d="M102.202 380.92C102.135 380.951 102.064 380.97 101.991 380.979C101.778 381.028 101.559 381.054 101.339 381.057C100.503 381.06 99.6796 380.872 98.9404 380.509C97.7955 379.951 96.8244 379.127 96.121 378.117C95.248 376.821 94.5418 375.432 94.017 373.982L94.4168 374.07C93.7778 374.57 93.0388 374.947 92.2425 375.179C91.4462 375.411 90.6083 375.494 89.7775 375.422C88.8741 375.365 87.9932 375.135 87.1895 374.746C86.778 374.543 86.3932 374.297 86.0429 374.011C85.853 373.865 85.6803 373.701 85.5274 373.521C85.4282 373.409 85.357 373.278 85.3188 373.138C85.2806 372.997 85.2764 372.85 85.3065 372.708C85.3407 372.591 85.4004 372.482 85.4818 372.387C85.5633 372.293 85.6647 372.215 85.7799 372.159C85.9692 372.051 86.127 371.983 86.2953 371.894L87.2842 371.424L89.2304 370.444C90.4394 369.784 91.7284 369.261 93.0702 368.886C94.3584 368.67 95.6873 368.859 96.8469 369.425C97.8989 369.876 98.9509 370.326 99.7925 370.728L104.001 372.688C104.529 372.91 105.039 373.169 105.526 373.462C104.969 373.309 104.427 373.112 103.906 372.874L99.5926 371.101L96.626 369.866C95.5566 369.355 94.3343 369.193 93.1544 369.405C91.86 369.782 90.6173 370.299 89.4513 370.944L87.5157 371.924L86.5268 372.404C86.1901 372.561 85.8325 372.718 85.8114 372.874C85.7904 373.031 86.0534 373.413 86.3795 373.658C86.7007 373.918 87.0538 374.142 87.4315 374.325C88.1672 374.68 88.9723 374.893 89.7985 374.952C91.3355 375.091 92.8697 374.662 94.0696 373.756L94.3432 373.541L94.4589 373.854C94.9492 375.281 95.6091 376.651 96.4261 377.941C97.07 378.919 97.9671 379.731 99.0351 380.303C100.006 380.786 101.104 381 102.202 380.92Z" fill="#FF9A6C"/>
<path d="M209.138 276.325C209.211 270.758 210.19 265.211 209.916 259.665C209.643 254.118 208.117 248.306 203.951 244.318C199.785 240.329 192.516 238.82 187.677 242.005L186.625 246.748C188.539 268.21 188.287 290.015 190.202 311.477C190.454 314.3 192.905 316.857 194.283 319.376C195.661 321.895 198.428 323.982 201.458 323.806C205.424 323.58 208.022 319.837 209.253 316.309C213.777 303.559 208.959 289.78 209.138 276.325Z" fill="#263238"/>
<path d="M194.767 247.464C193.969 246.05 192.944 244.757 191.727 243.632C191.113 243.072 190.371 242.649 189.557 242.395C188.742 242.14 187.877 242.06 187.024 242.162C186.623 242.208 186.241 242.35 185.915 242.573C185.589 242.796 185.33 243.093 185.162 243.436C184.899 244.142 185.468 245.092 186.267 245.024L186.435 245.161C188.224 246.637 190.044 248.078 191.895 249.483C192.337 249.866 192.855 250.166 193.421 250.365C193.705 250.461 194.013 250.481 194.308 250.422C194.604 250.363 194.876 250.228 195.093 250.031C195.756 249.345 195.272 248.258 194.767 247.464Z" fill="#FF725E"/>
<path d="M198.144 252.932C192.19 246.15 184.195 242.24 174.79 242.152C169.53 242.064 167.289 243.132 163.47 244.053C159.646 244.913 156.267 246.994 153.918 249.933C151.214 253.51 148.942 257.518 148.427 261.879C147.753 266.335 147.524 270.84 147.743 275.335C147.964 279.852 149.522 284.224 152.245 287.967L164.491 289.927C171.255 290.143 178.114 290.348 184.71 288.947C191.306 287.546 197.702 284.204 201.226 278.824C206.129 271.297 204.088 259.704 198.144 252.932Z" fill="#263238"/>
<path d="M187.256 252.854L170.929 246.807L166.658 247.268C157.064 247.268 150.436 257.166 150.373 264.398C150.31 272.454 150.562 282.273 151.93 288.202C154.697 300.129 165.606 301.119 165.606 301.119C165.606 301.119 165.385 307.479 165.301 311.477L190.307 309.802L191.559 256.94C191.521 255.881 191.058 254.874 190.261 254.117C189.464 253.36 188.392 252.91 187.256 252.854Z" fill="#FFBF9D"/>
<path d="M171.129 285.409C171.028 284.8 170.691 284.245 170.182 283.851C169.719 283.479 169.137 283.26 168.527 283.226C167.917 283.193 167.312 283.347 166.805 283.665C166.279 284.043 165.87 284.544 165.621 285.117C165.371 285.691 165.29 286.316 165.385 286.928C165.666 287.296 166.028 287.603 166.447 287.83C166.867 288.056 167.333 288.197 167.815 288.241C167.966 288.251 168.117 288.251 168.267 288.241C169.048 288.257 169.803 287.986 170.371 287.487C170.657 287.216 170.873 286.888 171.005 286.529C171.136 286.169 171.178 285.786 171.129 285.409Z" fill="#FF9A6C"/>
<path d="M154.697 274.58C154.713 274.983 154.899 275.364 155.213 275.641C155.528 275.917 155.947 276.068 156.38 276.06C156.591 276.064 156.802 276.029 156.999 275.956C157.196 275.884 157.375 275.775 157.527 275.638C157.679 275.5 157.8 275.336 157.883 275.154C157.966 274.973 158.009 274.777 158.01 274.58C157.989 274.177 157.8 273.798 157.484 273.522C157.168 273.246 156.75 273.095 156.317 273.1C156.105 273.096 155.895 273.132 155.699 273.204C155.503 273.277 155.324 273.385 155.173 273.523C155.022 273.661 154.902 273.826 154.82 274.007C154.739 274.188 154.696 274.383 154.697 274.58Z" fill="#263238"/>
<path d="M153.297 268.426C153.508 268.612 154.718 267.691 156.453 267.603C158.189 267.515 159.609 268.279 159.778 268.063C159.946 267.848 159.63 267.613 159.041 267.26C158.24 266.802 157.307 266.586 156.369 266.642C155.443 266.685 154.555 267.001 153.834 267.544C153.35 267.965 153.182 268.338 153.297 268.426Z" fill="#263238"/>
<path d="M164.743 281.45C163.789 281.216 162.805 281.101 161.819 281.107C161.366 281.107 160.924 281.029 160.83 280.735C160.773 280.301 160.853 279.862 161.061 279.47C161.429 278.422 161.819 277.324 162.218 276.168C163.817 271.483 164.953 267.632 164.743 267.573C164.533 267.514 163.081 271.268 161.482 275.962L160.43 279.274C160.171 279.8 160.122 280.394 160.293 280.95C160.366 281.096 160.474 281.224 160.609 281.325C160.744 281.425 160.903 281.495 161.072 281.528C161.327 281.579 161.589 281.599 161.85 281.587C162.817 281.648 163.788 281.602 164.743 281.45Z" fill="#263238"/>
<path d="M165.585 301.109C171.671 300.884 177.571 299.09 182.627 295.925C182.627 295.925 178.514 304.5 165.521 304.039L165.585 301.109Z" fill="#FF9A6C"/>
<path d="M170.056 282.322C169.772 282.322 169.866 284.125 168.288 285.488C166.71 286.85 164.638 286.762 164.638 287.016C164.638 287.271 165.122 287.34 165.984 287.32C167.122 287.278 168.207 286.862 169.046 286.144C169.849 285.459 170.335 284.511 170.403 283.498C170.424 282.744 170.192 282.312 170.056 282.322Z" fill="#263238"/>
<path d="M153.897 262.614C154.223 262.997 155.57 262.663 157.169 262.703C158.768 262.742 160.114 263.065 160.451 262.703C160.598 262.516 160.398 262.134 159.82 261.723C159.037 261.249 158.123 261 157.19 261.007C156.257 260.984 155.336 261.212 154.539 261.664C153.96 262.036 153.76 262.418 153.897 262.614Z" fill="#263238"/>
<path d="M174.148 274.169C174.157 274.571 173.997 274.961 173.702 275.256C173.408 275.55 173.001 275.726 172.57 275.747C172.359 275.765 172.147 275.745 171.945 275.686C171.744 275.628 171.556 275.532 171.395 275.405C171.233 275.278 171.1 275.123 171.004 274.947C170.908 274.772 170.85 274.581 170.834 274.384C170.825 273.982 170.983 273.593 171.275 273.297C171.567 273.001 171.971 272.822 172.402 272.797C172.613 272.778 172.827 272.799 173.03 272.858C173.233 272.917 173.422 273.013 173.584 273.141C173.747 273.269 173.88 273.425 173.977 273.602C174.074 273.778 174.132 273.971 174.148 274.169Z" fill="#263238"/>
<path d="M177.409 267.779C177.209 267.985 175.936 267.142 174.148 267.171C172.36 267.201 171.076 268.063 170.876 267.857C170.676 267.652 170.982 267.407 171.55 267.005C172.31 266.494 173.222 266.217 174.159 266.211C175.087 266.192 175.997 266.449 176.757 266.946C177.315 267.328 177.514 267.691 177.409 267.779Z" fill="#263238"/>
<path d="M176.336 262.468C175.999 262.85 174.611 262.468 172.959 262.468C171.307 262.468 169.898 262.771 169.572 262.379C169.424 262.193 169.645 261.811 170.245 261.399C171.076 260.946 172.028 260.718 172.991 260.743C173.947 260.733 174.886 260.981 175.694 261.458C176.294 261.889 176.494 262.281 176.336 262.468Z" fill="#263238"/>
<path d="M189.36 277.148C189.36 276.256 190.296 274.09 191.243 273.904C193.757 273.404 198.333 273.355 198.733 279.353C199.28 287.555 190.317 286.37 190.317 286.134C190.317 285.899 189.518 280.245 189.36 277.148Z" fill="#FFBF9D"/>
<path d="M192.516 282.998C192.516 282.998 192.674 283.096 192.937 283.185C193.308 283.325 193.723 283.325 194.094 283.185C194.999 282.812 195.693 281.391 195.64 279.911C195.615 279.208 195.42 278.518 195.072 277.893C194.973 277.64 194.81 277.414 194.595 277.235C194.38 277.055 194.121 276.928 193.841 276.864C193.663 276.831 193.479 276.857 193.32 276.938C193.16 277.018 193.036 277.148 192.968 277.305C192.863 277.54 192.968 277.706 192.884 277.716C192.8 277.726 192.684 277.589 192.737 277.246C192.772 277.04 192.883 276.853 193.052 276.717C193.165 276.624 193.297 276.553 193.44 276.509C193.583 276.466 193.734 276.449 193.883 276.462C194.25 276.503 194.599 276.633 194.894 276.84C195.19 277.046 195.422 277.321 195.567 277.638C195.987 278.327 196.221 279.1 196.25 279.892C196.303 281.548 195.493 283.145 194.252 283.557C194.02 283.635 193.772 283.665 193.526 283.643C193.28 283.62 193.043 283.548 192.831 283.43C192.516 283.204 192.516 283.018 192.516 282.998Z" fill="#FF9A6C"/>
<path d="M191.58 273.924L189.36 276.06C179.703 267.446 160.83 245.886 161.892 247.17C166.294 245.645 171.037 245.177 175.684 245.807C182.869 246.944 196.482 250.296 196.272 258.185C196.061 266.074 191.58 273.924 191.58 273.924Z" fill="#263238"/>
<path d="M204.372 272.14C204.343 271.979 204.298 271.822 204.235 271.67C204.075 271.223 203.874 270.791 203.636 270.376C202.724 268.858 201.467 267.543 199.954 266.525C197.722 265.032 195.231 263.908 192.59 263.202C189.644 262.311 186.33 261.615 183.069 260.262C179.993 259.069 177.077 257.546 174.379 255.725C172.173 254.236 170.116 252.563 168.236 250.727C166.974 249.485 165.79 248.176 164.691 246.807L163.807 245.67C163.708 245.533 163.596 245.405 163.47 245.288C163.544 245.439 163.632 245.583 163.733 245.719C163.912 245.994 164.175 246.395 164.543 246.895C165.596 248.313 166.753 249.662 168.004 250.933C172.157 255.139 177.239 258.455 182.901 260.654C186.034 261.761 189.226 262.719 192.463 263.526C195.093 264.194 197.583 265.27 199.827 266.711C201.325 267.691 202.589 268.949 203.541 270.405C204.088 271.474 204.319 272.14 204.372 272.14Z" fill="#455A64"/>
<path d="M201.805 273.404C201.834 272.791 201.719 272.179 201.468 271.611C200.804 270.044 199.65 268.698 198.155 267.75C195.917 266.407 193.413 265.497 190.791 265.074C187.653 264.489 184.594 263.581 181.67 262.37C178.758 261.132 176.023 259.562 173.527 257.695C171.497 256.164 169.63 254.454 167.952 252.589C166.808 251.324 165.754 249.992 164.796 248.601L164.049 247.454C163.972 247.316 163.876 247.188 163.765 247.072C163.823 247.217 163.894 247.358 163.975 247.493L164.648 248.689C165.544 250.117 166.549 251.483 167.657 252.775C169.315 254.689 171.18 256.44 173.222 257.999C175.732 259.903 178.493 261.5 181.438 262.752C184.388 263.978 187.481 264.882 190.654 265.447C193.229 265.846 195.695 266.712 197.913 267.995C199.379 268.894 200.534 270.171 201.237 271.67C201.483 272.23 201.673 272.811 201.805 273.404Z" fill="#455A64"/>
<path d="M191.285 287.82C191.285 287.761 192.032 287.673 193.337 287.35C195.166 286.858 196.85 285.983 198.26 284.792C200.326 282.99 201.896 280.752 202.836 278.265C204.038 275.235 204.685 272.038 204.751 268.808C204.791 267.139 204.646 265.471 204.319 263.83C203.437 259.702 201.355 255.878 198.302 252.775C196.507 250.999 194.526 249.394 192.39 247.983C192.39 247.983 192.569 248.042 192.884 248.218C193.2 248.395 193.652 248.63 194.21 249.002C195.808 250.024 197.282 251.203 198.607 252.521C200.591 254.473 202.197 256.731 203.352 259.194C204.021 260.656 204.532 262.176 204.877 263.732C205.215 265.408 205.367 267.113 205.329 268.818C205.266 272.109 204.594 275.364 203.341 278.442C202.345 280.986 200.695 283.264 198.533 285.076C197.058 286.271 195.298 287.121 193.4 287.556C192.883 287.665 192.36 287.743 191.832 287.791C191.651 287.814 191.468 287.824 191.285 287.82Z" fill="#455A64"/>
<path d="M202.489 388.672L150.436 395.718C130.879 400.873 110.281 402.382 88.7466 400.618L167.089 434.663L198.544 435.114C198.544 435.114 208.117 435.114 209.79 427.333C211.462 419.552 213.324 395.855 213.324 395.855C213.324 395.855 207.107 390.838 202.489 388.672Z" fill="#263238"/>
<g opacity="0.3">
<path d="M202.331 409.085C203.192 413.942 203.502 418.869 203.257 423.785C204.856 422.15 206.033 420.197 206.701 418.075C207.368 415.952 207.507 413.715 207.107 411.535C206.655 409.144 205.582 406.508 206.928 404.42C207.833 403.019 210.221 401.412 209.874 399.814C209.874 399.814 207.77 399.814 205.887 399.746C204.361 399.687 201.195 399.599 201.195 399.599C202.557 402.647 202.852 406.019 202.036 409.232" fill="black"/>
</g>
<path d="M165.385 309.478L190.675 306.93L195.304 310.85L177.251 320.748L169.288 324.59L161.419 322.365L158.926 317.994L165.385 309.478Z" fill="#FFBF9D"/>
<path d="M131.29 338.163C131.29 338.163 139.222 323.992 141.178 320.895C144.524 315.613 150.773 312.624 150.773 312.624L165.385 309.478C165.385 309.478 163.87 316.338 172.959 316.769C184.531 317.367 191.716 307.038 191.716 307.038C191.716 307.038 204.909 308.302 208.548 309.723C212.188 311.144 222.498 315.172 224.013 327.931L227.548 348.776L199.67 350.736L200.048 378.49L188.203 387.515C188.203 387.515 154.192 398.423 152.014 399.138C150.962 399.481 151.235 386.016 148.805 374.472L144.219 364.093C142.362 359.948 141.263 355.543 140.968 351.059C140.789 348.119 140.873 345.865 140.873 345.865C140.873 345.865 133.72 343.582 131.29 338.163Z" fill="#455A64"/>
<path d="M153.255 388.26L199.996 375.197L199.669 350.756L223.466 349.07C223.466 349.07 221.572 361.732 221.288 368.219C220.888 377.559 216.028 390.612 212.872 393.376C209.716 396.139 152.045 399.158 152.045 399.158L153.255 388.26Z" fill="#FFBF9D"/>
<path d="M126.745 395.944C126.97 396.303 127.328 396.574 127.752 396.705C128.176 396.837 128.637 396.82 129.049 396.659C130.101 396.267 129.817 394.287 129.817 394.287L134.793 393.151C134.793 393.151 141.662 396.62 144.261 399.031C146.859 401.441 152.571 398.923 152.571 398.923L153.76 388.76L143.84 381.616C143.84 381.616 144.45 382.047 143.682 380.636C142.914 379.225 140.053 379.989 140.053 379.989C139.548 379.293 137.623 379.176 137.623 379.176L129.554 380.636C128.735 380.784 127.962 381.102 127.292 381.565C126.622 382.028 126.072 382.624 125.682 383.311L122.663 388.633C122.663 388.633 121.148 392.416 121.516 393.249C121.675 393.593 121.964 393.872 122.329 394.031C122.694 394.19 123.108 394.218 123.494 394.111C123.494 394.111 124.094 396.483 124.778 396.512C125.469 396.432 126.136 396.229 126.745 395.914V395.944Z" fill="#FFBF9D"/>
<path d="M143.461 387.516C143.461 387.594 142.409 387.574 140.642 387.77C138.391 388.038 136.19 388.588 134.098 389.407C132.95 389.864 131.842 390.405 130.785 391.024C129.848 391.602 128.859 392.102 128.596 392.798C128.54 392.947 128.525 393.108 128.555 393.264C128.584 393.421 128.657 393.567 128.765 393.69C128.931 393.893 129.158 394.046 129.417 394.131C129.859 394.258 130.122 394.131 130.143 394.131C130.164 394.131 129.901 394.356 129.364 394.268C129.047 394.202 128.76 394.044 128.544 393.817C128.389 393.662 128.28 393.472 128.229 393.265C128.177 393.059 128.184 392.844 128.249 392.641C128.429 392.184 128.751 391.788 129.175 391.504C129.596 391.2 130.038 390.897 130.532 390.593C133.546 388.754 137.008 387.652 140.6 387.388C141.555 387.286 142.521 387.329 143.461 387.516Z" fill="#FF9A6C"/>
<path d="M144.439 392.308C144.439 392.445 141.115 392.562 137.075 393.072C133.036 393.582 129.796 394.287 129.711 394.15C130.379 393.851 131.087 393.637 131.815 393.513C133.52 393.114 135.248 392.806 136.991 392.592C138.735 392.371 140.492 392.244 142.251 392.21C142.982 392.149 143.718 392.182 144.439 392.308Z" fill="#FF9A6C"/>
<path d="M126.776 395.747C126.691 395.489 126.635 395.223 126.608 394.954C126.5 394.216 126.436 393.473 126.419 392.729C126.409 392.211 126.445 391.693 126.524 391.181C126.621 390.577 126.847 389.997 127.187 389.475C127.886 388.267 128.838 387.201 129.985 386.339C131.12 385.475 132.381 384.766 133.73 384.232C134.849 383.846 136.015 383.592 137.202 383.478C138.254 383.37 139.011 383.341 139.579 383.311C139.869 383.272 140.163 383.272 140.452 383.311C139.412 383.533 138.358 383.697 137.296 383.801C136.152 383.958 135.029 384.234 133.951 384.624C132.657 385.163 131.446 385.862 130.353 386.702C129.263 387.519 128.343 388.515 127.639 389.642C127.077 390.571 126.797 391.624 126.829 392.69C126.745 394.581 126.892 395.747 126.776 395.747Z" fill="#FF9A6C"/>
<path d="M137.391 381.155C137.391 381.234 136.181 381.351 134.235 381.694C132.289 382.037 129.396 382.439 127.923 384.967C126.42 386.885 125.206 388.985 124.315 391.21C124.037 392.155 123.857 393.124 123.778 394.101C123.68 393.844 123.64 393.57 123.662 393.297C123.643 392.559 123.743 391.823 123.957 391.112C124.758 388.809 125.951 386.642 127.492 384.693C127.901 384.103 128.393 383.565 128.954 383.096C129.495 382.663 130.12 382.33 130.795 382.116C131.901 381.758 133.043 381.506 134.203 381.361C135.253 381.169 136.323 381.099 137.391 381.155Z" fill="#FF9A6C"/>
<path d="M142.304 397.58C142.122 397.491 141.949 397.386 141.788 397.266L140.347 396.355C138.531 395.241 136.648 394.223 134.708 393.307H134.824L129.859 394.473L130.016 394.258C130.064 394.642 130.064 395.03 130.016 395.414C129.985 395.838 129.821 396.244 129.543 396.58C129.371 396.75 129.147 396.866 128.901 396.914C128.675 396.987 128.435 397.017 128.197 397.002C127.703 396.969 127.237 396.775 126.882 396.453C126.795 396.369 126.715 396.281 126.64 396.188V396.12L126.934 396.198L126.776 396.267C126.572 396.367 126.361 396.455 126.145 396.531C125.925 396.612 125.7 396.68 125.472 396.737C125.352 396.77 125.228 396.793 125.104 396.806C124.944 396.83 124.78 396.813 124.63 396.757C124.39 396.615 124.2 396.411 124.083 396.169C123.967 395.966 123.865 395.757 123.778 395.542C123.601 395.117 123.457 394.682 123.347 394.238L123.652 394.405C123.317 394.501 122.959 394.508 122.62 394.427C122.28 394.346 121.971 394.179 121.727 393.944C121.473 393.694 121.323 393.367 121.306 393.023C121.305 392.714 121.337 392.405 121.401 392.102C121.682 390.922 122.055 389.763 122.516 388.633L124.125 385.791L125.177 383.997C125.489 383.377 125.87 382.789 126.313 382.243C126.796 381.718 127.386 381.288 128.049 380.979C128.696 380.702 129.384 380.517 130.09 380.43L137.686 379.068H137.749C138.216 379.101 138.678 379.18 139.127 379.303C139.604 379.401 140.035 379.638 140.358 379.979L140.063 379.92C140.464 379.714 140.912 379.601 141.37 379.59C141.828 379.58 142.282 379.673 142.693 379.862C143.404 380.28 143.921 380.93 144.145 381.684L144.071 381.596L150.909 386.496L152.75 387.849C152.972 387.999 153.18 388.166 153.371 388.348C153.129 388.232 152.9 388.094 152.687 387.937L150.783 386.653L143.84 381.89H143.787V381.822C143.591 381.165 143.137 380.602 142.514 380.244C142.167 380.089 141.785 380.014 141.401 380.026C141.016 380.038 140.64 380.136 140.305 380.312L140.126 380.391L140.01 380.254C139.743 379.995 139.399 379.818 139.022 379.744C138.602 379.636 138.172 379.567 137.738 379.538H137.801L130.206 380.93C129.543 381.01 128.897 381.185 128.291 381.449C127.694 381.725 127.164 382.112 126.734 382.586C126.32 383.108 125.967 383.67 125.682 384.262L124.63 386.055C124.073 387.035 123.578 388.015 123.021 388.897C122.587 390.004 122.235 391.137 121.969 392.288C121.908 392.556 121.876 392.828 121.874 393.101C121.888 393.337 121.993 393.559 122.169 393.729C122.349 393.897 122.576 394.017 122.824 394.076C123.072 394.135 123.333 394.13 123.578 394.062L123.831 394.003V394.228C123.946 394.65 124.083 395.081 124.241 395.483C124.356 395.851 124.566 396.187 124.851 396.463C124.92 396.482 124.993 396.482 125.062 396.463L125.367 396.404C125.579 396.36 125.787 396.298 125.987 396.218C126.187 396.149 126.387 396.061 126.587 395.973L126.734 395.914L127.039 395.992V396.041C127.097 396.118 127.16 396.19 127.229 396.257C127.425 396.452 127.676 396.59 127.954 396.656C128.232 396.722 128.524 396.713 128.796 396.629C128.964 396.603 129.119 396.527 129.238 396.414C129.609 395.823 129.746 395.13 129.627 394.454V394.277H129.796L134.782 393.18H134.845C136.784 394.12 138.65 395.184 140.431 396.365C141.052 396.786 141.483 397.119 141.83 397.345C141.994 397.413 142.152 397.491 142.304 397.58Z" fill="#FF9A6C"/>
<path d="M118.003 403.872C118.003 403.872 85.0226 394.219 74.6709 391.132C56.7869 385.742 45.1517 391.19 41.4697 397.129C36.6937 404.842 48.1499 419.885 52.5683 423.344C65.6447 433.585 88.0628 434.967 88.0628 434.967L168.667 434.83L145.176 405.057L118.003 403.872Z" fill="#263238"/>
<path d="M122.947 417.807C109.515 419.264 95.9065 417.538 83.3815 412.79C81.2446 411.89 79.0443 411.127 76.7959 410.506C74.5733 409.984 72.2691 409.832 69.9895 410.056C69.0848 410.077 68.1939 410.268 67.3699 410.616C66.5458 410.965 65.8053 411.464 65.1924 412.084C63.5828 414.044 64.4034 416.867 65.2976 419.199C66.3496 421.943 67.4016 424.746 69.5056 426.941C71.8936 429.499 75.3652 430.969 78.8473 431.988C85.6538 433.948 92.8389 434.565 99.9715 434.82L124.462 433.576L122.947 417.807Z" fill="#E0E0E0"/>
<path d="M75.6492 410.516C75.8101 410.7 75.9348 410.909 76.0174 411.133C76.3018 411.718 76.5204 412.329 76.6696 412.956C77.1984 415.042 77.1055 417.222 76.401 419.262C75.6964 421.302 74.407 423.123 72.672 424.53C72.1555 424.952 71.5992 425.329 71.0099 425.657C70.5785 425.882 70.3366 425.981 70.3155 425.951C70.2945 425.922 71.1992 425.383 72.4195 424.275C74.0206 422.849 75.2142 421.073 75.8921 419.109C76.57 417.144 76.7107 415.053 76.3014 413.025C76.0069 411.457 75.565 410.546 75.6492 410.516Z" fill="#263238"/>
<path d="M202.184 401.99C200.269 396.933 199.954 389.505 188.14 385.938C176.326 382.37 167.405 389.211 161.335 391.582C155.265 393.954 122.095 410.908 122.095 410.908C122.095 410.908 115.846 421.286 117.624 425.873C119.402 430.459 127.481 434.987 127.481 434.987H164.585C174.158 434.987 191.937 434.683 191.937 434.683C194.318 431.048 196.45 427.277 198.323 423.393L198.639 421.904C198.67 420.718 204.088 407.047 202.184 401.99Z" fill="#263238"/>
<path d="M181.628 428.244C181.58 428.42 181.486 428.581 181.354 428.715C180.994 429.103 180.585 429.449 180.134 429.744C178.477 430.808 176.716 431.723 174.874 432.478C173.616 433.024 172.323 433.499 171.002 433.899C169.474 434.347 167.908 434.675 166.321 434.879C162.7 435.215 159.06 435.346 155.422 435.271C147.711 435.388 140.694 435.663 135.645 435.604C133.109 435.604 131.058 435.496 129.648 435.359C129.105 435.315 128.564 435.243 128.028 435.143C127.839 435.122 127.652 435.083 127.471 435.026C127.471 434.977 128.249 435.104 129.659 435.173C131.069 435.241 133.12 435.29 135.645 435.271C140.705 435.271 147.69 434.908 155.422 434.791C159.042 434.864 162.663 434.746 166.268 434.438C167.827 434.26 169.368 433.965 170.876 433.556C172.188 433.179 173.474 432.727 174.727 432.203C176.556 431.487 178.316 430.624 179.987 429.626C180.441 429.343 180.861 429.014 181.238 428.646C181.533 428.411 181.596 428.234 181.628 428.244Z" fill="#263238"/>
<path d="M127.481 434.987L126.987 434.742C126.671 434.575 126.208 434.301 125.609 433.938C123.864 432.877 122.23 431.667 120.728 430.322C119.639 429.35 118.711 428.234 117.971 427.01C117.216 425.477 117.024 423.754 117.424 422.11C118.326 418.17 119.84 414.373 121.916 410.84V410.791C127.997 407.674 134.972 404.136 142.588 400.324C146.396 398.423 150.362 396.453 154.486 394.444C156.59 393.464 158.694 392.484 160.798 391.504C162.902 390.524 165.059 389.544 167.236 388.486C170.245 386.95 173.472 385.818 176.82 385.124C178.465 384.819 180.14 384.677 181.817 384.703C183.458 384.749 185.088 384.966 186.677 385.35C189.758 386.057 192.651 387.344 195.178 389.133C196.352 390.039 197.392 391.087 198.27 392.249C199.078 393.394 199.745 394.62 200.259 395.904C200.785 397.159 201.153 398.423 201.532 399.658C201.966 400.857 202.317 402.082 202.584 403.323C202.749 405.694 202.536 408.075 201.952 410.389C201.479 412.594 200.9 414.652 200.301 416.563C200.006 417.543 199.712 418.454 199.438 419.346C199.165 420.238 198.849 421.12 198.702 421.904C198.576 422.462 198.481 422.884 198.376 423.383C197.362 426.412 195.93 429.304 194.115 431.988C193.472 432.947 192.713 433.835 191.853 434.634L191.99 434.458C192.106 434.33 192.253 434.173 192.432 433.958C192.989 433.305 193.509 432.624 193.989 431.919C195.741 429.22 197.123 426.326 198.102 423.305C198.702 422.835 198.586 422.374 198.407 421.816C198.591 420.921 198.83 420.038 199.123 419.17L199.975 416.396C200.543 414.436 201.111 412.417 201.574 410.232C202.134 407.955 202.333 405.614 202.163 403.284C201.886 402.067 201.535 400.866 201.111 399.687C200.722 398.452 200.343 397.198 199.827 395.973C199.325 394.719 198.672 393.523 197.881 392.406C197.028 391.282 196.016 390.27 194.872 389.397C191.089 386.756 186.531 385.251 181.807 385.085C180.168 385.06 178.531 385.201 176.925 385.507C173.616 386.19 170.428 387.309 167.457 388.829C165.353 389.809 163.249 390.985 160.988 391.857C158.726 392.729 156.78 393.768 154.676 394.797C150.562 396.757 146.586 398.717 142.777 400.677L122.074 411.075L122.148 410.996C120.077 414.489 118.557 418.242 117.635 422.139C117.22 423.728 117.386 425.401 118.108 426.892C118.816 428.105 119.717 429.212 120.78 430.175C122.255 431.53 123.857 432.76 125.567 433.85L126.913 434.693C127.292 434.879 127.481 434.987 127.481 434.987Z" fill="#263238"/>
<path d="M187.866 422.158C187.866 422.158 198.922 423.393 197.944 428.43C196.966 433.468 193.347 435.163 193.347 435.163L163.302 435.222C163.302 435.222 181.238 434.065 187.866 422.158Z" fill="#E0E0E0"/>
<path d="M188.939 419.718C188.937 420.209 188.822 420.693 188.602 421.139C188.195 422.266 187.591 423.322 186.814 424.265C185.766 425.64 184.301 426.691 182.606 427.284C184.001 426.309 185.281 425.198 186.425 423.971C187.389 422.622 188.23 421.199 188.939 419.718Z" fill="#263238"/>
<path d="M185.152 421.688C185.17 422.952 184.805 424.195 184.1 425.275C183.56 426.42 182.734 427.428 181.691 428.215C181.575 428.127 182.659 426.823 183.637 425.03C184.615 423.237 184.963 421.669 185.152 421.688Z" fill="#263238"/>
<path d="M199.207 433.762C199.123 433.762 199.838 432.448 200.701 430.283C202.965 424.627 203.713 418.541 202.878 412.554C202.552 410.271 202.173 408.87 202.257 408.85C202.424 409.16 202.544 409.49 202.615 409.83C202.875 410.717 203.082 411.617 203.236 412.525C204.289 418.564 203.531 424.756 201.048 430.42C200.673 431.255 200.248 432.069 199.775 432.86C199.624 433.181 199.434 433.483 199.207 433.762Z" fill="#455A64"/>
<g opacity="0.3">
<path d="M192.958 419.444C192.873 418.768 192.589 417.964 191.906 417.827C191.022 417.66 190.422 418.601 190.075 419.366C186.204 427.568 173.696 433.968 164.112 434.82C168.76 434.811 173.4 434.457 177.988 433.762C181.9 433.216 185.568 431.653 188.571 429.254C190.064 428.044 191.236 426.529 191.997 424.827C192.758 423.126 193.087 421.283 192.958 419.444Z" fill="black"/>
</g>
<path d="M119.76 408.282C117.927 407.802 116.146 407.169 114.436 406.39C112.66 405.763 110.948 404.986 109.324 404.068C111.153 404.55 112.935 405.179 114.647 405.949C116.424 406.579 118.136 407.36 119.76 408.282Z" fill="#263238"/>
<g opacity="0.2">
<path d="M130.448 403.95C116.141 401.402 101.781 399.138 87.3686 397.159L76.6382 400.314C79.6469 405.528 85.5907 408.85 91.7659 410.222C97.9412 411.594 104.39 411.271 110.702 410.732C117.666 410.134 124.82 409.222 130.879 405.969C131.342 405.724 131.868 405.351 131.805 404.852C131.742 404.352 131.069 404.058 130.448 403.95Z" fill="black"/>
</g>
<path d="M60.0271 364.26L78.0584 401.402C78.4231 402.159 79.0136 402.802 79.7596 403.256C80.5055 403.709 81.3756 403.954 82.2664 403.96L134.866 404.597L141.494 401.275L131.111 400.569L114.952 364.446C114.7 363.884 114.277 363.403 113.735 363.064C113.192 362.724 112.555 362.54 111.901 362.535L61.5209 362.182C61.2522 362.173 60.9854 362.228 60.7459 362.342C60.5064 362.456 60.3021 362.625 60.1524 362.833C60.0028 363.041 59.9127 363.282 59.8908 363.531C59.8688 363.781 59.9157 364.032 60.0271 364.26Z" fill="#E0E0E0"/>
<path d="M60.027 364.26C59.941 364.122 59.8872 363.968 59.8692 363.809C59.8359 363.574 59.8634 363.335 59.9494 363.111C60.0354 362.888 60.1774 362.687 60.3636 362.525C60.6512 362.277 61.0238 362.131 61.4156 362.114H66.0339L87.1265 362.182L101.791 362.251L109.986 362.3H112.09C112.87 362.352 113.609 362.642 114.194 363.123C114.759 363.616 115.176 364.238 115.404 364.926L116.267 366.886C120.864 377.147 125.945 388.495 131.332 400.491L131.079 400.324L141.105 401.01H141.462L142.514 401.079L141.62 401.529L134.993 404.852H134.919H134.845L94.9744 404.342L86.0745 404.224C84.6227 404.224 83.2341 404.224 81.7929 404.146C81.073 404.067 80.3806 403.841 79.7644 403.486C79.1482 403.13 78.6233 402.653 78.2266 402.088C75.8806 397.492 73.9239 393.268 72.0198 389.348L63.204 370.983C62.152 368.837 61.3946 367.161 60.8475 365.995C60.5845 365.446 60.3952 365.015 60.2479 364.701C60.1006 364.387 60.0585 364.25 60.0585 364.25C60.1484 364.389 60.2292 364.533 60.3005 364.681L60.9527 365.955C61.5208 367.102 62.3414 368.768 63.4039 370.855L72.388 389.162C74.2921 393.013 76.333 397.345 78.6263 401.814C78.9833 402.323 79.4572 402.753 80.0138 403.071C80.5705 403.39 81.1961 403.59 81.8455 403.656C83.192 403.715 84.6543 403.705 86.0535 403.725L94.9534 403.823L134.824 404.273H134.677L141.305 400.941L141.431 401.461H141.073L131.048 400.785H130.869L130.795 400.638C125.44 388.623 120.37 377.274 115.783 367.004L114.931 365.093C114.743 364.47 114.38 363.905 113.879 363.456C113.379 363.036 112.742 362.784 112.069 362.741H109.965L101.77 362.672L87.116 362.535L66.0023 362.3H62.6991H61.3946C61.1862 362.307 60.9816 362.354 60.7932 362.437C60.6048 362.52 60.4366 362.638 60.2988 362.784C60.161 362.93 60.0565 363.1 59.9917 363.285C59.9268 363.47 59.9031 363.665 59.9218 363.858C59.9489 363.994 59.984 364.128 60.027 364.26Z" fill="#263238"/>
<path d="M129.522 404.528C129.424 404.401 129.343 404.262 129.28 404.117L128.681 402.921C128.155 401.804 127.439 400.295 126.577 398.472C124.82 394.699 122.432 389.485 119.865 383.684C117.298 377.882 115.026 372.619 113.458 368.788C112.669 366.828 112.048 365.309 111.649 364.221C111.459 363.721 111.312 363.309 111.186 362.966C111.127 362.821 111.085 362.67 111.06 362.516C111.156 362.643 111.234 362.781 111.291 362.927L111.838 364.152C112.332 365.289 112.995 366.808 113.795 368.66C115.499 372.521 117.803 377.735 120.338 383.507C122.874 389.279 125.209 394.473 126.913 398.335L128.88 402.843C129.08 403.342 129.249 403.744 129.385 404.077C129.458 404.219 129.505 404.372 129.522 404.528Z" fill="#263238"/>
<path d="M96.9102 382.263C96.9123 382.74 96.762 383.208 96.4784 383.606C96.1949 384.004 95.7908 384.314 95.3175 384.498C94.8442 384.681 94.323 384.73 93.82 384.637C93.317 384.545 92.8549 384.315 92.4924 383.977C92.1298 383.639 91.8831 383.209 91.7836 382.74C91.6841 382.272 91.7362 381.786 91.9334 381.345C92.1306 380.904 92.4639 380.528 92.8911 380.264C93.3183 380 93.8201 379.86 94.3328 379.862C95.0164 379.862 95.6719 380.115 96.1553 380.565C96.6386 381.015 96.9102 381.626 96.9102 382.263Z" fill="white"/>
<path d="M148.09 322.512C148.174 322.512 147.417 323.874 146.354 326.069C143.573 331.8 141.756 337.895 140.968 344.141C140.652 346.542 140.568 348.061 140.473 348.061C140.417 347.71 140.417 347.353 140.473 347.002C140.473 346.326 140.473 345.346 140.621 344.131C141.215 337.806 143.063 331.639 146.07 325.942C146.649 324.854 147.122 323.982 147.532 323.414C147.678 323.093 147.866 322.79 148.09 322.512Z" fill="#263238"/>
<path d="M227.547 348.776C227.36 348.83 227.165 348.859 226.969 348.864L225.296 349.011L219.047 349.501L197.681 351.001H197.408V350.746C197.229 348.1 197.039 345.307 196.85 342.445C196.545 337.447 196.282 332.645 196.198 328.343C195.926 324.468 196.873 320.602 198.922 317.22C200.33 314.939 202.406 313.08 204.908 311.86C205.584 311.544 206.288 311.285 207.012 311.085C207.264 311.012 207.521 310.953 207.78 310.909C207.78 310.987 206.728 311.193 204.993 312.036C202.58 313.298 200.589 315.157 199.238 317.406C197.289 320.754 196.416 324.555 196.724 328.353C196.829 332.675 197.103 337.438 197.408 342.436C197.597 345.297 197.776 348.09 197.955 350.726L197.66 350.491L219.047 349.178L225.359 348.835L227.032 348.776H227.547Z" fill="#263238"/>
<path d="M175.126 365.75C174.802 365.691 174.49 365.585 174.201 365.436C173.839 365.295 173.487 365.131 173.149 364.946C172.695 364.719 172.256 364.467 171.834 364.191C170.714 363.488 169.681 362.673 168.751 361.761C167.626 360.631 166.639 359.388 165.806 358.057C165.002 356.71 164.363 355.283 163.901 353.803C163.535 352.595 163.309 351.353 163.228 350.099C163.197 349.619 163.197 349.138 163.228 348.658C163.23 348.294 163.258 347.931 163.312 347.571C163.322 347.259 163.386 346.951 163.502 346.659C163.607 346.659 163.428 347.982 163.649 350.07C163.781 351.289 164.038 352.493 164.417 353.666C164.901 355.101 165.539 356.486 166.321 357.802C167.127 359.099 168.075 360.314 169.151 361.428C170.046 362.33 171.028 363.154 172.086 363.888C173.874 365.132 175.179 365.661 175.126 365.75Z" fill="#263238"/>
</svg>
