<svg width="52" height="30" viewBox="0 0 52 30" fill="none" xmlns="http://www.w3.org/2000/svg">
<path d="M1.8009 28.3286C2.51465 29.0453 3.48257 29.4479 4.49181 29.4479C5.50106 29.4479 6.46898 29.0453 7.18273 28.3286L26.0229 9.40634L44.8632 28.3286C45.581 29.025 46.5424 29.4103 47.5404 29.4016C48.5383 29.3928 49.4929 28.9908 50.1986 28.2821C50.9043 27.5733 51.3046 26.6145 51.3133 25.6122C51.3219 24.6099 50.9383 23.6443 50.245 22.9234L28.7139 1.29843C28.0001 0.581786 27.0322 0.179199 26.0229 0.179199C25.0137 0.179199 24.0458 0.581786 23.332 1.29843L1.8009 22.9234C1.08736 23.6402 0.686523 24.6124 0.686523 25.626C0.686523 26.6396 1.08736 27.6118 1.8009 28.3286Z" fill="#F5F5F5"/>
</svg>
