<svg width="36" height="36" viewBox="0 0 36 36" fill="none" xmlns="http://www.w3.org/2000/svg">
<path d="M1.5 0C1.10218 0 0.720645 0.158036 0.43934 0.43934C0.158036 0.720645 0 1.10218 0 1.5C0 1.89782 0.158036 2.27936 0.43934 2.56066C0.720645 2.84196 1.10218 3 1.5 3H2.238C2.56371 3.00056 2.88039 3.10713 3.14018 3.3036C3.39997 3.50006 3.58876 3.77575 3.678 4.089L8.436 20.739C8.70511 21.6786 9.27282 22.5051 10.0533 23.0934C10.8338 23.6817 11.7846 24 12.762 24H26.469C27.3685 24.0002 28.2475 23.7307 28.9924 23.2264C29.7373 22.7222 30.314 22.0062 30.648 21.171L35.07 10.113C35.2518 9.65798 35.3194 9.16535 35.2668 8.67819C35.2142 8.19103 35.0431 7.72415 34.7685 7.31838C34.4938 6.9126 34.124 6.58028 33.6912 6.35046C33.2584 6.12063 32.776 6.00031 32.286 6H7.344L6.561 3.264C6.29258 2.32432 5.72555 1.49756 4.94562 0.908689C4.16569 0.319821 3.21527 0.000853104 2.238 0H1.5ZM13.5 36C14.0909 36 14.6761 35.8836 15.2221 35.6575C15.768 35.4313 16.2641 35.0998 16.682 34.682C17.0998 34.2641 17.4313 33.768 17.6575 33.2221C17.8836 32.6761 18 32.091 18 31.5C18 30.9091 17.8836 30.3239 17.6575 29.7779C17.4313 29.232 17.0998 28.7359 16.682 28.318C16.2641 27.9002 15.768 27.5687 15.2221 27.3425C14.6761 27.1164 14.0909 27 13.5 27C12.3065 27 11.1619 27.4741 10.318 28.318C9.4741 29.1619 9 30.3065 9 31.5C9 32.6935 9.4741 33.8381 10.318 34.682C11.1619 35.5259 12.3065 36 13.5 36ZM25.5 36C26.0909 36 26.6761 35.8836 27.2221 35.6575C27.768 35.4313 28.2641 35.0998 28.682 34.682C29.0998 34.2641 29.4313 33.768 29.6575 33.2221C29.8836 32.6761 30 32.091 30 31.5C30 30.9091 29.8836 30.3239 29.6575 29.7779C29.4313 29.232 29.0998 28.7359 28.682 28.318C28.2641 27.9002 27.768 27.5687 27.2221 27.3425C26.6761 27.1164 26.0909 27 25.5 27C24.3065 27 23.1619 27.4741 22.318 28.318C21.4741 29.1619 21 30.3065 21 31.5C21 32.6935 21.4741 33.8381 22.318 34.682C23.1619 35.5259 24.3065 36 25.5 36Z" fill="#1E1E1E"/>
</svg>
