<svg width="104" height="82" viewBox="0 0 104 82" fill="none" xmlns="http://www.w3.org/2000/svg">
<path fill-rule="evenodd" clip-rule="evenodd" d="M0.114258 13.6229C0.114258 10.1338 1.48472 6.78764 3.92415 4.32048C6.36359 1.85332 9.67217 0.467285 13.1221 0.467285H91.1688C92.877 0.467285 94.5685 0.807566 96.1467 1.4687C97.7249 2.12983 99.1589 3.09887 100.367 4.32048C101.575 5.5421 102.533 6.99236 103.186 8.58848C103.84 10.1846 104.177 11.8953 104.177 13.6229V69.1689C104.177 70.8966 103.84 72.6073 103.186 74.2034C102.533 75.7995 101.575 77.2498 100.367 78.4714C99.1589 79.693 97.7249 80.662 96.1467 81.3232C94.5685 81.9843 92.877 82.3246 91.1688 82.3246H13.1221C9.67217 82.3246 6.36359 80.9385 3.92415 78.4714C1.48472 76.0042 0.114258 72.658 0.114258 69.1689V13.6229ZM8.78612 47.5937V69.1689C8.78612 71.5896 10.7286 73.5542 13.1221 73.5542H91.1688C92.3188 73.5542 93.4217 73.0921 94.2348 72.2698C95.048 71.4474 95.5048 70.332 95.5048 69.1689V53.4407L82.6704 40.4663C81.8574 39.6451 80.7554 39.1838 79.6064 39.1838C78.4573 39.1838 77.3553 39.6451 76.5423 40.4663L65.5001 51.6281L68.2173 54.3762C68.6433 54.7776 68.985 55.2618 69.222 55.7997C69.459 56.3376 69.5864 56.9183 69.5967 57.5071C69.6069 58.0959 69.4998 58.6807 69.2818 59.2268C69.0637 59.7728 68.7391 60.2688 68.3274 60.6852C67.9156 61.1017 67.4252 61.4299 66.8853 61.6505C66.3454 61.871 65.7671 61.9794 65.1849 61.969C64.6027 61.9586 64.0286 61.8297 63.4967 61.59C62.9648 61.3503 62.4861 61.0048 62.0892 60.5739L32.0845 30.2341C31.2715 29.4129 30.1695 28.9516 29.0205 28.9516C27.8714 28.9516 26.7694 29.4129 25.9564 30.2341L8.78612 47.5937ZM63.7079 23.8551C63.7079 25.4058 63.0988 26.893 62.0146 27.9895C60.9305 29.086 59.46 29.702 57.9267 29.702C56.3934 29.702 54.9229 29.086 53.8387 27.9895C52.7545 26.893 52.1454 25.4058 52.1454 23.8551C52.1454 22.3044 52.7545 20.8172 53.8387 19.7207C54.9229 18.6242 56.3934 18.0081 57.9267 18.0081C59.46 18.0081 60.9305 18.6242 62.0146 19.7207C63.0988 20.8172 63.7079 22.3044 63.7079 23.8551Z" fill="#1E1E1E" fill-opacity="0.5"/>
</svg>
