<svg width="28" height="28" viewBox="0 0 28 28" fill="none" xmlns="http://www.w3.org/2000/svg">
<path d="M4.7362 1.448L14.0002 10.712L23.2162 1.496C23.4198 1.27932 23.665 1.10599 23.9372 0.986392C24.2094 0.866795 24.5029 0.803397 24.8002 0.800003C25.4367 0.800003 26.0472 1.05286 26.4972 1.50295C26.9473 1.95303 27.2002 2.56348 27.2002 3.2C27.2058 3.49425 27.1512 3.78653 27.0398 4.05892C26.9283 4.33131 26.7624 4.57805 26.5522 4.784L17.2162 14L26.5522 23.336C26.9478 23.723 27.1797 24.247 27.2002 24.8C27.2002 25.4365 26.9473 26.047 26.4972 26.4971C26.0472 26.9471 25.4367 27.2 24.8002 27.2C24.4943 27.2127 24.1892 27.1616 23.9041 27.0501C23.619 26.9385 23.3602 26.7689 23.1442 26.552L14.0002 17.288L4.7602 26.528C4.55741 26.7375 4.31515 26.9047 4.0474 27.02C3.77965 27.1354 3.49171 27.1965 3.2002 27.2C2.56368 27.2 1.95323 26.9471 1.50314 26.4971C1.05305 26.047 0.800195 25.4365 0.800195 24.8C0.7946 24.5058 0.849192 24.2135 0.960623 23.9411C1.07205 23.6687 1.23797 23.422 1.4482 23.216L10.7842 14L1.4482 4.664C1.05264 4.27702 0.82069 3.75299 0.800195 3.2C0.800195 2.56348 1.05305 1.95303 1.50314 1.50295C1.95323 1.05286 2.56368 0.800003 3.2002 0.800003C3.7762 0.807203 4.3282 1.04 4.7362 1.448Z" fill="#1E1E1E"/>
</svg>
