<svg width="671" height="617" viewBox="0 0 671 617" fill="none" xmlns="http://www.w3.org/2000/svg">
<path d="M335.647 616.963C520.794 616.963 670.885 608.2 670.885 597.391C670.885 586.581 520.794 577.818 335.647 577.818C150.5 577.818 0.408203 586.581 0.408203 597.391C0.408203 608.2 150.5 616.963 335.647 616.963Z" fill="#F5F5F5"/>
<path d="M628.283 584.786L605.529 471.432H596.797L574.043 584.786L557.307 595.022V598.065H644.466V595.022L628.283 584.786Z" fill="#315D9E"/>
<path opacity="0.2" d="M644.466 595.022H557.307V598.843H644.466V595.022Z" fill="white"/>
<path opacity="0.2" d="M605.53 471.432H596.798L573.768 584.458H628.007L605.53 471.432Z" fill="white"/>
<path opacity="0.6" d="M620.71 547.785L615.54 521.764H586.544L581.236 547.785H620.71Z" fill="white"/>
<path d="M101.728 584.786L78.9744 471.432H70.2429L47.4891 584.786L30.7695 595.022V598.065H117.912V595.022L101.728 584.786Z" fill="#315D9E"/>
<path opacity="0.2" d="M117.929 595.022H30.7695V598.843H117.929V595.022Z" fill="white"/>
<path opacity="0.2" d="M78.9749 471.432H70.2434L47.2129 584.458H101.469L78.9749 471.432Z" fill="white"/>
<path opacity="0.6" d="M94.1553 547.785L88.9855 521.764H59.99L54.6992 547.785H94.1553Z" fill="white"/>
<path d="M529.59 584.976L544.131 585.218C544.368 585.221 544.596 585.305 544.779 585.456C544.961 585.607 545.086 585.816 545.134 586.048L547.33 596.733C547.38 596.962 547.383 597.199 547.339 597.428C547.295 597.658 547.205 597.877 547.074 598.071C546.943 598.265 546.774 598.43 546.577 598.557C546.38 598.684 546.16 598.769 545.929 598.808C545.803 598.825 545.675 598.825 545.549 598.808C540.846 598.653 537.422 598.324 531.509 598.22C527.878 598.22 516.899 598.376 511.885 598.22C506.871 598.065 506.283 593.172 508.34 592.757C517.591 590.889 524.576 588.209 527.567 585.616C528.137 585.155 528.859 584.927 529.59 584.976Z" fill="#263238"/>
<path d="M407.055 584.976L421.596 585.218C421.833 585.221 422.061 585.305 422.244 585.456C422.426 585.607 422.551 585.816 422.599 586.048L424.777 596.733C424.827 596.961 424.831 597.196 424.788 597.425C424.745 597.654 424.657 597.872 424.527 598.065C424.398 598.259 424.231 598.425 424.037 598.553C423.842 598.68 423.623 598.767 423.394 598.808C423.262 598.825 423.128 598.825 422.996 598.808C418.293 598.653 414.887 598.324 408.974 598.22C405.343 598.22 394.364 598.376 389.332 598.22C384.301 598.065 383.748 593.172 385.874 592.757C395.125 590.889 402.11 588.209 405.101 585.616C405.653 585.172 406.347 584.944 407.055 584.976Z" fill="#263238"/>
<path d="M547.381 585.72H527.566C527.566 585.72 502.357 502.623 500.196 481.426C498.035 460.228 497.24 407.078 497.24 407.078V407.182C496.392 408.323 488.906 418.835 480.295 431.059C469.039 447.053 455.83 465.968 453.046 470.602C444.885 484.261 424.898 585.651 424.898 585.651H405.031C405.031 585.651 409.994 494.964 420.177 465.052C430.361 435.14 474.296 369.818 476.197 366.308C478.635 361.83 484.618 347.617 484.618 347.617L543.94 355.865C543.94 355.865 544.908 365.91 544.839 374.694C544.563 407.649 538.338 452.188 537.335 464.17C535.468 486.941 547.381 585.72 547.381 585.72Z" fill="#315D9E"/>
<path d="M498.624 251.864C498.624 251.864 480.867 283.523 484.636 347.617L543.942 355.865C545.671 346.822 546.068 301.608 560.834 259.922C554.475 257.746 547.984 255.979 541.4 254.631C533.071 252.989 524.654 251.835 516.191 251.173C510.326 250.946 504.453 251.178 498.624 251.864Z" fill="#263238"/>
<path opacity="0.2" d="M484.618 347.617L543.941 355.865C544.995 350.211 545.566 330.362 549.456 306.069C550.494 299.585 551.773 292.773 553.381 285.857C555.38 277.08 557.867 268.421 560.833 259.922C554.477 257.737 547.985 255.97 541.399 254.631C533.064 252.991 524.641 251.836 516.173 251.173C510.337 250.967 504.493 251.204 498.692 251.882C498.692 251.882 480.884 283.523 484.618 347.617Z" fill="white"/>
<path d="M535.003 223.18C533.792 231.445 532.911 246.505 538.893 251.692C531.216 255.409 525.666 257.916 519.321 264.21C516.71 259.299 513.477 252.919 513.477 252.919C522.485 250.308 521.931 243.548 520.03 237.254L535.003 223.18Z" fill="#E4897B"/>
<path opacity="0.2" d="M528.897 228.92L520.045 237.341C520.502 238.803 520.838 240.301 521.048 241.819C524.506 241.145 529.105 237.081 529.295 233.416C529.446 231.906 529.311 230.381 528.897 228.92Z" fill="black"/>
<path opacity="0.5" d="M547.381 585.72H527.566C527.566 585.72 502.357 502.623 500.196 481.426C498.035 460.228 497.24 407.078 497.24 407.078V407.182C496.392 408.323 488.906 418.835 480.295 431.059C469.039 447.053 455.83 465.968 453.046 470.602C444.885 484.261 424.898 585.651 424.898 585.651H405.031C405.031 585.651 409.994 494.964 420.177 465.052C430.361 435.14 474.296 369.818 476.197 366.308C478.635 361.83 484.618 347.617 484.618 347.617L543.94 355.865C543.94 355.865 544.908 365.91 544.839 374.694C544.563 407.649 538.338 452.188 537.335 464.17C535.468 486.941 547.381 585.72 547.381 585.72Z" fill="white"/>
<path d="M548.73 256.325L543.802 250.17L527.843 253.248L519.734 262.533L518.714 251.813L515.723 248.216L509.17 251.052V257.76L513.838 256.256L517.867 265.61L530.627 260.371L533.463 263.985L548.73 256.325Z" fill="#263238"/>
<path opacity="0.3" d="M548.73 256.325L543.802 250.17L527.843 253.248L519.734 262.533L518.714 251.813L515.723 248.216L509.17 251.052V257.76L513.838 256.256L517.867 265.61L530.627 260.371L533.463 263.985L548.73 256.325Z" fill="white"/>
<path d="M505.868 267.737C489.418 267.65 472.988 266.53 456.678 264.383C442.448 260.579 429.688 241.093 422.686 228.955L429.325 224.321C437.97 233.278 446.511 243.461 457.439 249.323C458.231 249.704 459.087 249.939 459.963 250.014C475.144 250.671 490.947 250.706 506.231 251.398L505.817 267.737H505.868Z" fill="#DC897C"/>
<path d="M512.421 274.687C503.776 281.05 470.146 271.575 470.146 271.575L474.331 250.965C483.835 249.911 493.435 250.085 502.894 251.484C517.193 254.008 521.982 267.616 512.421 274.687Z" fill="#263238"/>
<path opacity="0.2" d="M512.421 274.687C503.776 281.05 470.146 271.575 470.146 271.575L474.331 250.965C483.835 249.911 493.435 250.085 502.894 251.484C517.193 254.008 521.982 267.616 512.421 274.687Z" fill="white"/>
<path opacity="0.1" d="M511.297 275.379C512.006 270.572 508.894 266.371 499.54 264.071C490.444 262.185 481.105 261.759 471.875 262.809L470.146 271.575C470.146 271.575 501.355 280.566 511.297 275.379Z" fill="black"/>
<path d="M434.201 230.978L427.683 216.385L416.012 224.045C416.012 224.045 419.124 234.868 428.391 235.715L434.201 230.978Z" fill="#E4897B"/>
<path d="M418.743 209.4L411.395 217.18L416.028 224.045L427.699 216.385L418.743 209.4Z" fill="#E4897B"/>
<path opacity="0.1" d="M517.867 265.61L516.328 254.406L509.17 257.76L513.838 256.256L517.867 265.61Z" fill="black"/>
<path opacity="0.1" d="M517.867 265.61L529.694 256.913L533.463 263.985L530.627 260.371L517.867 265.61Z" fill="black"/>
<path opacity="0.1" d="M549.456 306.069C550.493 299.585 551.773 292.773 553.381 285.857C551.467 283.483 548.747 281.895 545.738 281.396C545.738 281.396 544.113 297.095 549.456 306.069Z" fill="black"/>
<path opacity="0.2" d="M497.24 407.113V407.216C496.393 408.357 488.907 418.87 480.296 431.094C479.447 424.468 480.578 417.738 483.547 411.753C486.516 405.769 491.191 400.797 496.981 397.465L497.24 407.113Z" fill="black"/>
<path d="M536.765 269.241L518.472 273.944L512.006 248.804L468.348 260.077L461.864 267.892L483.927 183.344L436.344 195.62L424.241 204.922L391.926 321.042L401.02 356.297L472.394 337.883L479.673 366.083L524.628 354.464L536.731 345.162L530.939 322.685L535.607 321.492L547.71 312.19L536.765 269.241ZM461.19 288.727L456.141 290.041L458.856 279.667L461.19 288.727Z" fill="#315D9E"/>
<path opacity="0.2" d="M468.107 187.441L436.396 195.62L468.107 187.441Z" fill="black"/>
<path opacity="0.2" d="M474.831 285.217L468.33 260.077L461.916 267.892L471.771 230.131L458.596 280.618L458.855 279.65L461.189 288.727L456.141 290.041L474.831 285.217Z" fill="black"/>
<path opacity="0.2" d="M491.828 356.781L484.549 328.581L413.176 346.995L404.064 311.74L436.396 195.62L424.259 204.922L391.943 321.042L401.038 356.297L472.412 337.883L479.691 366.083L524.714 354.464L536.852 345.162L491.828 356.781Z" fill="black"/>
<path opacity="0.2" d="M547.865 312.242L529.572 316.962L534.431 335.773L531.059 322.737L535.728 321.544L547.865 312.242L542.315 290.733L547.865 312.242Z" fill="black"/>
<path d="M567.697 269.794C569.253 277.022 570.429 284.111 571.328 291.407C572.262 300.726 573.645 310.979 571.518 320.8C565.64 338.765 539.722 328.287 528.293 322.65L531.025 315.146C539.255 316.547 547.468 318.224 555.369 317.411C556.29 317.356 557.185 317.084 557.98 316.616C558.118 316.512 557.98 316.478 557.703 316.616C557.452 316.835 557.252 317.107 557.116 317.411C557.116 317.1 557.219 316.374 557.254 315.682C557.254 301.522 553.969 286.998 551.635 273.01L567.645 269.725L567.697 269.794Z" fill="#DC897C"/>
<path d="M560.833 259.922C576.757 266.613 575.737 304.599 575.737 304.599L554.055 306.121C549.937 296.655 546.572 286.879 543.992 276.883C540.742 262.757 550.234 255.495 560.833 259.922Z" fill="#263238"/>
<path opacity="0.2" d="M560.833 259.922C576.757 266.613 575.737 304.599 575.737 304.599L554.055 306.121C549.937 296.655 546.572 286.879 543.992 276.883C540.742 262.757 550.234 255.495 560.833 259.922Z" fill="white"/>
<path d="M535.521 316.184L523.314 305.81L516.121 317.792C516.121 317.792 523.625 326.195 532.339 322.979L535.521 316.184Z" fill="#E4897B"/>
<path d="M512.214 303.458L508.98 313.659L516.121 317.844L523.314 305.862L512.214 303.458Z" fill="#E4897B"/>
<path d="M509.603 196.744C504.278 199.769 502.601 215.763 509.984 218.443C517.367 221.123 519.701 191.038 509.603 196.744Z" fill="#263238"/>
<path d="M536.524 211.406C535.123 222.592 534.881 229.197 528.847 234.799C526.909 236.638 524.505 237.912 521.895 238.483C519.286 239.054 516.569 238.901 514.041 238.039C511.512 237.177 509.267 235.64 507.549 233.594C505.831 231.547 504.706 229.07 504.295 226.431C502.566 216.281 505.09 199.7 516.398 195.55C518.81 194.596 521.429 194.291 523.996 194.666C526.562 195.041 528.985 196.083 531.022 197.688C533.06 199.293 534.64 201.405 535.605 203.812C536.571 206.219 536.887 208.838 536.524 211.406Z" fill="#E4897B"/>
<path d="M524.921 198.887L524.766 189.222C527.279 190.167 530.028 190.289 532.615 189.568C543.75 185.989 553.035 192.559 548.263 199.354C553.813 201.239 551.444 208.812 548.263 213.792C543.802 220.708 538.753 224.166 534.846 221.555C531.388 220.206 529.987 208.916 530.731 204.628C531.837 198.161 524.921 198.887 524.921 198.887Z" fill="#263238"/>
<path d="M540.086 222.61C538.506 224.913 536.179 226.599 533.498 227.382C530.04 228.298 529.02 225.151 530.507 221.901C531.821 218.961 535.21 214.985 538.374 215.503C541.538 216.022 542.074 219.722 540.086 222.61Z" fill="#E4897B"/>
<path d="M519.302 214.051C519.302 214.967 518.714 215.693 518.126 215.676C517.538 215.659 517.089 214.898 517.141 213.947C517.193 212.996 517.729 212.305 518.334 212.322C518.939 212.339 519.371 213.135 519.302 214.051Z" fill="#263238"/>
<path d="M508.98 213.757C508.98 214.673 508.392 215.4 507.804 215.382C507.216 215.365 506.767 214.622 506.819 213.653C506.87 212.685 507.406 211.924 508.012 212.028C508.617 212.132 509.032 212.858 508.98 213.757Z" fill="#263238"/>
<path d="M512.23 214.31C510.964 217.073 509.336 219.655 507.389 221.987C507.992 222.452 508.691 222.778 509.435 222.943C510.179 223.107 510.951 223.106 511.694 222.938L512.23 214.31Z" fill="#DE5753"/>
<path d="M522.708 210.818C522.8 210.798 522.887 210.763 522.967 210.714C523.08 210.631 523.158 210.508 523.183 210.37C523.209 210.231 523.181 210.089 523.106 209.97C522.642 209.267 522.014 208.686 521.276 208.279C520.538 207.873 519.712 207.652 518.869 207.636C518.798 207.636 518.728 207.651 518.663 207.679C518.597 207.707 518.539 207.748 518.49 207.8C518.441 207.852 518.404 207.913 518.38 207.98C518.356 208.047 518.346 208.119 518.351 208.19C518.36 208.33 518.422 208.462 518.525 208.559C518.627 208.655 518.763 208.709 518.904 208.708C519.567 208.728 520.216 208.908 520.794 209.233C521.372 209.558 521.863 210.019 522.224 210.576C522.273 210.658 522.345 210.725 522.43 210.768C522.516 210.81 522.612 210.828 522.708 210.818Z" fill="#263238"/>
<path d="M504.761 210.092C504.851 210.087 504.938 210.059 505.014 210.01C505.09 209.962 505.151 209.894 505.193 209.815C505.509 209.206 505.96 208.678 506.511 208.27C507.063 207.863 507.7 207.587 508.375 207.463C508.445 207.457 508.514 207.436 508.576 207.403C508.639 207.37 508.694 207.325 508.739 207.27C508.784 207.216 508.818 207.153 508.839 207.085C508.859 207.017 508.866 206.946 508.859 206.876C508.852 206.805 508.832 206.736 508.799 206.674C508.766 206.611 508.72 206.556 508.666 206.511C508.611 206.466 508.548 206.432 508.48 206.412C508.412 206.391 508.341 206.384 508.271 206.391C507.421 206.526 506.615 206.858 505.915 207.359C505.216 207.86 504.643 208.517 504.242 209.279C504.209 209.341 504.189 209.41 504.182 209.48C504.175 209.55 504.183 209.621 504.204 209.689C504.225 209.756 504.259 209.819 504.304 209.873C504.349 209.927 504.405 209.972 504.467 210.005C504.551 210.069 504.656 210.1 504.761 210.092Z" fill="#263238"/>
<path d="M533.393 190.744C533.393 190.744 523.347 176.635 509.1 181.839C510.572 181.937 512.01 182.319 513.336 182.963C513.336 182.963 500.369 183.672 497.654 193.234L499.902 191.505C499.902 191.505 497.706 199.423 502.219 203.798L502.599 201.222C502.599 201.222 508.772 206.997 516.328 204.023L513.423 203.037C513.423 203.037 526.857 200.703 529.71 196.795C531.157 194.92 532.392 192.89 533.393 190.744Z" fill="#263238"/>
<path d="M509.914 226.258C514.272 224.68 518.77 223.522 523.348 222.8C522.743 226.033 521.014 228.903 515.862 229.82C515.237 230 514.582 230.05 513.937 229.966C513.292 229.882 512.671 229.667 512.113 229.333C511.555 228.998 511.072 228.553 510.694 228.024C510.315 227.495 510.05 226.894 509.914 226.258Z" fill="#263238"/>
<path d="M517.798 227.088C515.811 227.348 513.954 228.225 512.49 229.595C513.578 230.073 514.792 230.182 515.948 229.906C517.939 229.657 519.799 228.779 521.256 227.399C520.168 226.921 518.954 226.811 517.798 227.088Z" fill="#A02724"/>
<path d="M510.277 226.085C510.447 226.436 510.708 226.734 511.034 226.947C511.36 227.16 511.738 227.281 512.127 227.295C515.1 226.731 518.02 225.921 520.859 224.875C521.324 224.745 521.749 224.502 522.096 224.167C522.443 223.831 522.701 223.415 522.847 222.955C518.585 223.682 514.383 224.728 510.277 226.085Z" fill="white"/>
<path d="M333.347 598.843C342.114 598.843 343.289 598.705 348.217 598.532C352.436 598.393 353.404 598.912 356.862 598.843C359.698 598.843 359.594 596.059 358.712 592.947C358.28 591.374 357.605 588.054 356.983 585.529L344.119 584.596C342.304 588.054 338.223 592.964 333.278 593.639C328.333 594.313 329.855 598.843 333.347 598.843Z" fill="#315D9E"/>
<path d="M341.231 569.311C346.135 564.577 350.474 559.291 354.164 553.56C356.568 550.102 357.017 551.001 359.576 547.647C359.919 547.116 360.133 546.513 360.2 545.885C360.267 545.257 360.185 544.622 359.961 544.031C359.737 543.44 359.378 542.91 358.911 542.484C358.445 542.058 357.885 541.748 357.277 541.578C355.031 541.129 352.832 540.475 350.706 539.624L341.94 546.073C343.548 550.206 341.439 561.842 336.926 566.631C333.693 570.072 338.672 571.663 341.231 569.311Z" fill="#315D9E"/>
<path d="M311.803 356.643C311.803 356.643 286.577 428.743 283.309 455.196C280.128 480.941 342.562 548.062 342.562 548.062C344.084 549.203 350.343 541.422 350.689 539.417C335.128 509.401 325.497 464.931 309.901 454.038C347.3 398.588 352.521 363.126 352.521 363.126L311.803 356.643Z" fill="#263238"/>
<path d="M377.885 235.058C386.617 248.199 385.614 254.648 382.83 280.566C380.046 306.484 389.279 317.377 384.801 329.307C380.323 341.237 348.215 340.234 333.916 316.339C319.617 292.444 337.616 241.093 351.206 236.079C359.801 233.097 369.088 232.742 377.885 235.058Z" fill="#263238"/>
<path opacity="0.2" d="M329.524 382.007C329.524 382.007 327.467 408.513 327 426.547C331.945 417.746 335.956 409.723 339.207 402.548L329.524 382.007Z" fill="black"/>
<path d="M324.027 358.562C324.027 358.562 333.416 431.18 338.793 466.141C344.43 502.831 345.156 561.721 343.738 585.72C345.796 586.913 353.248 586.083 357.294 584.821C357.294 584.821 381.655 506.099 363.76 469.755C375.344 384.843 358.573 364.043 358.573 364.043L324.027 358.562Z" fill="#263238"/>
<path d="M330.218 307.971C322.853 316.6 314.085 323.925 304.283 329.635C285.938 340.321 281.805 309.579 281.235 297.701C281.221 296.838 281.517 296 282.07 295.338C282.622 294.676 283.394 294.234 284.245 294.094C285.096 293.954 285.969 294.124 286.705 294.573C287.441 295.022 287.991 295.721 288.255 296.542C289.984 301.729 291.816 307.02 293.891 311.809C295.223 314.645 296.658 318.086 298.732 319.642C298.732 319.175 296.865 319.054 296.537 319.279H296.26L298.663 317.55C306.095 311.879 312.999 305.548 319.29 298.634C325.653 292.047 335.699 300.726 330.166 307.971H330.218Z" fill="#E9B376"/>
<path d="M376.762 307.608C363.656 335.929 359.731 350.695 358.59 364.043L311.803 356.643C312.875 341.185 313.67 331.935 314.794 322.581C315.394 316.179 316.428 309.824 317.889 303.562C319.151 296.905 324.407 290.024 330.874 287.759C332.362 287.211 333.939 286.942 335.525 286.963C337.859 286.963 340.297 287.102 342.648 287.257C349.801 287.881 356.901 289.002 363.898 290.612C365.904 291.044 367.84 291.511 369.673 291.995C370.053 292.099 370.451 292.237 370.814 292.375C372.25 292.928 373.556 293.773 374.647 294.859C375.738 295.944 376.59 297.245 377.15 298.679C377.71 300.112 377.964 301.647 377.897 303.184C377.831 304.722 377.444 306.228 376.762 307.608Z" fill="#315D9E"/>
<path d="M366.198 266.405C363.258 272.958 359.005 285.131 362.74 290.387C362.74 290.387 356.429 288.398 341.334 294.709C338.257 288.381 341.49 287.033 341.49 287.033C349.547 286.427 350.654 280.808 350.567 275.362L366.198 266.405Z" fill="#EBB376"/>
<path opacity="0.2" d="M359.851 270.054L350.567 275.379C350.597 276.662 350.522 277.946 350.342 279.217C353.35 279.217 358.088 276.728 359.108 273.771C359.587 272.59 359.84 271.329 359.851 270.054Z" fill="black"/>
<path opacity="0.6" d="M376.762 307.608C375.298 310.755 373.949 313.746 372.716 316.581C369.154 324.725 366.457 331.624 364.417 337.658C361.384 346.176 359.426 355.04 358.59 364.043L311.803 356.643C312.875 341.185 313.67 331.935 314.794 322.581C315.394 316.179 316.428 309.824 317.889 303.562C319.151 296.905 324.407 290.024 330.874 287.759C332.362 287.211 333.939 286.942 335.525 286.963C337.859 286.963 340.297 287.102 342.648 287.257C349.801 287.881 356.901 289.002 363.898 290.612C365.904 291.044 367.84 291.511 369.673 291.995C370.053 292.099 370.451 292.237 370.814 292.375C372.25 292.928 373.556 293.773 374.647 294.859C375.738 295.944 376.59 297.245 377.15 298.679C377.71 300.112 377.964 301.647 377.897 303.184C377.831 304.722 377.444 306.228 376.762 307.608Z" fill="white"/>
<path d="M374.203 253.611C370.382 264.331 369.016 268.93 361.858 273.218C351.121 279.684 338.758 273.408 339.294 261.962C339.778 251.588 345.951 235.871 357.916 234.021C360.469 233.54 363.104 233.751 365.549 234.631C367.994 235.511 370.159 237.029 371.82 239.027C373.481 241.025 374.577 243.43 374.997 245.994C375.416 248.558 375.142 251.188 374.203 253.611Z" fill="#EBB376"/>
<path d="M361.582 228.938C353.265 228.938 341.093 236.597 351.657 238.862C351.554 242.32 357.778 242.545 362.36 240.937C361.616 243.41 365.61 248.51 371.351 247.231C367.996 248.873 367.409 257.38 371.351 258.054C375.293 258.729 383.454 261.27 382.745 247.231C382.036 233.191 370.486 228.938 361.582 228.938Z" fill="#263238"/>
<path d="M359.852 253.23C359.558 254.129 358.849 254.769 358.261 254.631C357.673 254.493 357.431 253.628 357.708 252.712C357.985 251.795 358.693 251.173 359.281 251.311C359.869 251.45 360.094 252.314 359.852 253.23Z" fill="#263238"/>
<path d="M348.388 250.17C348.094 251.086 347.403 251.709 346.797 251.571C346.192 251.432 345.967 250.585 346.244 249.669C346.521 248.752 347.23 248.13 347.818 248.268C348.405 248.406 348.665 249.254 348.388 250.17Z" fill="#263238"/>
<path d="M348.078 248.372L346.09 247.231C346.09 247.231 346.678 249.202 348.078 248.372Z" fill="#263238"/>
<path d="M351.207 253.006C349.755 254.898 348.071 256.6 346.193 258.072C346.562 258.513 347.025 258.865 347.549 259.102C348.073 259.339 348.644 259.453 349.219 259.438L351.207 253.006Z" fill="#D58745"/>
<path d="M353.454 264.037C352.931 264.002 352.411 263.927 351.898 263.812C351.862 263.804 351.827 263.789 351.797 263.767C351.767 263.744 351.742 263.716 351.723 263.683C351.705 263.65 351.695 263.614 351.692 263.576C351.689 263.539 351.695 263.501 351.708 263.466C351.732 263.397 351.781 263.34 351.844 263.304C351.908 263.269 351.983 263.259 352.054 263.276C353.21 263.557 354.416 263.57 355.578 263.316C356.74 263.061 357.829 262.545 358.763 261.806C358.788 261.78 358.819 261.758 358.853 261.744C358.888 261.729 358.924 261.722 358.961 261.722C358.998 261.722 359.035 261.729 359.069 261.744C359.104 261.758 359.134 261.78 359.16 261.806C359.186 261.831 359.207 261.86 359.222 261.893C359.236 261.925 359.243 261.961 359.243 261.996C359.243 262.032 359.236 262.067 359.222 262.1C359.207 262.133 359.186 262.162 359.16 262.187C357.555 263.493 355.521 264.153 353.454 264.037Z" fill="#263238"/>
<path d="M375.222 263.414C373.54 265.146 371.239 266.141 368.825 266.181C365.73 266.181 365.246 262.982 366.975 260.337C368.704 257.691 372.041 255.063 374.721 256.36C377.401 257.657 377.366 261.218 375.222 263.414Z" fill="#EBB376"/>
<path d="M363.31 247.905C363.238 247.893 363.168 247.868 363.106 247.829C363.044 247.79 362.99 247.74 362.947 247.68C362.594 247.103 362.103 246.623 361.517 246.285C360.931 245.946 360.269 245.76 359.593 245.744C359.45 245.744 359.314 245.687 359.214 245.587C359.113 245.486 359.057 245.35 359.057 245.208C359.068 245.06 359.132 244.922 359.237 244.817C359.341 244.713 359.48 244.649 359.627 244.637C360.484 244.644 361.326 244.868 362.072 245.288C362.819 245.708 363.447 246.311 363.898 247.04C363.975 247.164 364.001 247.314 363.968 247.457C363.936 247.599 363.848 247.723 363.725 247.801C363.603 247.884 363.456 247.921 363.31 247.905Z" fill="#263238"/>
<path d="M345.519 243.047C345.45 243.049 345.383 243.036 345.32 243.009C345.257 242.982 345.201 242.942 345.156 242.891C345.103 242.841 345.061 242.78 345.032 242.714C345.003 242.647 344.988 242.575 344.988 242.502C344.988 242.429 345.003 242.357 345.032 242.29C345.061 242.223 345.103 242.163 345.156 242.113C345.779 241.462 346.546 240.966 347.396 240.666C348.246 240.365 349.155 240.269 350.049 240.384C350.117 240.398 350.183 240.426 350.24 240.466C350.297 240.507 350.345 240.559 350.381 240.619C350.417 240.679 350.44 240.747 350.448 240.816C350.456 240.886 350.45 240.957 350.429 241.024C350.392 241.167 350.302 241.292 350.177 241.372C350.052 241.452 349.901 241.482 349.755 241.456C349.047 241.378 348.33 241.462 347.659 241.702C346.988 241.941 346.38 242.33 345.882 242.839C345.788 242.948 345.66 243.021 345.519 243.047Z" fill="#263238"/>
<path d="M359.489 251.432L357.518 250.291C357.518 250.291 358.123 252.262 359.489 251.432Z" fill="#263238"/>
<path d="M338.24 288.105C329.111 284.647 321.866 288.917 310.783 301.435C311.561 307.85 322.35 317.515 322.35 317.515C322.35 317.515 340.833 299.966 338.24 288.105Z" fill="#315D9E"/>
<path d="M370.815 292.323C367.043 294.258 363.17 295.99 359.213 297.51C358.193 297.873 357.156 298.254 356.101 298.6C350.084 300.623 343.791 301.885 339.295 300.553C337.334 300.125 335.534 299.151 334.102 297.744C332.67 296.337 331.665 294.554 331.203 292.6C330.82 290.975 330.715 289.298 330.892 287.638C332.381 287.09 333.957 286.821 335.543 286.842H337.117C337.808 286.842 338.465 286.842 339.157 286.842L342.615 287.033C349.767 287.656 356.868 288.777 363.864 290.387L364.314 290.491L365.887 290.836C367.167 291.13 368.429 291.442 369.639 291.77C370.054 292.047 370.452 292.185 370.815 292.323Z" fill="#EBB376"/>
<path d="M365.92 290.94C363.429 292.853 361.176 295.059 359.212 297.51C358.192 297.874 357.154 298.254 356.1 298.6C358.354 295.459 361.153 292.747 364.364 290.594L365.92 290.94Z" fill="#263238"/>
<path d="M339.104 287.015C336.379 289.262 333.941 291.835 331.842 294.675C331.548 294.03 331.316 293.358 331.15 292.669C332.871 290.524 334.858 288.607 337.064 286.963C337.79 286.963 338.447 286.998 339.104 287.015Z" fill="#263238"/>
<path opacity="0.2" d="M365.92 290.94C363.429 292.853 361.176 295.059 359.212 297.51C358.192 297.874 357.154 298.254 356.1 298.6C358.354 295.459 361.153 292.747 364.364 290.594L365.92 290.94Z" fill="white"/>
<path opacity="0.2" d="M339.104 287.015C336.379 289.262 333.941 291.835 331.842 294.675C331.548 294.03 331.316 293.358 331.15 292.669C332.871 290.524 334.858 288.607 337.064 286.963C337.79 286.963 338.447 286.998 339.104 287.015Z" fill="white"/>
<path opacity="0.1" d="M372.716 316.581C369.155 324.725 366.457 331.624 364.417 337.658C347.352 327.094 361.443 309.302 361.443 309.302C365.748 310.753 369.623 313.255 372.716 316.581Z" fill="black"/>
<path d="M287.372 240.055C247.328 237.756 216.897 268.601 213.699 324.777C213.392 329.884 213.351 335.003 213.578 340.113C211.849 393.903 238.233 426.426 277.292 428.656C317.336 430.938 347.766 400.093 350.965 343.934C351.272 338.828 351.312 333.709 351.086 328.598C352.798 274.808 326.43 242.286 287.372 240.055ZM299.613 329.722C297.763 362.435 289.81 372.187 279.851 371.633C271.776 371.166 265.794 364.095 264.826 343.969C264.826 342.378 264.947 340.736 265.033 339.024C266.9 306.311 274.836 296.559 284.796 297.13C292.887 297.58 298.87 304.651 299.838 324.794C299.786 326.385 299.717 328.01 299.613 329.722Z" fill="#315D9E"/>
<path opacity="0.2" d="M350.931 315.769C350.931 314.956 350.931 314.144 350.775 313.331C350.845 314.144 350.879 314.956 350.931 315.769Z" fill="black"/>
<path opacity="0.2" d="M213.508 338.263C213.508 337.503 213.508 336.742 213.508 335.981C213.456 336.742 213.491 337.503 213.508 338.263Z" fill="black"/>
<path opacity="0.2" d="M213.7 325.088C216.898 268.861 247.329 238.015 287.373 240.366C321.089 242.286 345.364 266.769 350.274 308.04C345.433 266.544 321.158 242.026 287.373 240.107C247.329 237.808 216.898 268.653 213.7 324.829C213.596 326.558 213.527 328.287 213.492 330.016C213.527 328.425 213.596 326.765 213.7 325.088Z" fill="black"/>
<path opacity="0.2" d="M351.103 319.624C351.103 319.227 351.103 318.846 351.103 318.449C351.086 318.829 351.086 319.227 351.103 319.624Z" fill="black"/>
<path opacity="0.2" d="M213.439 334.39C213.439 333.163 213.439 331.935 213.439 330.69C213.457 331.935 213.439 333.163 213.439 334.39Z" fill="black"/>
<path opacity="0.2" d="M350.931 332.903C347.715 389.131 317.284 419.959 277.241 417.625C240.931 415.567 215.636 387.385 213.561 340.303C211.918 393.903 238.269 426.426 277.292 428.656C317.336 430.938 347.767 400.093 350.966 343.934C351.272 338.88 351.313 333.813 351.087 328.754C351.052 330.125 351 331.509 350.931 332.903Z" fill="black"/>
<path opacity="0.2" d="M264.999 328.01C263.132 360.723 269.91 371.322 279.869 371.875C289.828 372.429 297.764 362.694 299.631 329.981C301.499 297.268 294.704 286.756 284.762 286.099C274.82 285.442 266.849 295.297 264.999 328.01ZM299.839 324.777C299.839 326.385 299.718 328.01 299.614 329.722C297.764 362.435 289.811 372.187 279.851 371.633C271.777 371.166 265.795 364.095 264.826 343.969C264.826 342.378 264.947 340.736 265.034 339.024C266.901 306.311 274.837 296.559 284.796 297.13C292.888 297.58 298.871 304.651 299.839 324.777Z" fill="black"/>
<path d="M274.11 292.669L274.594 295.712C274.682 296.28 274.906 296.819 275.246 297.282C275.586 297.746 276.032 298.121 276.548 298.375L281.406 300.796C282.362 301.274 283.42 301.514 284.488 301.496C285.557 301.478 286.605 301.202 287.544 300.692L288.737 300.069C288.271 294.882 284.017 289.695 284.017 289.695L282.963 288.07C282.754 287.733 282.481 287.441 282.16 287.211C281.838 286.98 281.474 286.815 281.089 286.725C280.703 286.635 280.304 286.622 279.913 286.686C279.523 286.751 279.149 286.892 278.813 287.102L275.597 289.211C275.042 289.582 274.606 290.106 274.342 290.72C274.078 291.334 273.997 292.011 274.11 292.669Z" fill="#EBB376"/>
<path d="M311.647 324.448L315.105 323.688C315.745 323.544 316.41 323.555 317.045 323.721C317.679 323.886 318.265 324.201 318.753 324.639L323.37 328.806C324.281 329.621 324.983 330.643 325.417 331.787C325.85 332.93 326.002 334.161 325.86 335.376L325.687 336.915C320.05 338.644 312.736 336.223 312.736 336.223L310.575 335.773C309.678 335.609 308.883 335.097 308.361 334.349C307.84 333.601 307.635 332.678 307.791 331.779L308.604 327.492C308.766 326.746 309.139 326.062 309.678 325.523C310.218 324.983 310.901 324.61 311.647 324.448Z" fill="#EBB376"/>
<path d="M377.472 316.045C374.4 329.419 368.505 341.981 360.182 352.891C348.943 364.821 326.086 342.828 317.994 334.701C317.409 334.067 317.073 333.242 317.048 332.379C317.024 331.517 317.311 330.674 317.859 330.006C318.406 329.339 319.176 328.892 320.027 328.748C320.878 328.603 321.752 328.771 322.489 329.221C327.953 332.679 333.676 336.24 339.382 339.231C343.203 341.168 347.231 343.295 351.122 343.727C352.384 343.727 351.571 343.416 350.776 344.09L349.842 345.093C351.407 342.701 352.839 340.225 354.13 337.675C358.036 329.596 361.174 321.168 363.501 312.501C364.113 310.83 365.323 309.447 366.897 308.618C368.472 307.789 370.297 307.575 372.021 308.017C373.744 308.458 375.242 309.524 376.223 311.008C377.205 312.491 377.601 314.287 377.334 316.045H377.472Z" fill="#E9B376"/>
<path d="M373.287 293.603C381.257 299.257 381.638 307.694 377.333 323.861C371.558 326.748 357.553 323.1 357.553 323.1C357.553 323.1 361.962 297.995 373.287 293.603Z" fill="#315D9E"/>
<path opacity="0.6" d="M373.287 293.603C381.257 299.257 381.638 307.694 377.333 323.861C371.558 326.748 357.553 323.1 357.553 323.1C357.553 323.1 361.962 297.995 373.287 293.603Z" fill="white"/>
<path d="M222.068 572.942L232.805 569.052L226.891 543.169L216.154 547.059L222.068 572.942Z" fill="#FFC3BD"/>
<path d="M137.363 587.207H148.757L152.008 560.805H140.597L137.363 587.207Z" fill="#FFC3BD"/>
<path d="M150.261 585.893H136.429C136.203 585.892 135.983 585.968 135.807 586.11C135.63 586.252 135.508 586.45 135.461 586.671L133.109 596.803C133.066 597.053 133.078 597.31 133.146 597.555C133.213 597.8 133.334 598.027 133.499 598.22C133.664 598.413 133.869 598.568 134.101 598.672C134.332 598.777 134.584 598.829 134.838 598.826C139.316 598.739 142.567 598.48 148.203 598.48C151.661 598.48 162.122 598.843 166.894 598.843C171.666 598.843 172.358 594.123 170.352 593.656C161.586 591.737 154.998 589.074 152.215 586.55C151.672 586.089 150.972 585.854 150.261 585.893Z" fill="#263238"/>
<path d="M233.202 566.856L220.996 569.484C220.776 569.531 220.578 569.65 220.433 569.822C220.289 569.995 220.207 570.21 220.2 570.435L220.027 580.809C220.039 581.053 220.102 581.291 220.212 581.509C220.322 581.726 220.476 581.918 220.666 582.071C220.855 582.225 221.075 582.337 221.311 582.399C221.546 582.462 221.792 582.474 222.033 582.435C226.425 581.414 232.736 579.806 238.268 578.613C244.735 577.23 248.746 575.916 256.319 574.291C260.901 573.305 261.23 568.412 259.224 568.412C250.095 568.412 244.562 570.141 236.073 567.133C235.16 566.777 234.166 566.681 233.202 566.856Z" fill="#263238"/>
<path opacity="0.2" d="M226.891 543.169L229.935 556.517L219.197 560.407L216.154 547.076L226.891 543.169Z" fill="black"/>
<path opacity="0.2" d="M140.597 560.822H152.009L150.331 574.429H138.92L140.597 560.822Z" fill="black"/>
<path d="M233.081 552.575L214.909 559.162C214.909 559.162 200.783 496.693 193.141 461.94C189.794 448.216 185.661 434.696 180.761 421.446C173.845 401.977 165.632 381.022 158.976 364.648C151.956 347.358 146.734 335.255 146.734 335.255L186.052 327.301C186.052 327.301 216.051 413.614 222.794 447.744C229.796 483.172 233.081 552.575 233.081 552.575Z" fill="#263238"/>
<g opacity="0.3">
<path d="M233.081 552.575L214.909 559.162C214.909 559.162 200.783 496.693 193.141 461.94C189.794 448.216 185.661 434.696 180.761 421.446C173.845 401.977 165.632 381.022 158.976 364.648C151.956 347.358 146.734 335.255 146.734 335.255L186.052 327.301C186.052 327.301 216.051 413.614 222.794 447.744C229.796 483.172 233.081 552.575 233.081 552.575Z" fill="white"/>
</g>
<path opacity="0.2" d="M180.762 421.446C173.846 401.977 165.633 381.022 158.977 364.648L162.02 355.242C173.275 365.651 180.295 401.597 180.762 421.446Z" fill="black"/>
<path d="M164.837 331.555C164.837 331.555 171.857 429.987 172.289 463.427C172.756 500.047 155.621 571.784 155.621 571.784H134.752C134.752 571.784 143.086 507.067 140.268 470.758C137.156 430.195 126.211 339.352 126.211 339.352L164.837 331.555Z" fill="#263238"/>
<g opacity="0.3">
<path d="M164.837 331.555C164.837 331.555 171.857 429.987 172.289 463.427C172.756 500.047 155.621 571.784 155.621 571.784H134.752C134.752 571.784 143.086 507.067 140.268 470.758C137.156 430.195 126.211 339.352 126.211 339.352L164.837 331.555Z" fill="white"/>
</g>
<path d="M158.112 572.233H133.543L133.612 564.885L159.271 563.415L158.112 572.233Z" fill="#263238"/>
<path d="M235.52 552.332L213.734 559.906L211.365 552.868L235.191 544.206L235.52 552.332Z" fill="#263238"/>
<path d="M151.039 587.466C150.988 587.456 150.94 587.431 150.903 587.394C150.866 587.357 150.841 587.31 150.832 587.259C150.823 587.206 150.83 587.151 150.851 587.102C150.873 587.053 150.908 587.011 150.953 586.982C151.368 586.723 155.085 584.458 156.33 585.115C156.47 585.185 156.588 585.294 156.667 585.428C156.747 585.563 156.786 585.719 156.78 585.875C156.81 586.14 156.773 586.409 156.674 586.656C156.574 586.904 156.414 587.123 156.209 587.293C155.564 587.731 154.791 587.938 154.013 587.881C153.009 587.856 152.012 587.716 151.039 587.466ZM151.817 587.086C153.142 587.547 154.593 587.472 155.863 586.878C156.001 586.76 156.108 586.61 156.174 586.442C156.241 586.273 156.265 586.09 156.244 585.91C156.244 585.685 156.157 585.616 156.071 585.581C155.957 585.56 155.839 585.56 155.725 585.581C154.339 585.831 153.013 586.342 151.817 587.086Z" fill="#315D9E"/>
<path d="M150.953 587.431C150.909 587.41 150.874 587.374 150.852 587.331C150.83 587.287 150.823 587.237 150.832 587.189C150.832 587.051 151.143 583.731 152.561 582.677C152.717 582.543 152.899 582.444 153.095 582.384C153.292 582.325 153.498 582.307 153.702 582.331C153.907 582.327 154.106 582.397 154.264 582.527C154.423 582.657 154.53 582.838 154.567 583.04C154.791 584.302 152.474 586.809 151.299 587.449H151.16C151.128 587.466 151.091 587.474 151.054 587.471C151.017 587.468 150.982 587.454 150.953 587.431ZM152.82 583.092C152.014 584.121 151.533 585.367 151.437 586.671C152.613 585.772 154.1 583.887 153.961 583.213C153.961 583.213 153.961 582.971 153.564 582.936H153.443C153.217 582.931 152.997 583.004 152.82 583.143V583.092Z" fill="#315D9E"/>
<path d="M254.885 188.15L264.014 178.329L269.478 192.162C269.478 192.162 260.833 200.426 256.735 195.793L254.885 188.15Z" fill="#FFC3BD"/>
<path d="M276.808 174.716L277.465 188.202L269.477 192.162L264.014 178.329L276.808 174.716Z" fill="#FFC3BD"/>
<path d="M234.395 567.997C234.377 567.943 234.376 567.884 234.392 567.829C234.407 567.773 234.438 567.724 234.481 567.686C234.931 567.323 238.942 564.072 240.464 564.539C240.607 564.585 240.735 564.666 240.838 564.774C240.941 564.883 241.015 565.017 241.052 565.162C241.127 565.395 241.144 565.642 241.102 565.883C241.06 566.124 240.959 566.351 240.81 566.545C239.807 567.894 236.522 568.136 234.654 568.17C234.599 568.169 234.546 568.152 234.5 568.121C234.454 568.09 234.418 568.048 234.395 567.997ZM235.45 567.6C238.009 567.479 239.824 566.977 240.377 566.234C240.48 566.104 240.547 565.95 240.575 565.787C240.602 565.624 240.587 565.456 240.533 565.3C240.533 565.179 240.429 565.093 240.308 565.058H240.204C239.288 564.937 237.092 566.372 235.45 567.582V567.6Z" fill="#315D9E"/>
<path d="M104.062 242.839C94.2241 246.712 63.1192 272.232 61.9607 283.35C60.8023 294.467 97.1289 306.916 97.1289 306.916L105.947 299.43C105.947 299.43 83.8327 282.433 83.8327 280.41C83.8327 278.388 111.497 263.777 111.497 263.777C113.487 259.025 113.738 253.723 112.206 248.804C110.373 243.669 104.062 242.839 104.062 242.839Z" fill="#263238"/>
<path d="M166.791 230.701C181.505 229.577 208.166 221.174 215.324 216.593C222.483 212.011 254.884 186.923 254.884 186.923L264.117 197.556C264.117 197.556 239.721 225.895 225.733 235.058C211.745 244.222 173.69 258.659 173.69 258.659L166.791 230.701Z" fill="#263238"/>
<path d="M234.533 568.136C234.492 568.116 234.457 568.087 234.43 568.051C234.403 568.015 234.385 567.973 234.378 567.928C234.165 566.322 234.461 564.689 235.225 563.26C235.391 563.044 235.599 562.866 235.837 562.735C236.075 562.604 236.338 562.524 236.608 562.499C237.352 562.413 237.628 562.741 237.749 563.018C238.199 564.245 236.02 567.219 234.81 568.118H234.62L234.533 568.136ZM236.66 563.035C236.461 563.05 236.268 563.109 236.094 563.208C235.921 563.306 235.772 563.442 235.657 563.606C235.017 564.746 234.746 566.057 234.879 567.357C236.089 566.234 237.507 563.899 237.231 563.225C237.231 563.225 237.231 563.052 236.937 563.035H236.66Z" fill="#315D9E"/>
<path d="M104.062 242.839C105.792 247.058 107.417 251.328 108.869 255.599C110.471 260.302 111.924 264.982 113.226 269.639C114.125 272.82 114.955 276.001 115.716 279.114C115.993 280.168 116.235 281.24 116.477 282.278C117.082 284.785 117.618 287.257 118.206 289.695C118.794 292.133 119.157 294.312 119.589 296.611C120.021 298.911 120.505 301.366 120.903 303.648C121.301 305.931 121.664 308.127 122.01 310.253C122.355 312.38 122.736 314.904 123.047 317.169C123.445 319.901 123.791 322.46 124.102 324.812C125.07 331.883 125.727 337.053 126.315 339.525L186.121 327.422C186.121 322.737 186.121 318.224 185.897 313.867C185.793 310.962 185.655 308.144 185.447 305.395C185.343 303.579 185.205 301.798 185.049 300.035C184.825 297.372 184.565 294.848 184.289 292.254C183.943 289.436 183.58 286.721 183.182 284.093C182.456 279.252 181.649 274.751 180.762 270.59C179.672 265.541 178.514 260.976 177.304 256.896C175.817 251.709 174.295 247.421 172.912 243.807C171.257 239.324 169.221 234.992 166.826 230.857C161.947 230.585 157.056 230.619 152.181 230.961C151.144 230.961 150.106 231.134 149.051 231.255C140.479 232.486 131.987 234.217 123.618 236.442C122.044 236.839 120.419 237.306 118.863 237.773C113.847 239.21 108.907 240.901 104.062 242.839Z" fill="#263238"/>
<path d="M119.52 207.014C122.978 214.898 127.767 229.491 122.822 236.182C126.104 238.333 129.79 239.79 133.655 240.465C137.52 241.14 141.483 241.018 145.299 240.107C152.751 238.568 152.094 233.554 149.864 231.151C139.732 230.77 138.556 223.941 138.919 217.319L119.52 207.014Z" fill="#FFC3BD"/>
<path opacity="0.2" d="M122.546 211.406L138.868 217.198C138.755 218.754 138.789 220.317 138.971 221.866C127.266 225.013 122.408 212.374 122.546 211.406Z" fill="black"/>
<path d="M159.529 399.712L179.188 359.945L175.903 346.666L168.486 343.018L175.402 329.1L172.099 315.821L144.245 302.075L197.844 261.668L194.559 248.406L154.636 228.696L59.5405 298.133L43.4434 330.707L46.7458 343.986L98.6162 369.593L90.3515 386.33L93.6366 399.609L131.346 418.23L144.245 392.105L159.529 399.712ZM124.015 320.99L120.99 319.503L126.972 314.991L124.015 320.99Z" fill="#315D9E"/>
<path opacity="0.2" d="M168.486 342.949L175.351 329.03L172.083 315.752L144.211 302.006L197.776 261.599L194.491 248.32L154.637 228.661L59.5412 298.098L59.4375 298.288L154.516 228.869L194.37 248.545L108.23 313.487L123.878 321.215L123.999 320.99L120.99 319.503L126.938 315.025L135.376 297.925L171.944 315.976L160.446 339.266L175.766 346.822L156.107 386.658L140.788 379.085L127.889 405.211L90.3868 386.693L93.6028 399.643L131.313 418.265L144.211 392.139L159.53 399.695L179.189 359.876L175.904 346.597L168.486 342.949Z" fill="black"/>
<path opacity="0.2" d="M103.078 360.481L43.4961 331.07L46.7121 344.021L98.5652 369.61L103.078 360.481Z" fill="black"/>
<path d="M103.595 299.43L116.304 303.718L105.93 314.386C105.93 314.386 94.812 309.89 97.2845 304.271L103.595 299.43Z" fill="#FFC3BD"/>
<path d="M124.863 313.867L112.829 320.022L105.947 314.386L116.304 303.7L124.863 313.867Z" fill="#FFC3BD"/>
<path d="M135.703 170.411C145.697 170.826 149.535 191.712 146.458 195.118C140.596 201.464 123.323 169.909 135.703 170.411Z" fill="#263238"/>
<path d="M114.039 197.4C119.001 208.501 121.353 215.244 129.271 218.927C141.202 224.46 153.27 213.982 151.749 201.637C150.348 190.519 142.464 174.232 129.635 173.886C126.809 173.794 124.006 174.427 121.493 175.723C118.981 177.02 116.841 178.937 115.279 181.294C113.716 183.65 112.782 186.367 112.565 189.186C112.348 192.005 112.855 194.833 114.039 197.4Z" fill="#FFC3BD"/>
<path d="M102.23 193.683C105.896 200.98 118.293 213.498 122.546 211.475C127.146 209.262 124.673 198.421 118.794 189.948L102.23 193.683Z" fill="#263238"/>
<path d="M113.607 211.855C114.814 212.771 116.189 213.44 117.655 213.823C119.121 214.205 120.648 214.295 122.149 214.085C126.16 213.515 126.54 209.538 124.068 206.599C121.82 203.953 117.048 201.083 113.694 203.141C112.961 203.604 112.356 204.243 111.934 205C111.512 205.757 111.286 206.608 111.278 207.474C111.269 208.341 111.478 209.196 111.885 209.961C112.292 210.727 112.884 211.378 113.607 211.855Z" fill="#FFC3BD"/>
<path d="M132.47 194.115C132.816 195.049 133.576 195.602 134.199 195.378C134.821 195.153 135.011 194.219 134.666 193.285C134.32 192.352 133.559 191.798 132.937 192.023C132.314 192.248 132.124 193.182 132.47 194.115Z" fill="#263238"/>
<path d="M142.913 190.173C143.276 191.09 144.037 191.66 144.642 191.435C145.247 191.211 145.455 190.277 145.109 189.343C144.763 188.41 143.985 187.856 143.38 188.081C142.775 188.306 142.567 189.24 142.913 190.173Z" fill="#263238"/>
<path d="M139.768 191.885C141.935 194.297 144.425 196.397 147.168 198.127C146.704 198.815 146.095 199.395 145.384 199.825C144.674 200.255 143.878 200.525 143.053 200.616L139.768 191.885Z" fill="#ED847E"/>
<path d="M141.357 204.178C141.417 204.142 141.464 204.087 141.489 204.021C141.514 203.955 141.516 203.882 141.495 203.815C141.481 203.779 141.461 203.745 141.434 203.717C141.408 203.688 141.376 203.665 141.341 203.649C141.305 203.633 141.267 203.624 141.228 203.623C141.189 203.622 141.151 203.628 141.114 203.642C139.973 204.103 138.739 204.286 137.513 204.178C136.286 204.07 135.103 203.673 134.06 203.02C134.034 202.993 134.003 202.972 133.969 202.957C133.935 202.943 133.898 202.936 133.861 202.936C133.824 202.936 133.787 202.943 133.753 202.957C133.719 202.972 133.688 202.993 133.662 203.02C133.636 203.046 133.615 203.077 133.6 203.111C133.586 203.145 133.578 203.182 133.578 203.219C133.578 203.256 133.586 203.292 133.6 203.327C133.615 203.361 133.636 203.392 133.662 203.418C134.781 204.136 136.056 204.576 137.38 204.699C138.704 204.823 140.038 204.626 141.27 204.126L141.357 204.178Z" fill="#263238"/>
<path d="M128.165 191.885C128.234 191.85 128.296 191.801 128.347 191.742C128.397 191.682 128.435 191.613 128.459 191.539C128.646 190.834 128.998 190.183 129.484 189.639C129.971 189.095 130.579 188.674 131.26 188.41C131.405 188.362 131.526 188.259 131.597 188.124C131.669 187.988 131.684 187.83 131.64 187.683C131.619 187.61 131.582 187.542 131.534 187.483C131.485 187.424 131.425 187.375 131.358 187.339C131.29 187.304 131.216 187.282 131.14 187.276C131.063 187.27 130.987 187.279 130.914 187.303C130.05 187.623 129.274 188.144 128.651 188.824C128.029 189.503 127.578 190.322 127.335 191.211C127.314 191.283 127.308 191.359 127.316 191.435C127.325 191.51 127.348 191.582 127.385 191.648C127.422 191.714 127.472 191.772 127.532 191.819C127.591 191.865 127.66 191.9 127.733 191.92C127.803 191.944 127.878 191.954 127.952 191.948C128.027 191.942 128.099 191.921 128.165 191.885Z" fill="#263238"/>
<path d="M146.216 184.831L146.372 184.71C146.426 184.656 146.469 184.593 146.498 184.523C146.527 184.454 146.542 184.379 146.542 184.303C146.542 184.228 146.527 184.153 146.498 184.083C146.469 184.013 146.426 183.95 146.372 183.897C145.722 183.244 144.923 182.758 144.043 182.481C143.164 182.204 142.231 182.144 141.323 182.306C141.249 182.323 141.179 182.353 141.117 182.397C141.055 182.441 141.002 182.497 140.962 182.561C140.921 182.626 140.894 182.697 140.882 182.772C140.87 182.847 140.873 182.924 140.891 182.998C140.932 183.147 141.028 183.274 141.16 183.355C141.291 183.435 141.449 183.462 141.6 183.43C142.319 183.319 143.055 183.38 143.747 183.608C144.438 183.837 145.065 184.226 145.577 184.744C145.664 184.817 145.771 184.865 145.884 184.88C145.997 184.895 146.112 184.878 146.216 184.831Z" fill="#263238"/>
<path d="M110.529 204.489C107.72 202.7 105.31 200.349 103.451 197.586C101.591 194.822 100.322 191.704 99.7231 188.427C97.7866 177.361 117.739 166.313 128.857 165.448C139.974 164.584 138.211 176.756 138.211 176.756C138.211 176.756 123.808 181.943 118.846 185.038C113.884 188.133 118.846 189.966 118.846 189.966L110.529 204.489Z" fill="#263238"/>
<path d="M83.8339 280.566C83.8339 280.445 83.9377 280.289 84.1278 280.082H62.9993C62.4712 281.135 62.1207 282.269 61.9619 283.436C60.8207 294.502 97.13 307.003 97.13 307.003L105.948 299.516C105.948 299.516 83.8339 282.433 83.8339 280.566Z" fill="#263238"/>
<path d="M357.727 168.267L270.153 184.934C267.418 185.456 264.607 185.433 261.881 184.868C259.154 184.303 256.566 183.207 254.264 181.641C251.961 180.076 249.99 178.072 248.462 175.745C246.934 173.417 245.879 170.812 245.359 168.076C244.835 165.341 244.855 162.53 245.419 159.803C245.983 157.075 247.08 154.486 248.646 152.183C250.211 149.88 252.216 147.909 254.545 146.381C256.873 144.854 259.48 143.801 262.216 143.282L349.808 126.684C355.334 125.636 361.049 126.825 365.699 129.989C370.348 133.153 373.55 138.034 374.602 143.559C375.625 149.071 374.424 154.765 371.262 159.394C368.1 164.024 363.234 167.214 357.727 168.267Z" fill="#315D9E"/>
<path opacity="0.6" d="M357.727 168.267L270.153 184.934C267.418 185.456 264.607 185.433 261.881 184.868C259.154 184.303 256.566 183.207 254.264 181.641C251.961 180.076 249.99 178.072 248.462 175.745C246.934 173.417 245.879 170.812 245.359 168.076C244.835 165.341 244.855 162.53 245.419 159.803C245.983 157.075 247.08 154.486 248.646 152.183C250.211 149.88 252.216 147.909 254.545 146.381C256.873 144.854 259.48 143.801 262.216 143.282L349.808 126.684C355.334 125.636 361.049 126.825 365.699 129.989C370.348 133.153 373.55 138.034 374.602 143.559C375.625 149.071 374.424 154.765 371.262 159.394C368.1 164.024 363.234 167.214 357.727 168.267Z" fill="white"/>
<path d="M285.211 165.569L285.626 167.8L274.941 169.909L272.227 155.662L282.601 153.674L283.016 155.904L275.252 157.374L275.961 161.074L282.877 159.777L283.292 161.956L276.376 163.252L277.12 167.195L285.211 165.569Z" fill="black"/>
<path d="M297.92 165.448L294.15 161.835L293.597 161.956L290.381 162.578L291.176 166.728L288.531 167.229L285.816 152.965L291.678 151.858C295.43 151.132 298.11 152.619 298.715 155.766C298.944 156.735 298.855 157.751 298.463 158.667C298.071 159.582 297.396 160.347 296.536 160.849L300.703 164.912L297.92 165.448ZM292.041 154.123L288.946 154.711L290.035 160.382L293.13 159.794C295.447 159.362 296.45 158.065 296.121 156.336C295.793 154.607 294.375 153.674 292.041 154.123Z" fill="black"/>
<path d="M312.825 162.613L309.107 158.999L308.571 159.12L305.355 159.725L306.133 163.892L303.488 164.394L300.773 150.129L306.652 149.023C310.387 148.297 313.084 149.783 313.689 152.93C313.912 153.899 313.821 154.914 313.43 155.828C313.038 156.741 312.366 157.507 311.511 158.014L315.678 162.077L312.825 162.613ZM306.946 151.288L303.851 151.876L304.94 157.547L308.035 156.959C310.352 156.527 311.355 155.23 311.009 153.501C310.663 151.772 309.28 150.89 306.946 151.288Z" fill="black"/>
<path d="M316.023 154.625C315.66 153.106 315.76 151.514 316.31 150.053C316.861 148.592 317.836 147.329 319.111 146.428C320.386 145.526 321.901 145.027 323.462 144.995C325.023 144.963 326.558 145.399 327.869 146.247C329.18 147.095 330.206 148.316 330.817 149.753C331.427 151.19 331.593 152.777 331.293 154.309C330.994 155.841 330.242 157.249 329.135 158.349C328.028 159.45 326.616 160.195 325.083 160.486C324.101 160.727 323.081 160.764 322.085 160.596C321.088 160.428 320.137 160.058 319.288 159.51C318.44 158.961 317.713 158.244 317.151 157.404C316.59 156.564 316.206 155.618 316.023 154.625ZM328.714 152.204C328.537 151.186 328.061 150.244 327.346 149.499C326.631 148.753 325.71 148.238 324.7 148.02C323.691 147.801 322.639 147.889 321.68 148.272C320.72 148.655 319.897 149.315 319.316 150.169C318.734 151.023 318.421 152.031 318.416 153.064C318.411 154.096 318.714 155.107 319.287 155.967C319.86 156.826 320.677 157.495 321.632 157.887C322.588 158.28 323.639 158.378 324.65 158.169C325.318 158.062 325.957 157.82 326.528 157.458C327.1 157.096 327.591 156.622 327.973 156.064C328.355 155.506 328.619 154.876 328.749 154.212C328.879 153.548 328.873 152.865 328.731 152.204H328.714Z" fill="black"/>
<path d="M344.88 156.509L341.18 152.896L340.626 153.017L337.41 153.622L338.206 157.789L335.56 158.29L332.846 143.974L338.707 142.867C342.459 142.141 345.139 143.628 345.744 146.775C345.973 147.744 345.885 148.761 345.492 149.676C345.1 150.591 344.425 151.356 343.566 151.858L347.732 155.922L344.88 156.509ZM339.001 145.184L335.906 145.772L336.995 151.443L340.09 150.855C342.407 150.423 343.41 149.126 343.064 147.397C342.718 145.668 341.335 144.735 339.001 145.184Z" fill="black"/>
</svg>
