<svg width="732" height="544" viewBox="0 0 732 544" fill="none" xmlns="http://www.w3.org/2000/svg">
<path d="M731.072 478.059H0.988281V478.424H731.072V478.059Z" fill="#E0E0E0"/>
<path d="M628.451 497.129H586.997V497.494H628.451V497.129Z" fill="#E0E0E0"/>
<path d="M576.294 497.304H539.25V497.669H576.294V497.304Z" fill="#E0E0E0"/>
<path d="M404.9 488.85H355.035V489.215H404.9V488.85Z" fill="#E0E0E0"/>
<path d="M498.934 500.166H429.635V500.531H498.934V500.166Z" fill="#E0E0E0"/>
<path d="M209.559 488.426H142.464V488.791H209.559V488.426Z" fill="#E0E0E0"/>
<path d="M240.455 488.426H217.662V488.791H240.455V488.426Z" fill="#E0E0E0"/>
<path d="M150.904 494.997H92.1904V495.362H150.904V494.997Z" fill="#E0E0E0"/>
<path d="M347.048 412.935H65.1042C62.8955 412.932 60.7785 412.051 59.2181 410.488C57.6577 408.925 56.7812 406.807 56.7813 404.598V8.26455C56.8005 6.06849 57.6854 3.96871 59.2437 2.42128C60.8021 0.873852 62.9081 0.00376196 65.1042 0L347.048 0C349.259 0 351.38 0.878419 352.944 2.44201C354.507 4.00561 355.386 6.1263 355.386 8.33756V404.598C355.386 406.809 354.507 408.93 352.944 410.493C351.38 412.057 349.259 412.935 347.048 412.935ZM65.1042 0.292034C62.9923 0.295902 60.9682 1.13757 59.4762 2.63229C57.9842 4.127 57.1463 6.15263 57.1463 8.26455V404.598C57.1463 406.71 57.9842 408.735 59.4762 410.23C60.9682 411.725 62.9923 412.566 65.1042 412.57H347.048C349.16 412.563 351.183 411.72 352.677 410.227C354.17 408.733 355.013 406.71 355.021 404.598V8.26455C355.013 6.15247 354.17 4.1291 352.677 2.63563C351.183 1.14216 349.16 0.299728 347.048 0.292034H65.1042Z" fill="#E0E0E0"/>
<path d="M662.897 412.935H380.938C378.729 412.928 376.613 412.047 375.051 410.485C373.489 408.923 372.608 406.807 372.601 404.598V8.26455C372.624 6.06716 373.512 3.96739 375.072 2.42036C376.633 0.87334 378.741 0.00372093 380.938 0L662.897 0C665.09 0.00759944 667.192 0.879385 668.748 2.4264C670.303 3.97342 671.186 6.07102 671.205 8.26455V404.598C671.207 405.691 670.993 406.773 670.577 407.784C670.16 408.795 669.549 409.713 668.777 410.487C668.006 411.262 667.09 411.876 666.08 412.296C665.071 412.716 663.99 412.933 662.897 412.935ZM380.938 0.292034C378.826 0.299728 376.803 1.14216 375.309 2.63563C373.816 4.1291 372.973 6.15247 372.966 8.26455V404.598C372.973 406.71 373.816 408.733 375.309 410.227C376.803 411.72 378.826 412.563 380.938 412.57H662.897C665.009 412.563 667.032 411.72 668.525 410.227C670.019 408.733 670.861 406.71 670.869 404.598V8.26455C670.861 6.15247 670.019 4.1291 668.525 2.63563C667.032 1.14216 665.009 0.299728 662.897 0.292034H380.938Z" fill="#E0E0E0"/>
<path d="M480.449 35.4383H105.186V224.618H480.449V35.4383Z" fill="#E0E0E0"/>
<path d="M485.34 35.4383H110.077V224.618H485.34V35.4383Z" fill="#EFEFEF"/>
<path d="M476.564 44.3015H118.867V215.725H476.564V44.3015Z" fill="#F4F4F4"/>
<path d="M145.355 215.74L242.369 44.3161H287.824L190.825 215.74H145.355Z" fill="white"/>
<path d="M206.083 215.74L303.097 44.3161H348.552L251.553 215.74H206.083Z" fill="white"/>
<path d="M332.446 215.74L429.445 44.3161H448.165L351.166 215.74H332.446Z" fill="white"/>
<path d="M360.117 44.3015H346.888V215.725H360.117V44.3015Z" fill="#E0E0E0"/>
<path d="M238.776 44.3015H225.547V215.725H238.776V44.3015Z" fill="#E0E0E0"/>
<path d="M364.759 37.7161H351.53V221.376H364.759V37.7161Z" fill="#F4F4F4"/>
<path d="M243.42 37.7161H230.19V221.376H243.42V37.7161Z" fill="#F4F4F4"/>
<path d="M476.564 44.3015H472.87V215.725H476.564V44.3015Z" fill="#E0E0E0"/>
<path d="M573.141 280.469C573.141 280.469 546.361 234.313 583.508 197.575C583.508 197.575 593.203 203.883 593.057 212.381C592.911 220.88 582.675 223.026 584.866 230.122C587.056 237.219 596.737 244.169 590.4 250.024C584.063 255.88 591.407 261.107 590.984 268.277C590.56 275.446 573.141 280.469 573.141 280.469Z" fill="#E0E0E0"/>
<path d="M577.345 288.018C577.345 288.018 588.194 235.773 541.352 212.615C541.352 212.615 534.153 221.668 536.972 229.684C539.79 237.701 550.186 236.518 550.332 243.936C550.478 251.353 543.499 261.005 551.369 264.568C559.239 268.131 553.895 275.402 556.567 282.09C559.239 288.777 577.345 288.018 577.345 288.018Z" fill="#EBEBEB"/>
<path d="M553.501 274.745C553.501 274.745 553.968 296.531 571.987 296.531C590.005 296.531 590.487 274.745 590.487 274.745H553.501Z" fill="#F4F4F4"/>
<path d="M428.467 279.564C428.467 279.564 429.08 296.531 452.779 296.531C476.477 296.531 477.105 279.564 477.105 279.564H428.467Z" fill="#EBEBEB"/>
<path d="M483.471 283.769C483.471 283.769 483.938 296.531 501.752 296.531C519.566 296.531 520.019 283.769 520.019 283.769H483.471Z" fill="#EBEBEB"/>
<path d="M445.156 307.117H405.265V467.108H445.156V307.117Z" fill="#EBEBEB"/>
<path d="M609.63 467.093H412.916V478.059H609.63V467.093Z" fill="#EBEBEB"/>
<path d="M617.295 307.102H445.156V467.093H617.295V307.102Z" fill="#F4F4F4"/>
<path d="M601.614 322.58H460.839V379.322H601.614V322.58Z" fill="#EBEBEB"/>
<path d="M601.614 389.66H460.839V446.402H601.614V389.66Z" fill="#EBEBEB"/>
<path d="M547.09 328.801H515.419C514.388 328.801 513.398 328.392 512.668 327.664C511.937 326.936 511.524 325.948 511.521 324.916C511.528 323.885 511.941 322.898 512.671 322.168C513.4 321.439 514.388 321.025 515.419 321.018H547.09C548.122 321.025 549.109 321.439 549.838 322.168C550.568 322.898 550.981 323.885 550.989 324.916C550.985 325.948 550.573 326.936 549.842 327.664C549.111 328.392 548.122 328.801 547.09 328.801Z" fill="#F4F4F4"/>
<path d="M547.09 395.881H515.419C514.388 395.881 513.398 395.472 512.668 394.744C511.937 394.016 511.524 393.028 511.521 391.997C511.528 390.965 511.941 389.978 512.671 389.248C513.4 388.519 514.388 388.106 515.419 388.098H547.09C548.122 388.106 549.109 388.519 549.838 389.248C550.568 389.978 550.981 390.965 550.989 391.997C550.985 393.028 550.573 394.016 549.842 394.744C549.111 395.472 548.122 395.881 547.09 395.881Z" fill="#F4F4F4"/>
<path d="M622.596 296.531H445.142V307.117H622.596V296.531Z" fill="#EBEBEB"/>
<path d="M445.141 296.516H399.672V307.102H445.141V296.516Z" fill="#E0E0E0"/>
<path d="M613.704 62.0717H527.291V161.626H613.704V62.0717Z" fill="#EBEBEB"/>
<path d="M623.516 62.0717H529.875V161.626H623.516V62.0717Z" fill="#F4F4F4"/>
<path d="M615.675 69.9128H537.717V153.77H615.675V69.9128Z" fill="white"/>
<path d="M589.903 90.2384H563.489C559.69 90.2384 556.611 93.3175 556.611 97.1158V126.567C556.611 130.366 559.69 133.445 563.489 133.445H589.903C593.701 133.445 596.781 130.366 596.781 126.567V97.1158C596.781 93.3175 593.701 90.2384 589.903 90.2384Z" fill="#F4F4F4"/>
<path d="M393.904 385.367H383.873V478.059H393.904V385.367Z" fill="#E0E0E0"/>
<path opacity="0.5" d="M393.905 385.367H388.882V478.059H393.905V385.367Z" fill="#F4F4F4"/>
<path d="M349.968 411.329H343.076C343.831 410.69 344.438 409.894 344.854 408.996C345.27 408.098 345.486 407.121 345.485 406.131H263.818C263.819 407.122 264.037 408.1 264.455 408.998C264.874 409.896 265.484 410.691 266.242 411.329H259.437C256.998 411.329 254.658 412.298 252.933 414.024C251.207 415.749 250.238 418.089 250.238 420.528V447.352C250.238 449.791 251.207 452.131 252.933 453.856C254.658 455.581 256.998 456.551 259.437 456.551H349.968C352.407 456.551 354.747 455.581 356.472 453.856C358.198 452.131 359.167 449.791 359.167 447.352V420.528C359.167 418.089 358.198 415.749 356.472 414.024C354.747 412.298 352.407 411.329 349.968 411.329Z" fill="#F4F4F4"/>
<path d="M274.434 431.144H219.517C216.098 431.144 213.326 433.916 213.326 437.335V450.359C213.326 453.779 216.098 456.551 219.517 456.551H274.434C277.853 456.551 280.625 453.779 280.625 450.359V437.335C280.625 433.916 277.853 431.144 274.434 431.144Z" fill="#EBEBEB"/>
<path d="M278.552 425.537H215.4C214.254 425.537 213.326 426.465 213.326 427.61V429.976C213.326 431.121 214.254 432.049 215.4 432.049H278.552C279.697 432.049 280.625 431.121 280.625 429.976V427.61C280.625 426.465 279.697 425.537 278.552 425.537Z" fill="#E0E0E0"/>
<path d="M286.83 343.972C286.83 343.972 287.779 374.635 323.699 374.635C359.619 374.635 360.569 343.972 360.569 343.972H286.83Z" fill="#EBEBEB"/>
<path d="M158.379 374.65H113.581V385.367H158.379V374.65Z" fill="#E0E0E0"/>
<path d="M428.672 374.65H158.395V385.367H428.672V374.65Z" fill="#F4F4F4"/>
<path d="M158.379 456.551H113.581V467.268H158.379V456.551Z" fill="#E0E0E0"/>
<path d="M123.628 385.367H113.597V478.059H123.628V385.367Z" fill="#E0E0E0"/>
<path opacity="0.5" d="M123.627 385.367H118.604V478.059H123.627V385.367Z" fill="#F4F4F4"/>
<path d="M163.402 385.367H153.371V478.059H163.402V385.367Z" fill="#F4F4F4"/>
<path d="M158.394 385.367H153.371V478.059H158.394V385.367Z" fill="#E0E0E0"/>
<path d="M428.656 385.367H418.625V478.059H428.656V385.367Z" fill="#F4F4F4"/>
<path d="M423.648 385.367H418.625V478.059H423.648V385.367Z" fill="#E0E0E0"/>
<path d="M428.672 456.551H158.395V467.268H428.672V456.551Z" fill="#F4F4F4"/>
<path d="M230.468 368.327H175.975V374.65H230.468V368.327Z" fill="#E0E0E0"/>
<path d="M249.99 368.313H230.468V374.635H249.99V368.313Z" fill="#EBEBEB"/>
<path d="M366.03 544C522.388 544 649.142 536.6 649.142 527.471C649.142 518.342 522.388 510.942 366.03 510.942C209.671 510.942 82.918 518.342 82.918 527.471C82.918 536.6 209.671 544 366.03 544Z" fill="#F5F5F5"/>
<path d="M319.115 139.738C319.217 157.041 306.82 156.866 307.068 151.419C307.317 145.973 304.25 133.182 307.068 134.423C309.886 135.664 319.071 132.087 319.115 139.738Z" fill="#1A2E35"/>
<path d="M311.317 171.073C313.026 170.942 316.457 172.533 316.764 177.045C316.844 178.356 317.227 179.631 317.883 180.768C318.539 181.906 319.451 182.876 320.546 183.601C320.546 183.601 314.866 184.288 311.142 181.338C308.105 178.958 306.762 173.745 308.353 172.577C309.227 171.878 310.236 171.366 311.317 171.073Z" fill="#1A2E35"/>
<path d="M309.083 158.779C312.004 161.363 314.676 168.197 308.09 171.438C301.505 174.68 291.152 167.058 291.152 167.058L302.527 161.787L309.083 158.779Z" fill="#1A2E35"/>
<path d="M312.326 171.701C312.166 170.755 311.901 169.829 311.537 168.941C311.509 168.867 311.468 168.8 311.414 168.742C311.36 168.684 311.295 168.638 311.223 168.605C311.151 168.573 311.073 168.555 310.995 168.552C310.916 168.55 310.837 168.563 310.763 168.591H310.646L306.602 171.292C306.536 171.336 306.48 171.393 306.437 171.458C306.394 171.524 306.364 171.598 306.349 171.675C306.334 171.752 306.334 171.832 306.35 171.909C306.366 171.986 306.397 172.059 306.441 172.125C306.487 172.185 306.541 172.239 306.602 172.285C307.185 172.709 307.812 173.072 308.471 173.366C309.42 173.745 311.391 172.665 312.063 172.198C312.147 172.146 312.215 172.072 312.262 171.985C312.308 171.898 312.33 171.8 312.326 171.701Z" fill="#315D9E"/>
<path opacity="0.3" d="M312.326 171.701C312.166 170.755 311.901 169.829 311.537 168.941C311.509 168.867 311.468 168.8 311.414 168.742C311.36 168.684 311.295 168.638 311.223 168.605C311.151 168.573 311.073 168.555 310.995 168.552C310.916 168.55 310.837 168.563 310.763 168.591H310.646L306.602 171.292C306.536 171.336 306.48 171.393 306.437 171.458C306.394 171.524 306.364 171.598 306.349 171.675C306.334 171.752 306.334 171.832 306.35 171.909C306.366 171.986 306.397 172.059 306.441 172.125C306.487 172.185 306.541 172.239 306.602 172.285C307.185 172.709 307.812 173.072 308.471 173.366C309.42 173.745 311.391 172.665 312.063 172.198C312.147 172.146 312.215 172.072 312.262 171.985C312.308 171.898 312.33 171.8 312.326 171.701Z" fill="black"/>
<path d="M268.798 164.532C267.177 163.991 263.468 164.721 262.096 169.044C261.705 170.297 261.029 171.443 260.123 172.393C259.216 173.343 258.102 174.071 256.868 174.519C256.868 174.519 262.227 176.534 266.549 174.519C270.053 172.928 272.536 168.167 271.324 166.649C270.637 165.776 269.777 165.055 268.798 164.532Z" fill="#1A2E35"/>
<path d="M284.888 134.817C278.975 136.423 271.017 143.432 274.55 152.033C271.061 154.413 266.593 161.261 271.82 165.641C277.442 170.358 291.269 163.743 291.269 163.743L291.372 161.495L293.022 144.761L284.888 134.817Z" fill="#1A2E35"/>
<path d="M267.674 164.911C268.063 164.026 268.553 163.188 269.134 162.414C269.237 162.289 269.385 162.209 269.546 162.193C269.708 162.176 269.869 162.224 269.995 162.327L270.083 162.414L273.354 165.992C273.409 166.047 273.453 166.113 273.484 166.186C273.514 166.259 273.529 166.337 273.529 166.415C273.529 166.494 273.514 166.572 273.484 166.644C273.453 166.717 273.409 166.783 273.354 166.839C273.308 166.894 273.247 166.935 273.179 166.956C272.515 167.228 271.825 167.428 271.12 167.554C270.098 167.7 268.521 166.196 267.907 165.583C267.805 165.508 267.728 165.403 267.686 165.283C267.645 165.163 267.64 165.034 267.674 164.911Z" fill="#315D9E"/>
<path opacity="0.3" d="M267.674 164.911C268.063 164.026 268.553 163.188 269.134 162.414C269.237 162.289 269.385 162.209 269.546 162.193C269.708 162.176 269.869 162.224 269.995 162.327L270.083 162.414L273.354 165.992C273.409 166.047 273.453 166.113 273.484 166.186C273.514 166.259 273.529 166.337 273.529 166.415C273.529 166.494 273.514 166.572 273.484 166.644C273.453 166.717 273.409 166.783 273.354 166.839C273.308 166.894 273.247 166.935 273.179 166.956C272.515 167.228 271.825 167.428 271.12 167.554C270.098 167.7 268.521 166.196 267.907 165.583C267.805 165.508 267.728 165.403 267.686 165.283C267.645 165.163 267.64 165.034 267.674 164.911Z" fill="black"/>
<path d="M320.881 195.765C323.67 197.926 326.722 200.233 329.788 202.335C332.855 204.438 335.936 206.555 339.104 208.497C342.273 210.439 345.485 212.25 348.727 213.973L351.165 215.214L353.647 216.368C354.465 216.762 355.297 217.112 356.144 217.434L357.386 217.945C357.809 218.105 358.262 218.31 358.524 218.383C360.051 218.848 361.614 219.185 363.197 219.39C364.92 219.638 366.731 219.814 368.57 219.945C372.235 220.179 376.003 220.281 379.784 220.295C383.566 220.31 387.392 220.295 391.203 220.179L402.665 219.857L403.381 225.596C395.711 227.14 387.967 228.286 380.179 229.027C376.251 229.378 372.308 229.641 368.278 229.67C366.263 229.67 364.219 229.67 362.116 229.48C359.855 229.349 357.614 228.982 355.429 228.385C354.757 228.21 354.334 228.034 353.837 227.874L352.377 227.363C351.399 227.041 350.435 226.691 349.457 226.297L346.624 225.158L343.85 223.931C340.183 222.28 336.609 220.428 333.147 218.383C329.701 216.353 326.313 214.25 323.042 212.002C319.703 209.74 316.487 207.303 313.405 204.701L320.881 195.765Z" fill="#FD897B"/>
<path d="M305.726 189.209C309.361 186.376 324.328 195.648 328.884 199.517L325.569 219.565C325.569 219.565 304.032 210.542 302.732 204.38C301.389 197.94 302.98 191.37 305.726 189.209Z" fill="#1A2E35"/>
<path d="M401.074 220.354L410.098 213.36L410.814 224.179C410.814 224.179 404.593 228.034 400.49 225.64L401.074 220.354Z" fill="#FD897B"/>
<path d="M418.143 212.294L422.757 217.434L410.755 224.179L410.039 213.36L418.143 212.294Z" fill="#FD897B"/>
<path d="M246.705 513.205L258.08 514.052L262.227 487.871L250.867 487.024L246.705 513.205Z" fill="#FD897B"/>
<path d="M166.235 476.613L175.887 482.688L193.073 462.304L183.422 456.215L166.235 476.613Z" fill="#FD897B"/>
<path d="M178.939 480.512L169.901 471.415C169.745 471.26 169.538 471.165 169.318 471.149C169.099 471.133 168.88 471.196 168.703 471.327L160.483 477.475C160.103 477.781 159.861 478.225 159.809 478.71C159.757 479.194 159.9 479.68 160.205 480.059L160.337 480.205C163.534 483.315 165.243 484.659 169.214 488.66C171.653 491.127 174.967 494.968 178.34 498.37C181.713 501.772 185.247 498.603 184.181 496.91C179.246 489.215 180.136 486.338 179.801 482.425C179.76 481.702 179.453 481.021 178.939 480.512Z" fill="#1A2E35"/>
<path d="M258.839 512.417H246.019C245.793 512.416 245.575 512.495 245.401 512.639C245.228 512.783 245.111 512.983 245.07 513.205L243.04 523.339C242.958 523.784 243.055 524.243 243.309 524.617C243.563 524.991 243.954 525.251 244.398 525.339C244.534 525.354 244.671 525.354 244.807 525.339C249.275 525.339 251.451 525.003 257.087 525.003C260.547 525.003 270.228 525.354 275.061 525.354C279.895 525.354 280.376 520.623 278.405 520.199C269.644 518.272 263.614 515.629 260.737 513.088C260.208 512.639 259.533 512.4 258.839 512.417Z" fill="#1A2E35"/>
<path d="M262.227 487.871L259.92 502.414L248.706 500.531L250.853 487.039L262.227 487.871Z" fill="#E77064"/>
<path d="M183.422 456.229L193.074 462.304L185.963 470.743L176.092 464.917L183.422 456.229Z" fill="#E77064"/>
<path d="M255.35 249.878L300.819 258.742C324.313 195.122 319.203 193.034 319.203 193.034C315.899 191.217 312.486 189.608 308.982 188.216L308.368 187.982C305.448 186.916 304.864 186.755 300.98 185.616C294.292 184.025 288.057 182.696 280.333 181.601L278.873 181.397C277.413 181.221 276.084 181.075 274.741 180.944C273.835 180.842 272.93 180.783 272.069 180.725L269.148 180.564C264.154 180.316 260.577 180.389 260.577 180.389C261.964 220.12 259.716 231.524 255.35 249.878Z" fill="#1A2E35"/>
<path d="M286.904 158.779C286.904 165.671 285.838 178.097 280.318 181.63C280.318 181.63 280.829 188.727 293.168 191.121C306.747 193.764 300.965 185.646 300.965 185.646C293.913 182.433 295.124 176.972 297.461 172.066L286.904 158.779Z" fill="#FD897B"/>
<path d="M291.211 164.196L297.461 172.066C296.919 173.206 296.469 174.388 296.117 175.6C293.358 174.636 290.072 170.781 290.277 167.759C290.366 166.524 290.683 165.316 291.211 164.196Z" fill="#E77064"/>
<path d="M286.247 142.95C284.787 154.179 283.896 158.895 288.393 165.685C295.154 175.906 309.259 175.249 314.063 164.692C318.444 155.187 320.079 138.409 310.077 131.912C308.385 130.794 306.489 130.02 304.498 129.636C302.507 129.251 300.46 129.262 298.473 129.669C296.487 130.076 294.6 130.87 292.92 132.007C291.241 133.143 289.802 134.599 288.685 136.292C287.372 138.295 286.537 140.573 286.247 142.95Z" fill="#FD897B"/>
<path d="M322.795 125.166C323 126.946 322.866 128.75 322.401 130.481C322.296 129.893 322.154 129.313 321.977 128.743C317.976 115.514 299.958 118.668 294.526 124.362C285.765 121.851 277.427 123.851 278.537 134.584C278.676 137.349 279.671 140.002 281.384 142.177C280.027 145.944 281.385 151.945 285.867 152.12C292.175 152.368 298.162 144.016 300.571 139.431C304.952 140.176 311.26 140.892 316.049 139.723C316.852 140.205 317.509 140.541 317.509 140.541C322.605 137.811 326.489 135.168 322.795 125.166Z" fill="#1A2E35"/>
<path d="M282.363 150.616C282.187 152.795 282.874 154.955 284.276 156.632C286.174 158.837 288.656 157.537 289.547 154.924C290.292 152.558 290.189 148.572 287.649 147.331C287.208 147.124 286.73 147.005 286.243 146.983C285.757 146.96 285.27 147.033 284.812 147.199C284.354 147.364 283.932 147.618 283.572 147.947C283.212 148.275 282.92 148.671 282.713 149.112C282.494 149.584 282.375 150.096 282.363 150.616Z" fill="#FD897B"/>
<path d="M300.133 258.742C300.133 258.742 300.308 349.009 292.92 383.002C285.24 418.367 262.651 498.822 262.651 498.822L246.297 496.705C246.297 496.705 259.103 415.432 264.549 380.286C270.492 341.986 266.856 252.258 266.856 252.258L300.133 258.742Z" fill="#315D9E"/>
<path opacity="0.3" d="M300.133 258.742C300.133 258.742 300.308 349.009 292.92 383.002C285.24 418.367 262.651 498.822 262.651 498.822L246.297 496.705C246.297 496.705 259.103 415.432 264.549 380.286C270.492 341.986 266.856 252.258 266.856 252.258L300.133 258.742Z" fill="black"/>
<path d="M265.439 500.239L243.493 497.406L244.428 489.638L269.338 492.558L265.439 500.239Z" fill="#1A2E35"/>
<path d="M288.817 256.405C288.817 256.405 264.33 331.005 252.167 373.978C239.346 419.316 190.197 469.458 190.197 469.458L176.106 461.311C176.106 461.311 209.69 413.709 222.029 371.408C247.158 285.536 236.835 267.342 255.35 249.878L288.817 256.405Z" fill="#315D9E"/>
<path opacity="0.3" d="M288.817 256.405C288.817 256.405 264.33 331.005 252.167 373.978C239.346 419.316 190.197 469.458 190.197 469.458L176.106 461.311C176.106 461.311 209.69 413.709 222.029 371.408C247.158 285.536 236.835 267.342 255.35 249.878L288.817 256.405Z" fill="black"/>
<path d="M192.489 471.722L172.908 460.42L177.785 453.44L199.527 465.428L192.489 471.722Z" fill="#1A2E35"/>
<path d="M302.455 149.331C302.279 150.237 302.615 151.054 303.214 151.171C303.813 151.288 304.426 150.645 304.674 149.711C304.922 148.776 304.513 147.973 303.915 147.857C303.316 147.74 302.63 148.426 302.455 149.331Z" fill="#1A2E35"/>
<path d="M312.661 151.317C312.485 152.222 312.821 153.055 313.42 153.172C314.019 153.288 314.632 152.646 314.807 151.711C314.982 150.777 314.646 149.974 314.048 149.872C313.449 149.769 312.836 150.397 312.661 151.317Z" fill="#1A2E35"/>
<path d="M313.785 149.886L316.078 149.696C316.078 149.696 314.632 151.171 313.785 149.886Z" fill="#1A2E35"/>
<path d="M309.668 152.354C310.072 154.568 310.779 156.715 311.771 158.735C311.247 158.98 310.676 159.107 310.099 159.107C309.521 159.107 308.95 158.98 308.427 158.735L309.668 152.354Z" fill="#FD5652"/>
<path d="M304.601 161.655C303.38 161.455 302.226 160.963 301.237 160.221C300.248 159.478 299.453 158.508 298.921 157.391C298.906 157.36 298.898 157.326 298.897 157.291C298.895 157.256 298.901 157.221 298.913 157.189C298.925 157.156 298.944 157.126 298.968 157.101C298.992 157.076 299.02 157.055 299.052 157.041C299.118 157.016 299.191 157.018 299.256 157.045C299.321 157.072 299.374 157.123 299.403 157.187C299.913 158.213 300.657 159.104 301.575 159.789C302.493 160.474 303.56 160.933 304.688 161.129C304.723 161.135 304.757 161.147 304.786 161.165C304.816 161.184 304.842 161.208 304.863 161.237C304.883 161.265 304.898 161.298 304.905 161.332C304.913 161.366 304.914 161.402 304.907 161.436C304.893 161.505 304.854 161.565 304.797 161.606C304.74 161.646 304.67 161.664 304.601 161.655Z" fill="#1A2E35"/>
<path d="M300.133 145.447C299.992 145.44 299.859 145.381 299.759 145.281C299.659 145.181 299.6 145.048 299.593 144.907C299.599 144.758 299.661 144.617 299.768 144.513C300.394 143.925 301.151 143.495 301.976 143.258C302.802 143.022 303.672 142.987 304.514 143.155C304.652 143.196 304.768 143.289 304.839 143.414C304.91 143.539 304.929 143.687 304.893 143.826C304.876 143.894 304.846 143.957 304.804 144.012C304.763 144.068 304.711 144.115 304.651 144.15C304.591 144.185 304.525 144.208 304.456 144.218C304.388 144.228 304.318 144.224 304.251 144.206C303.582 144.088 302.895 144.126 302.244 144.319C301.592 144.511 300.995 144.853 300.498 145.316C300.398 145.405 300.267 145.452 300.133 145.447Z" fill="#1A2E35"/>
<path d="M318.326 147.477C318.219 147.478 318.114 147.447 318.026 147.387C317.937 147.327 317.869 147.241 317.83 147.141C317.577 146.516 317.184 145.957 316.68 145.509C316.176 145.06 315.575 144.735 314.924 144.557C314.854 144.544 314.787 144.518 314.727 144.48C314.667 144.442 314.615 144.392 314.575 144.334C314.534 144.275 314.505 144.209 314.49 144.14C314.475 144.07 314.473 143.999 314.486 143.929C314.514 143.789 314.595 143.666 314.712 143.584C314.829 143.502 314.973 143.469 315.114 143.491C315.947 143.699 316.718 144.103 317.363 144.669C318.008 145.235 318.509 145.948 318.823 146.747C318.852 146.812 318.868 146.882 318.87 146.954C318.871 147.025 318.859 147.096 318.833 147.162C318.807 147.229 318.769 147.29 318.719 147.341C318.67 147.393 318.611 147.434 318.545 147.462L318.326 147.477Z" fill="#1A2E35"/>
<path d="M303.681 157.333C303.229 157.335 302.783 157.231 302.377 157.031C301.972 156.831 301.618 156.54 301.345 156.18C300.658 155.108 300.2 153.907 299.999 152.651C299.798 151.395 299.858 150.11 300.177 148.879C301.009 144.265 303.9 140.512 306.631 140.512C307.085 140.518 307.532 140.627 307.939 140.829C308.346 141.031 308.702 141.322 308.981 141.68C309.668 142.751 310.126 143.952 310.327 145.209C310.528 146.465 310.468 147.749 310.15 148.981C309.317 153.595 306.412 157.333 303.681 157.333ZM306.601 140.921C304.046 140.921 301.301 144.542 300.498 148.981C299.987 151.901 300.396 154.53 301.593 155.946C301.836 156.262 302.147 156.518 302.504 156.695C302.861 156.873 303.253 156.966 303.652 156.968C306.222 156.968 308.952 153.361 309.755 148.922C310.065 147.749 310.128 146.524 309.939 145.325C309.751 144.126 309.315 142.979 308.66 141.957C308.424 141.641 308.118 141.383 307.766 141.203C307.414 141.024 307.026 140.927 306.631 140.921H306.601Z" fill="#F9F9F9"/>
<path d="M315.026 158.793C314.553 158.787 314.088 158.673 313.666 158.46C313.243 158.248 312.875 157.942 312.587 157.567C311.932 156.584 311.488 155.475 311.285 154.311C311.081 153.147 311.122 151.953 311.405 150.806C312.149 146.513 314.953 143.038 317.654 143.038C318.127 143.051 318.592 143.169 319.014 143.383C319.435 143.598 319.804 143.904 320.093 144.279C320.742 145.262 321.182 146.369 321.386 147.529C321.589 148.69 321.552 149.88 321.275 151.025C320.545 155.333 317.742 158.793 315.026 158.793ZM317.61 143.403C315.07 143.403 312.441 146.747 311.77 150.879C311.508 151.974 311.471 153.111 311.662 154.22C311.853 155.329 312.267 156.389 312.88 157.333C313.14 157.66 313.468 157.926 313.841 158.115C314.214 158.304 314.623 158.411 315.041 158.428C317.581 158.428 320.224 155.099 320.881 150.967C321.141 149.873 321.178 148.737 320.99 147.628C320.802 146.52 320.392 145.46 319.786 144.513C319.527 144.184 319.199 143.914 318.826 143.723C318.454 143.531 318.044 143.422 317.625 143.403H317.61Z" fill="#F9F9F9"/>
<path d="M182.298 485.812C180.838 485.812 179.377 483.564 178.516 482.264C178.487 482.221 178.472 482.17 178.472 482.118C178.472 482.066 178.487 482.015 178.516 481.972C178.547 481.929 178.59 481.896 178.638 481.875C178.687 481.855 178.741 481.848 178.793 481.855C179.261 481.958 183.276 482.834 183.787 484.206C183.845 484.357 183.861 484.522 183.833 484.681C183.804 484.841 183.733 484.989 183.627 485.111C183.489 485.338 183.293 485.522 183.059 485.646C182.825 485.769 182.562 485.827 182.298 485.812ZM179.246 482.527C180.37 484.221 181.466 485.228 182.254 485.272C182.429 485.274 182.602 485.23 182.755 485.146C182.908 485.061 183.038 484.939 183.13 484.79C183.179 484.739 183.213 484.674 183.226 484.604C183.239 484.534 183.231 484.462 183.203 484.396C182.94 483.666 180.852 482.936 179.246 482.527Z" fill="#315D9E"/>
<path d="M179.903 482.527C179.46 482.529 179.019 482.48 178.588 482.381C178.545 482.366 178.505 482.341 178.472 482.308C178.439 482.275 178.414 482.235 178.399 482.191C178.37 482.106 178.37 482.013 178.399 481.928C178.501 481.841 180.735 479.636 182.385 479.636H182.502C182.706 479.649 182.905 479.706 183.086 479.801C183.268 479.897 183.427 480.03 183.553 480.191C183.702 480.346 183.794 480.547 183.815 480.762C183.837 480.976 183.785 481.192 183.67 481.373C183.203 482.162 181.334 482.527 179.903 482.527ZM179.246 481.957C180.618 482.118 182.838 481.724 183.29 481.067C183.363 480.965 183.422 480.804 183.203 480.527C183.126 480.419 183.026 480.331 182.909 480.27C182.792 480.21 182.663 480.177 182.531 480.176C181.276 480.411 180.127 481.034 179.246 481.957Z" fill="#315D9E"/>
<path d="M263.03 514.417C261.821 514.388 260.618 514.241 259.438 513.979C259.382 513.967 259.33 513.939 259.291 513.897C259.252 513.855 259.227 513.802 259.219 513.745C259.212 513.69 259.223 513.634 259.249 513.584C259.275 513.535 259.315 513.494 259.365 513.468C259.905 513.205 264.592 510.869 265.95 511.657C266.073 511.736 266.174 511.844 266.246 511.971C266.317 512.099 266.356 512.242 266.359 512.387C266.374 512.634 266.331 512.88 266.232 513.106C266.133 513.332 265.981 513.531 265.789 513.687C264.977 514.232 264.005 514.489 263.03 514.417ZM260.358 513.629C262.854 514.037 264.738 513.935 265.468 513.307C265.593 513.2 265.692 513.065 265.755 512.913C265.819 512.761 265.845 512.596 265.833 512.431C265.836 512.376 265.824 512.321 265.798 512.272C265.773 512.224 265.734 512.183 265.687 512.154C264.957 511.73 262.358 512.723 260.358 513.614V513.629Z" fill="#315D9E"/>
<path d="M259.511 513.979H259.351C259.308 513.951 259.274 513.912 259.253 513.865C259.232 513.818 259.226 513.767 259.234 513.716C259.234 513.512 259.935 508.868 262.475 508.868H262.694C263.425 508.941 263.629 509.307 263.673 509.613C263.877 510.898 261.044 513.38 259.613 513.994L259.511 513.979ZM262.432 509.365C260.782 509.365 260.052 512.052 259.803 513.22C261.263 512.358 263.206 510.416 263.089 509.642C263.089 509.642 263.089 509.409 262.578 509.365H262.432Z" fill="#315D9E"/>
<path d="M303.579 147.9L305.872 147.696C305.872 147.696 304.426 149.185 303.579 147.9Z" fill="#1A2E35"/>
<path d="M293.548 200.831C274.566 193.633 268.638 182.857 269.09 180.594L272.011 180.769H272.58C273.308 180.788 274.035 180.851 274.756 180.959C276.099 181.075 277.486 181.221 278.888 181.411L280.348 181.616C287.317 182.463 294.216 183.805 300.995 185.631C304.09 186.536 305.113 186.828 306.836 187.442L308.296 187.997L308.909 188.23C310.428 191.501 310.092 198.189 293.548 200.831Z" fill="#FD897B"/>
<path d="M293.548 200.831C274.566 193.633 268.638 182.857 269.09 180.594L272.011 180.769H272.58C276.435 186.244 284.875 193.808 293.475 194.845C300.396 193.385 306.923 191.72 306.865 187.442L308.325 187.997L308.938 188.23C310.428 191.501 310.092 198.189 293.548 200.831Z" fill="#315D9E"/>
<path opacity="0.3" d="M293.548 200.831C274.566 193.633 268.638 182.857 269.09 180.594L272.011 180.769H272.58C276.435 186.244 284.875 193.808 293.475 194.845C300.396 193.385 306.923 191.72 306.865 187.442L308.325 187.997L308.938 188.23C310.428 191.501 310.092 198.189 293.548 200.831Z" fill="black"/>
<path d="M255.189 247.075L252.269 250.755C252.05 251.032 252.371 251.426 252.897 251.528L300.586 260.815C300.995 260.903 301.374 260.815 301.447 260.508L302.645 256.522C302.732 256.245 302.426 255.938 301.973 255.851L255.919 246.885C255.791 246.857 255.658 246.86 255.532 246.893C255.405 246.926 255.287 246.988 255.189 247.075Z" fill="#1A2E35"/>
<path d="M260.372 253.427L259.146 253.193C258.897 253.193 258.737 252.989 258.781 252.828L260.387 247.659C260.387 247.498 260.679 247.425 260.912 247.469L262.154 247.703C262.402 247.703 262.562 247.922 262.519 248.068L260.912 253.251C260.856 253.338 260.772 253.402 260.673 253.434C260.575 253.466 260.469 253.464 260.372 253.427Z" fill="#315D9E"/>
<path opacity="0.3" d="M260.372 253.427L259.146 253.193C258.897 253.193 258.737 252.989 258.781 252.828L260.387 247.659C260.387 247.498 260.679 247.425 260.912 247.469L262.154 247.703C262.402 247.703 262.562 247.922 262.519 248.068L260.912 253.251C260.856 253.338 260.772 253.402 260.673 253.434C260.575 253.466 260.469 253.464 260.372 253.427Z" fill="black"/>
<path d="M263.615 198.013C263.06 201.474 262.534 205.314 262.154 208.906C261.775 212.498 261.439 216.207 261.264 219.945C261.166 221.785 261.108 223.625 261.089 225.464V230.94C261.161 234.516 261.439 238.085 261.921 241.629C262.199 242.841 262.694 243.994 263.381 245.031C264.26 246.45 265.235 247.806 266.301 249.09C268.634 251.86 271.13 254.488 273.777 256.96C276.45 259.53 279.253 262.012 282.13 264.436C285.006 266.86 287.97 269.269 290.891 271.591L287.751 276.439C280.879 272.674 274.308 268.383 268.097 263.604C264.888 261.151 261.862 258.467 259.044 255.573C257.537 254.025 256.156 252.36 254.912 250.594C253.367 248.509 252.269 246.128 251.685 243.6L251.145 240.504C250.955 239.497 250.824 238.489 250.707 237.496C250.415 235.481 250.254 233.481 250.093 231.48C249.789 227.502 249.697 223.51 249.816 219.522C249.933 215.565 250.152 211.622 250.546 207.694C250.94 203.766 251.437 199.912 252.225 195.852L263.615 198.013Z" fill="#FD897B"/>
<path d="M253.918 183.441C247.669 188.493 249.158 203.504 249.158 203.504L270.185 210.425C270.185 210.425 269.221 193.122 268.199 186.901C266.943 179.498 260.051 178.462 253.918 183.441Z" fill="#1A2E35"/>
<path d="M288.321 270.657L297.826 267.123L296.366 276.161C296.366 276.161 289.474 278.644 285.94 275.461L288.321 270.657Z" fill="#FD897B"/>
<path d="M309.142 268.466V275.446L296.365 276.161L297.825 267.123L309.142 268.466Z" fill="#FD897B"/>
<path d="M297.096 260.581L295.869 260.348C295.621 260.348 295.46 260.143 295.504 259.983L297.11 254.814C297.11 254.653 297.402 254.58 297.651 254.624L298.877 254.858C299.125 254.858 299.286 255.077 299.242 255.223L297.636 260.406C297.592 260.552 297.402 260.64 297.096 260.581Z" fill="#315D9E"/>
<path opacity="0.3" d="M297.096 260.581L295.869 260.348C295.621 260.348 295.46 260.143 295.504 259.983L297.11 254.814C297.11 254.653 297.402 254.58 297.651 254.624L298.877 254.858C299.125 254.858 299.286 255.077 299.242 255.223L297.636 260.406C297.592 260.552 297.402 260.64 297.096 260.581Z" fill="black"/>
<path d="M278.741 256.989L277.5 256.756C277.252 256.756 277.091 256.551 277.15 256.391L278.756 251.222C278.756 251.061 279.033 250.988 279.282 251.032L280.523 251.266C280.756 251.266 280.932 251.485 280.873 251.631L279.267 256.814C279.223 256.989 278.99 257.062 278.741 256.989Z" fill="#315D9E"/>
<path opacity="0.3" d="M278.741 256.989L277.5 256.756C277.252 256.756 277.091 256.551 277.15 256.391L278.756 251.222C278.756 251.061 279.033 250.988 279.282 251.032L280.523 251.266C280.756 251.266 280.932 251.485 280.873 251.631L279.267 256.814C279.223 256.989 278.99 257.062 278.741 256.989Z" fill="black"/>
<path d="M185.743 342.132L261.438 507.452C263.173 511.209 266.325 514.127 270.204 515.569C274.083 517.011 278.376 516.859 282.143 515.147L294.161 509.657L572.425 382.257C576.184 380.528 579.105 377.38 580.549 373.503C581.994 369.626 581.845 365.334 580.134 361.567L513.244 215.55L504.483 196.261C502.742 192.509 499.59 189.596 495.713 188.155C491.836 186.714 487.547 186.862 483.778 188.566L193.482 321.441C189.723 323.172 186.801 326.317 185.351 330.193C183.902 334.068 184.043 338.36 185.743 342.132Z" fill="#315D9E"/>
<path opacity="0.1" d="M185.743 342.132L261.438 507.452C263.173 511.209 266.325 514.127 270.204 515.569C274.083 517.011 278.376 516.859 282.143 515.147L294.161 509.657L572.425 382.257C576.184 380.528 579.105 377.38 580.549 373.503C581.994 369.626 581.845 365.334 580.134 361.567L513.244 215.55L504.483 196.261C502.742 192.509 499.59 189.596 495.713 188.155C491.836 186.714 487.547 186.862 483.778 188.566L193.482 321.441C189.723 323.172 186.801 326.317 185.351 330.193C183.902 334.068 184.043 338.36 185.743 342.132Z" fill="white"/>
<path d="M535.157 263.317L216.471 409.222L253.768 490.686L572.454 344.78L535.157 263.317Z" fill="#315D9E"/>
<path opacity="0.3" d="M535.157 263.317L216.471 409.222L253.768 490.686L572.454 344.78L535.157 263.317Z" fill="white"/>
<path d="M521.96 301.004L320.57 393.207L333.918 422.362L535.308 330.158L521.96 301.004Z" fill="#315D9E"/>
<path opacity="0.8" d="M521.96 301.004L320.57 393.207L333.918 422.362L535.308 330.158L521.96 301.004Z" fill="white"/>
<path d="M524.248 233.628L205.306 380.865L225.386 424.362L544.328 277.125L524.248 233.628Z" fill="#315D9E"/>
<path opacity="0.3" d="M524.248 233.628L205.306 380.865L225.386 424.362L544.328 277.125L524.248 233.628Z" fill="black"/>
<path d="M229.022 344.205L294.16 509.598L572.424 382.199C576.183 380.469 579.104 377.322 580.549 373.445C581.994 369.567 581.845 365.276 580.134 361.508L513.244 215.492L237.842 323.953C233.997 325.482 230.913 328.469 229.261 332.263C227.609 336.056 227.523 340.349 229.022 344.205Z" fill="#315D9E"/>
<path d="M597.332 291.925L595.954 292.409L598.234 298.897L599.612 298.413L597.332 291.925Z" fill="#315D9E"/>
<path opacity="0.1" d="M597.332 291.925L595.954 292.409L598.234 298.897L599.612 298.413L597.332 291.925Z" fill="white"/>
<path d="M585.834 259.312L584.456 259.796L593.436 285.366L594.813 284.882L585.834 259.312Z" fill="#315D9E"/>
<path opacity="0.1" d="M585.834 259.312L584.456 259.796L593.436 285.366L594.813 284.882L585.834 259.312Z" fill="white"/>
<path d="M248.399 324.522L549.632 218.733C553.54 217.373 557.827 217.616 561.556 219.408C565.286 221.2 568.154 224.396 569.534 228.297L629.78 399.852C631.142 403.76 630.901 408.048 629.112 411.78C627.323 415.511 624.13 418.383 620.231 419.769L318.998 525.558C315.088 526.911 310.802 526.665 307.072 524.874C303.343 523.082 300.471 519.891 299.082 515.994L238.835 344.439C237.475 340.529 237.717 336.24 239.509 332.508C241.301 328.776 244.497 325.905 248.399 324.522Z" fill="#315D9E"/>
<path opacity="0.1" d="M248.399 324.522L549.632 218.733C553.54 217.373 557.827 217.616 561.556 219.408C565.286 221.2 568.154 224.396 569.534 228.297L629.78 399.852C631.142 403.76 630.901 408.048 629.112 411.78C627.323 415.511 624.13 418.383 620.231 419.769L318.998 525.558C315.088 526.911 310.802 526.665 307.072 524.874C303.343 523.082 300.471 519.891 299.082 515.994L238.835 344.439C237.475 340.529 237.717 336.24 239.509 332.508C241.301 328.776 244.497 325.905 248.399 324.522Z" fill="white"/>
<path d="M592.597 293.949L261.897 410.082L288.105 484.711L618.805 368.578L592.597 293.949Z" fill="#315D9E"/>
<path opacity="0.3" d="M592.597 293.949L261.897 410.082L288.105 484.711L618.805 368.578L592.597 293.949Z" fill="white"/>
<path d="M553.011 257.629L484.65 281.635L488.39 292.285L556.751 268.278L553.011 257.629Z" fill="#315D9E"/>
<path opacity="0.8" d="M553.011 257.629L484.65 281.635L488.39 292.285L556.751 268.278L553.011 257.629Z" fill="white"/>
<path d="M598.812 388.044L543.967 407.304L545.921 412.87L600.767 393.61L598.812 388.044Z" fill="#315D9E"/>
<path opacity="0.8" d="M598.812 388.044L543.967 407.304L545.921 412.87L600.767 393.61L598.812 388.044Z" fill="white"/>
<path d="M602.543 398.692L531.868 423.512L533.823 429.078L604.498 404.258L602.543 398.692Z" fill="#315D9E"/>
<path opacity="0.8" d="M602.543 398.692L531.868 423.512L533.823 429.078L604.498 404.258L602.543 398.692Z" fill="white"/>
<path d="M350.539 479.996L315.201 492.406L319.405 504.378L354.743 491.968L350.539 479.996Z" fill="#315D9E"/>
<path opacity="0.8" d="M350.539 479.996L315.201 492.406L319.405 504.378L354.743 491.968L350.539 479.996Z" fill="white"/>
<path d="M539.484 377.453L580.748 362.968C582.923 362.194 584.705 360.593 585.706 358.512C586.707 356.431 586.845 354.039 586.092 351.857C585.318 349.681 583.716 347.899 581.636 346.899C579.555 345.898 577.163 345.759 574.98 346.512L533.701 361.012C531.526 361.786 529.744 363.388 528.744 365.468C527.743 367.549 527.604 369.941 528.357 372.124C529.134 374.3 530.739 376.081 532.823 377.079C534.907 378.077 537.301 378.212 539.484 377.453Z" fill="#315D9E"/>
<path d="M468.797 402.276L510.076 387.777C512.235 386.999 514.003 385.406 514.999 383.339C515.996 381.272 516.142 378.897 515.406 376.723C514.629 374.551 513.026 372.772 510.945 371.774C508.865 370.776 506.475 370.64 504.294 371.394L463.03 385.893C460.854 386.667 459.073 388.269 458.072 390.35C457.071 392.431 456.932 394.822 457.685 397.005C458.474 399.167 460.082 400.932 462.161 401.918C464.24 402.904 466.624 403.033 468.797 402.276Z" fill="#315D9E"/>
<path d="M398.154 427.099L439.433 412.6C441.587 411.816 443.348 410.221 444.338 408.154C445.329 406.088 445.471 403.716 444.733 401.546C443.956 399.373 442.354 397.595 440.273 396.597C438.193 395.599 435.802 395.463 433.622 396.216L392.313 410.658C390.141 411.435 388.362 413.037 387.365 415.118C386.367 417.198 386.23 419.589 386.984 421.769C387.76 423.956 389.373 425.745 391.467 426.744C393.561 427.743 395.966 427.871 398.154 427.099Z" fill="#315D9E"/>
<path d="M327.438 451.922L368.717 437.422C370.878 436.648 372.649 435.056 373.649 432.988C374.648 430.921 374.796 428.544 374.061 426.369C373.284 424.196 371.681 422.418 369.601 421.42C367.52 420.422 365.13 420.285 362.949 421.039L321.67 435.539C319.495 436.313 317.713 437.915 316.712 439.995C315.712 442.076 315.573 444.468 316.326 446.651C317.115 448.813 318.722 450.577 320.801 451.564C322.881 452.55 325.265 452.679 327.438 451.922Z" fill="#315D9E"/>
<g opacity="0.8">
<path d="M539.484 377.453L580.748 362.968C582.923 362.194 584.705 360.593 585.706 358.512C586.707 356.431 586.845 354.039 586.092 351.857C585.318 349.681 583.716 347.899 581.636 346.899C579.555 345.898 577.163 345.759 574.98 346.512L533.701 361.012C531.526 361.786 529.744 363.388 528.744 365.468C527.743 367.549 527.604 369.941 528.357 372.124C529.134 374.3 530.739 376.081 532.823 377.079C534.907 378.077 537.301 378.212 539.484 377.453Z" fill="white"/>
<path d="M468.796 402.276L510.075 387.777C512.234 386.999 514.002 385.406 514.998 383.339C515.995 381.272 516.141 378.897 515.405 376.723C514.628 374.551 513.025 372.772 510.944 371.774C508.864 370.776 506.474 370.64 504.293 371.394L463.029 385.893C460.853 386.667 459.072 388.269 458.071 390.35C457.07 392.43 456.931 394.822 457.684 397.005C458.473 399.167 460.081 400.932 462.16 401.918C464.239 402.904 466.623 403.033 468.796 402.276Z" fill="white"/>
<path d="M398.153 427.099L439.432 412.6C441.586 411.816 443.347 410.221 444.337 408.154C445.328 406.088 445.47 403.716 444.732 401.546C443.955 399.373 442.353 397.595 440.272 396.597C438.192 395.599 435.801 395.463 433.621 396.216L392.312 410.658C390.14 411.435 388.361 413.037 387.364 415.118C386.366 417.198 386.229 419.589 386.983 421.769C387.759 423.956 389.372 425.745 391.466 426.744C393.56 427.743 395.965 427.871 398.153 427.099Z" fill="white"/>
<path d="M327.438 451.922L368.717 437.422C370.878 436.648 372.649 435.056 373.649 432.988C374.648 430.921 374.796 428.544 374.061 426.369C373.284 424.196 371.681 422.418 369.601 421.42C367.52 420.422 365.13 420.285 362.949 421.039L321.67 435.539C319.495 436.313 317.713 437.915 316.712 439.995C315.712 442.076 315.573 444.468 316.326 446.651C317.115 448.813 318.722 450.577 320.801 451.564C322.881 452.55 325.265 452.679 327.438 451.922Z" fill="white"/>
</g>
<path d="M560.932 298.257L524.203 311.155C521.084 312.25 519.443 315.667 520.538 318.787L528.192 340.582C529.288 343.702 532.705 345.342 535.824 344.247L572.553 331.349C575.673 330.253 577.314 326.836 576.218 323.716L568.564 301.921C567.469 298.802 564.052 297.161 560.932 298.257Z" fill="#315D9E"/>
<path opacity="0.3" d="M560.932 298.257L524.203 311.155C521.084 312.25 519.443 315.667 520.538 318.787L528.192 340.582C529.288 343.702 532.705 345.342 535.824 344.247L572.553 331.349C575.673 330.253 577.314 326.836 576.218 323.716L568.564 301.921C567.469 298.802 564.052 297.161 560.932 298.257Z" fill="black"/>
<path d="M339.28 338.759C338.364 336.141 336.941 333.73 335.092 331.663C333.244 329.596 331.006 327.913 328.506 326.712C326.007 325.51 323.295 324.813 320.526 324.66C317.757 324.508 314.985 324.902 312.369 325.822L282.698 336.963L282.319 337.065L281.443 337.43L280.902 337.635C276.111 339.798 272.338 343.724 270.366 348.596C268.394 353.469 268.375 358.914 270.313 363.801C272.25 368.687 275.996 372.64 280.771 374.837C285.547 377.034 290.985 377.307 295.957 375.599L324.05 366.254C324.86 366.073 325.659 365.848 326.445 365.582C327.026 365.379 327.597 365.145 328.153 364.881C332.928 362.695 336.715 358.805 338.773 353.974C340.831 349.142 341.011 343.717 339.28 338.759Z" fill="#315D9E"/>
<path opacity="0.8" d="M339.28 338.759C338.364 336.141 336.941 333.73 335.092 331.663C333.244 329.596 331.006 327.913 328.506 326.712C326.007 325.51 323.295 324.813 320.526 324.66C317.757 324.508 314.985 324.902 312.369 325.822L282.698 336.963L282.319 337.065L281.443 337.43L280.902 337.635C276.111 339.798 272.338 343.724 270.366 348.596C268.394 353.469 268.375 358.914 270.313 363.801C272.25 368.687 275.996 372.64 280.771 374.837C285.547 377.034 290.985 377.307 295.957 375.599L324.05 366.254C324.86 366.073 325.659 365.848 326.445 365.582C327.026 365.379 327.597 365.145 328.153 364.881C332.928 362.695 336.715 358.805 338.773 353.974C340.831 349.142 341.011 343.717 339.28 338.759Z" fill="white"/>
</svg>
