<svg width="72" height="72" viewBox="0 0 72 72" fill="none" xmlns="http://www.w3.org/2000/svg">
<path d="M23.8185 7.36197C22.9749 8.20585 22.501 9.35023 22.501 10.5435C22.501 11.7367 22.9749 12.8811 23.8185 13.725L46.0935 36L23.8185 58.275C22.9988 59.1237 22.5452 60.2604 22.5555 61.4403C22.5658 62.6202 23.039 63.7488 23.8733 64.5832C24.7077 65.4175 25.8363 65.8908 27.0162 65.901C28.1961 65.9113 29.3328 65.4577 30.1815 64.638L55.638 39.1815C56.4816 38.3376 56.9556 37.1932 56.9556 36C56.9556 34.8067 56.4816 33.6624 55.638 32.8185L30.1815 7.36197C29.3377 6.51835 28.1933 6.04443 27 6.04443C25.8068 6.04443 24.6624 6.51835 23.8185 7.36197Z" fill="#1E1E1E"/>
</svg>
