<svg width="42" height="42" viewBox="0 0 42 42" fill="none" xmlns="http://www.w3.org/2000/svg">
<path d="M6.58934 1.47455L21 15.8852L35.336 1.54922C35.6527 1.21216 36.0341 0.942533 36.4575 0.756492C36.8809 0.570451 37.3376 0.471833 37.8 0.466553C38.7901 0.466553 39.7397 0.859885 40.4399 1.56002C41.14 2.26016 41.5333 3.20974 41.5333 4.19989C41.542 4.6576 41.4571 5.11226 41.2838 5.53598C41.1104 5.95969 40.8523 6.34351 40.5253 6.66389L26.0027 20.9999L40.5253 35.5226C41.1406 36.1245 41.5015 36.9397 41.5333 37.7999C41.5333 38.79 41.14 39.7396 40.4399 40.4398C39.7397 41.1399 38.7901 41.5332 37.8 41.5332C37.3242 41.553 36.8495 41.4735 36.406 41.3C35.9626 41.1265 35.56 40.8626 35.224 40.5252L21 26.1146L6.62667 40.4879C6.31123 40.8137 5.93438 41.0738 5.51788 41.2532C5.10138 41.4327 4.65347 41.5278 4.20001 41.5332C3.20986 41.5332 2.26028 41.1399 1.56014 40.4398C0.860004 39.7396 0.466672 38.79 0.466672 37.7999C0.457968 37.3422 0.542889 36.8875 0.716226 36.4638C0.889563 36.0401 1.14766 35.6563 1.47467 35.3359L15.9973 20.9999L1.47467 6.47722C0.859362 5.87525 0.498553 5.06009 0.466672 4.19989C0.466672 3.20974 0.860004 2.26016 1.56014 1.56002C2.26028 0.859885 3.20986 0.466553 4.20001 0.466553C5.096 0.477753 5.95467 0.839886 6.58934 1.47455Z" fill="#1E1E1E"/>
</svg>
